<svg xmlns="http://www.w3.org/2000/svg" width="929.427" height="90.135" viewBox="0 0 929.427 90.135">
  <path id="パス_5757" data-name="パス 5757" d="M991.473,768.325H62.046V678.19c22.016,0,34.377,14.82,51.827,21.838,11.171,4.491,23.916,2.636,34.75-1.387,21.6-8.022,34.738-27.457,62.643-16.308,14.812,5.92,27.1,16.726,44.19,19.4,30.243,4.729,42.189-22.4,69.434-23.267,30.718-.975,43.1,27.6,75.142,24.317,12.7-1.3,22.365-8.664,31.481-14.468,16.458-10.478,36.691-13.964,54.321-2.971,20.088,12.523,37.91,23.982,64.008,10.834,14.313-7.213,28.933-20.618,48.486-17.282,15.233,2.6,23.333,11.572,36.1,17.323,12.991,5.847,29.168,7.693,43.085,2.361,8.473-3.246,15.509-8.071,23.153-12.24,10.035-5.474,21.488-9.548,34.287-7.094,16.982,3.254,22.936,14.869,37.767,19.669,13.238,4.285,29.432,3.935,42.051-1.3,7.421-3.072,13.454-7.562,20.2-11.336,9.993-5.583,21.668-8.367,34.1-5.566,18.225,4.106,27.99,17,45.8,21.462,32.791,8.215,46.161-23.986,76.6-23.986Z" transform="translate(-62.046 -678.19)" fill="#f9d10c"/>
</svg>
