<svg xmlns="http://www.w3.org/2000/svg" width="27" height="27.001" viewBox="0 0 27 27.001"><path d="M191.955,523.89H182.73a4.33,4.33,0,0,0-8.494,0h-9.224c-.017.279-.029.559-.029.842s.011.563.029.842h9.224a4.33,4.33,0,0,0,8.494,0h9.224c.017-.279.028-.559.028-.842S191.972,524.169,191.955,523.89Zm-10.965,1.684a2.608,2.608,0,1,1,.14-.842A2.648,2.648,0,0,1,180.989,525.574Zm-2.506-6.615a5.788,5.788,0,0,1,5.3,3.488h7.991a13.486,13.486,0,0,0-26.587,0h7.992A5.788,5.788,0,0,1,178.483,518.959Zm0,11.546a5.788,5.788,0,0,1-5.3-3.488h-7.992a13.486,13.486,0,0,0,26.587,0h-7.991A5.788,5.788,0,0,1,178.483,530.505Zm11.454-2.044a12.043,12.043,0,0,1-22.909,0H172.3a7.217,7.217,0,0,0,12.358,0Z" transform="translate(-164.983 -511.232)"/></svg>