<svg xmlns="http://www.w3.org/2000/svg" width="341" height="39.128" viewBox="0 0 341 39.128"><g transform="translate(-825.09 -567.489)"><path d="M841.136,574.092a16.38,16.38,0,0,0-1.124-3.446,50.1,50.1,0,0,1,7.108-.615c1.336.041,1.675.369,1.508,1.067a6.225,6.225,0,0,0-.258,1.272,10.2,10.2,0,0,0,.116,1.846,29.31,29.31,0,0,0,.527,3.036,90.631,90.631,0,0,0,10.632-2.543c.5-.164.643-.164.794.369a28.583,28.583,0,0,1,.528,4.39.881.881,0,0,1-.773.9c-2.57.656-5.958,1.436-9.838,2.133a30.74,30.74,0,0,0,4.878,8.123c.339.328.725.656,1.137,1.067.22.246.376.369.307.656a3.452,3.452,0,0,1-.786,1.149,23.853,23.853,0,0,1-2.868,2.871,2.293,2.293,0,0,1-1.486.78,1.508,1.508,0,0,1-1.089-.492,13.32,13.32,0,0,0-1.591-1.108,18.829,18.829,0,0,0-9.159-2.256c-4.177,0-7.024,1.231-7.554,3.446-.668,2.79,2.641,3.9,10.391,3.9a60.274,60.274,0,0,0,7.626-.451,55.038,55.038,0,0,1-2.671,5.538c-.3.493-.482.657-1.291.739a50.044,50.044,0,0,1-5.432.2c-11.555,0-16.962-3.2-15.42-9.641,1.2-5.005,6.894-8.451,15.247-8.451a15.862,15.862,0,0,1,6.132.944,21.419,21.419,0,0,1-3.284-5.866c-2.77.328-5.53.615-8.874.82-1.737.082-3.473.164-5.051.164-.557,0-.72-.287-.749-.944a38.507,38.507,0,0,1-.019-4.964c2.374.164,4.24.123,6.106.082,1.783-.082,3.8-.164,7.228-.533C841.768,576.882,841.469,575.61,841.136,574.092Z" transform="translate(0 -1.65)" fill="#fff"/><path d="M947.994,570.244c.833.205,1.032.533.944.9a1.609,1.609,0,0,1-.511.779,3.54,3.54,0,0,0-.851,1.231c-.257.492-.487,1.067-.8,1.805a110.52,110.52,0,0,0,12.2-1.723c.633-.123.891-.041.83.41-.063,1.231-.27,2.872-.4,3.815-.14.779-.458.944-1.425,1.108-5.274.9-9.327,1.354-13.582,1.682a29.471,29.471,0,0,0-1.061,3.077,46.615,46.615,0,0,1,6.5-.574,11.942,11.942,0,0,0,1.373-2.831,26,26,0,0,1,4.954,1.6c.535.287.828.615.749.944a.959.959,0,0,1-.3.492,6.967,6.967,0,0,0-.781.738c5.216,1.477,8.062,5.292,6.825,10.461-1.433,5.99-7.627,10.544-16.747,12.39a4.625,4.625,0,0,1-.911.123c-.743,0-1.026-.369-1.4-1.148a10.936,10.936,0,0,0-2.573-3.405,35.513,35.513,0,0,0,8.766-2.5c2.942-1.436,5.23-3.241,6.015-6.523.608-2.544-.928-4.267-3.165-5.005a59.6,59.6,0,0,1-11.022,10.379,11.535,11.535,0,0,0,.38,1.518.864.864,0,0,1,.032.451,1.223,1.223,0,0,1-.724.7,33.6,33.6,0,0,1-4.389,2.051,2.31,2.31,0,0,1-.643.164.483.483,0,0,1-.432-.328,6.953,6.953,0,0,1-.362-1.395c-3.326,1.682-6,2.585-8.554,2.585-3.666,0-5.532-2.092-4.639-5.826,1.335-5.579,7.537-10.748,14.347-13.415.38-1.395.79-2.913,1.216-4.308-2.062.082-3.4.041-4.279.041-1.207,0-2.135,0-3.044-.082-.547-.041-.823-.246-.712-.9.214-1.477.521-2.954.772-4.39a67.263,67.263,0,0,0,9.139.205c.483-1.436,1.054-3.241,1.366-4.348a9.942,9.942,0,0,0,.332-1.969A38.094,38.094,0,0,1,947.994,570.244Zm-18.949,26.831a.989.989,0,0,0,1.022,1.354c1.021,0,2.438-.492,4.655-1.805a32.753,32.753,0,0,1,.6-5.99C931.727,592.85,929.5,595.188,929.045,597.075Zm17.714-9.641a20.5,20.5,0,0,0-4.854.7,27.848,27.848,0,0,0-.731,4.8A43.81,43.81,0,0,0,946.759,587.434Z" transform="translate(-63.047 -1.125)" fill="#fff"/><path d="M1046.7,643.82a1.518,1.518,0,0,1,.924-.37.969.969,0,0,1,.591.246,23.855,23.855,0,0,1,7.66,7.549c.273.41.281.574.241.738-.069.288-.247.452-.8.821l-4.184,2.749a2.078,2.078,0,0,1-.944.451c-.278,0-.435-.123-.625-.492a23.83,23.83,0,0,0-7.062-7.918c-.229-.205-.376-.37-.346-.492.039-.164.161-.288.565-.615Z" transform="translate(-141.125 -49.388)" fill="#fff"/><path d="M1096.208,590.021c7.927-2.118,13.995-3.529,19.067-3.529,9.346,0,13.124,5.605,11.564,12.125-1.44,6.021-5.538,9.8-11.866,12.5a50,50,0,0,1-13.76,3.529c-1.261.166-1.728-.041-1.979-.955a10.061,10.061,0,0,0-2.835-4.443,56.632,56.632,0,0,0,14.607-2.948c3.926-1.495,7.049-3.945,7.943-7.682.944-3.945-.65-6.311-5.863-6.311-4.274,0-10.4,1.661-17.159,4.194a39.919,39.919,0,0,0-4.091,1.786,3.365,3.365,0,0,1-1.689.581,1.7,1.7,0,0,1-1.376-1.121,31.117,31.117,0,0,1-2.181-5.605A54.119,54.119,0,0,0,1096.208,590.021Z" transform="translate(-170.018 -12.355)" fill="#fff"/><path d="M1221.146,573.621a7.241,7.241,0,0,0-.927-2.473,58.964,58.964,0,0,1,7.334-.657c.69,0,1.086.27.974.734a6.726,6.726,0,0,0-.268.927,4.681,4.681,0,0,0-.029,1.082,7.05,7.05,0,0,0,.2,1.855,74.9,74.9,0,0,0,8.678-1.662c.442-.116.708-.077.782.193a17.882,17.882,0,0,1,.244,3.4c.036.425-.249.657-.783.773-2.926.7-5.033,1.044-8.429,1.584.164.85.4,1.778.595,2.512a93.123,93.123,0,0,0,9.387-1.932c.543-.155.754-.078.782.193a27.665,27.665,0,0,1,.3,3.362c.027.464-.111.657-.7.812a83.839,83.839,0,0,1-8.3,1.816,17.532,17.532,0,0,0,4.593,6.183c.294.309.432.5.367.773a1.707,1.707,0,0,1-.369.58,26.267,26.267,0,0,1-3.491,3.246,1.624,1.624,0,0,1-.939.464,1.043,1.043,0,0,1-.662-.309,12.993,12.993,0,0,0-2.593-1.468,22.491,22.491,0,0,0-8.5-1.391c-3.956,0-6.377.889-6.737,2.4-.453,1.894,2.306,2.859,9.942,2.859,2.53,0,4.647-.193,5.714-.232.469-.039.561.155.423.541a37.036,37.036,0,0,1-2.406,4.676c-.24.425-.553.58-1.391.619-.975.039-1.95.077-3.239.077-12.421,0-16.889-3.246-15.779-7.883,1.23-5.139,7.3-7.265,13.883-7.265a21.892,21.892,0,0,1,6.752.811,31.214,31.214,0,0,1-2.139-3.555c-4.6.58-9.248.966-13.508,1.083-.607.038-.745-.155-.781-.58a21.89,21.89,0,0,1-.115-4.135,108.22,108.22,0,0,0,13.02-.773c-.22-.618-.5-1.739-.733-2.512a104.34,104.34,0,0,1-11.934.85c-.644,0-.847-.116-.864-.618-.026-.85-.015-2.435.078-3.98a93.053,93.053,0,0,0,12.035-.5C1221.429,575.322,1221.328,574.587,1221.146,573.621Zm19.923-2.9a.836.836,0,0,1,.35-.116.724.724,0,0,1,.413.193,16.262,16.262,0,0,1,3.464,4.367.382.382,0,0,1,.064.309c-.037.155-.156.271-.368.387l-2.541,1.391a.752.752,0,0,1-.4.155.4.4,0,0,1-.4-.271,17.456,17.456,0,0,0-3.73-4.792Zm4.971-2.7a.841.841,0,0,1,.35-.116.755.755,0,0,1,.5.232,15.814,15.814,0,0,1,3.427,4.135.415.415,0,0,1,.092.386c-.028.116-.1.232-.369.387l-2.5,1.43a1.006,1.006,0,0,1-.4.116.446.446,0,0,1-.4-.232,16.754,16.754,0,0,0-3.684-4.792Z" transform="translate(-247.495 -0.268)" fill="#fff"/><path d="M1347.057,595.569c1.066-4.454-1.167-9.032-6.763-9.4-2.506,7.382-6.609,14.682-10.927,19.013-3.041,3.052-5.648,4.289-9.3,4.289-3.975,0-8.525-3.588-6.689-11.259a21.511,21.511,0,0,1,8.091-11.8,27.95,27.95,0,0,1,17.215-5.691c12.572,0,17.478,6.928,15.455,15.383-2.171,9.073-9.119,13.775-18.833,16.126a4.94,4.94,0,0,1-1,.124,1.246,1.246,0,0,1-1.318-.866,9.506,9.506,0,0,0-2.971-4C1339.773,605.921,1345.468,602.209,1347.057,595.569Zm-22.339-5.155a15.467,15.467,0,0,0-4.83,7.63c-.74,3.093.52,4.784,1.906,4.784.924,0,1.7-.33,3.154-1.98,2.586-2.887,5.83-8.331,8.234-14.517A18.393,18.393,0,0,0,1324.718,590.414Z" transform="translate(-317.195 -8.604)" fill="#fff"/><path d="M1439.815,604.985c-.126.524-.181.564-.774.564h-5.518c-.593,0-.629-.04-.5-.564.068-.282.737-2.7,3.342-13.588l1.8-7.539c1.814-7.58,2.321-10.08,2.388-10.362.125-.524.18-.565.773-.565.319,0,1.9.081,6.274.081h3.284a37.287,37.287,0,0,0,2.416-3.427,13.228,13.228,0,0,0,1.094-2.1c2.013.161,4.672.484,6.337.766.483.081.689.363.631.6a1.193,1.193,0,0,1-.61.645,3.25,3.25,0,0,0-.952.927c-.613.847-1.151,1.572-1.985,2.58h8.664c4.377,0,5.993-.081,6.312-.081.593,0,.629.041.5.565-.058.242-.747,2.742-2.271,9.112l-2.093,8.749c-2.6,10.886-3.083,13.265-3.15,13.547-.116.484-.171.524-.764.524h-5.563c-.593,0-.629-.04-.513-.524l.338-1.411h-19.107Zm1.592-6.653h19.107l.849-3.548h-19.107Zm2.026-8.467h19.107l.82-3.427h-19.107Zm21.1-8.346.8-3.347h-19.107l-.8,3.347Z" transform="translate(-395.217 0)" fill="#fff"/><path d="M1553.822,586.647c-1.381,1.008-2.789,1.935-4.177,2.782a3.747,3.747,0,0,1-1.487.685c-.365,0-.551-.363-.87-1.129a9.474,9.474,0,0,0-2.526-3.548,46.3,46.3,0,0,0,15.5-12.741,17.506,17.506,0,0,0,1.789-2.9,45.3,45.3,0,0,1,5.611,1.895c.49.242.66.484.582.807a1.076,1.076,0,0,1-.63.726,5.492,5.492,0,0,0-1.607,1.573,61.418,61.418,0,0,1-9.384,9.676c.948.04,2.362.04,4.368.04h16.461a32.393,32.393,0,0,1-5.806-12.136c-.1-.524,0-.565.649-.806l5.148-1.693c.7-.242.778-.2.88.322a22.611,22.611,0,0,0,10.693,14.394,30.523,30.523,0,0,0-4.515,4.193c-.685.766-1.045,1.129-1.41,1.129-.319,0-.626-.242-1.159-.685a22.979,22.979,0,0,1-1.9-1.774c-.126.524-.3,1.048-.412,1.532a88.985,88.985,0,0,1-4.093,12.338c-1.607,3.669-3.964,5.322-8.979,5.322-.867,0-1.824,0-2.772-.04-1.805-.081-1.841-.121-1.8-1.814a8.981,8.981,0,0,0-.756-4.274,39.081,39.081,0,0,0,5.34.363,2.816,2.816,0,0,0,3.091-2.056,60.735,60.735,0,0,0,2.982-9.032h-6.749c-2.839,7.862-9.026,13.709-18.142,16.934a6.235,6.235,0,0,1-1.51.4c-.456,0-.6-.363-.923-1.29a7.758,7.758,0,0,0-2.219-3.306c8.861-2.54,13.413-6.128,16-12.741-3.739,0-5.127.081-5.4.081-.593,0-.629-.04-.513-.524Z" transform="translate(-466.818 -1.458)" fill="#fff"/><path d="M1680.423,600.891c1.555-1,5.327-3.407,10.334-6.856a9,9,0,0,1,5.288-1.87,5.777,5.777,0,0,1,4.02,1.662c3.244,2.742,5.389,4.778,8.757,7.4a92.357,92.357,0,0,0,9.63,6.109c.494.29.726.5.362,1.039a38.793,38.793,0,0,1-4.119,5.235c-.381.416-.656.582-.985.582a1.46,1.46,0,0,1-.739-.25,90.668,90.668,0,0,1-9.141-6.773c-2.966-2.535-5.612-5.028-7.82-7.188a2.28,2.28,0,0,0-1.577-.872,3.239,3.239,0,0,0-1.635.748c-3.2,2.368-6.387,4.7-9.14,6.773a23.386,23.386,0,0,0-2.4,1.994,1.682,1.682,0,0,1-1.183.623,1.326,1.326,0,0,1-1.009-.5,29.483,29.483,0,0,1-3.568-5.319A30.742,30.742,0,0,0,1680.423,600.891Z" transform="translate(-552.902 -16.043)" fill="#fff"/></g></svg>