<?xml version="1.0" encoding="UTF-8"?><svg id="b" xmlns="http://www.w3.org/2000/svg" width="1648.174" height="127.198" viewBox="0 0 1648.174 127.198"><g id="c"><polygon points="1553.902 127.198 1648.174 127.198 1648.174 18.925 1648.157 18.917 1641.109 102.036 1548.9 58.551 1548.9 63.18 1553.902 65.544 1553.902 127.198" fill="#f7f6e9"/><polygon points="88.999 60.344 1.358 18.917 1.358 102.036 0 101.399 0 127.198 88.999 127.198 88.999 60.344" fill="#f7f6e9"/><polygon points="832.001 127.198 1178.9 127.198 1178.9 58.551 1198.902 67.984 1198.902 65.544 1100.257 18.917 1100.257 102.036 923.157 18.917 916.109 102.036 823.9 58.551 823.9 61.715 832.001 65.544 832.001 127.198" fill="#f7f6e9"/><polygon points="464.001 127.198 823.9 127.198 823.9 61.715 733.357 18.917 733.357 102.036 556.257 18.917 549.208 102.036 456.999 58.551 456.999 62.235 464.001 65.544 464.001 127.198" fill="#f7f6e9"/><polygon points="832.001 127.198 832.001 65.544 823.9 61.715 823.9 127.198 832.001 127.198" fill="#f7f6e9"/><polygon points="1548.9 127.198 1548.9 63.18 1455.257 18.917 1455.257 102.036 1278.157 18.917 1271.109 102.036 1198.902 67.984 1198.902 127.198 1548.9 127.198" fill="#f7f6e9"/><polygon points="1553.902 127.198 1553.902 65.544 1548.9 63.18 1548.9 127.198 1553.902 127.198" fill="#f7f6e9"/><polygon points="1178.9 127.198 1198.902 127.198 1198.902 67.984 1178.9 58.551 1178.9 127.198" fill="#f7f6e9"/><polygon points="100.002 127.198 456.999 127.198 456.999 62.235 365.357 18.917 365.357 102.036 188.257 18.917 181.208 102.036 88.999 58.551 88.999 60.344 100.002 65.544 100.002 127.198" fill="#f7f6e9"/><polygon points="100.002 127.198 100.002 65.544 88.999 60.344 88.999 127.198 100.002 127.198" fill="#f7f6e9"/><polygon points="464.001 127.198 464.001 65.544 456.999 62.235 456.999 127.198 464.001 127.198" fill="#f7f6e9"/><path d="m372.313,127.198c-.953-.031-1.887-.27-2.738-.7-.274-.116-.327-.139-.373-.165L200.938,28.879c-.984-.686-2.132-1.1-3.328-1.2-.56-.007-1.112.135-1.6.411-1.347.81-2.125,2.307-2.014,3.875v89.97c0,3.326-1.257,5.233-3.449,5.233-.954-.031-1.89-.27-2.742-.7-.266-.114-.329-.141-.382-.171L19.168,28.854c-.983-.687-2.131-1.101-3.326-1.2-.56-.006-1.112.136-1.6.413-1.378.846-2.158,2.398-2.016,4.008v91.786H0V5.309C0,1.936,1.3,0,3.575,0c1.263.06,2.49.44,3.565,1.105l167.532,94.444c1.083.637,2.292,1.03,3.543,1.152,2.056,0,3.552-1.852,3.552-4.406V5.334c0-3.373,1.3-5.309,3.575-5.309,1.264.059,2.491.44,3.567,1.105l167.532,94.444c1.084.638,2.294,1.033,3.546,1.156,2.056,0,3.55-1.854,3.55-4.408V5.309c0-3.373,1.3-5.309,3.575-5.309,1.263.059,2.49.44,3.565,1.105l167.534,94.444c1.082.637,2.291,1.03,3.541,1.152,2.054,0,3.548-1.852,3.548-4.406V13.698h12.24v108.242c.099,1.475-.296,2.94-1.122,4.166-.568.702-1.432,1.097-2.335,1.067-.952-.03-1.886-.269-2.736-.7-.234-.1-.323-.139-.4-.179L382.703,28.854c-.982-.688-2.129-1.102-3.324-1.2-.557-.006-1.106.132-1.595.4-1.347.812-2.126,2.31-2.016,3.879v90.029c-.002,3.336-1.259,5.236-3.455,5.236Z" fill="#f8f1b0"/><path d="m917.618,127.198c-.953-.031-1.887-.27-2.738-.7-.274-.116-.327-.139-.373-.165l-168.265-97.454c-.984-.686-2.132-1.1-3.328-1.2-.56-.007-1.112.135-1.6.411-1.347.81-2.125,2.307-2.014,3.875v89.97c0,3.326-1.257,5.233-3.449,5.233-.954-.031-1.89-.27-2.742-.7-.266-.114-.329-.141-.382-.171l-168.254-97.443c-.983-.687-2.131-1.101-3.326-1.2-.56-.006-1.113.136-1.6.413-1.378.846-2.158,2.398-2.016,4.008v87.269h-12.229V5.309c0-3.373,1.3-5.309,3.577-5.309,1.263.06,2.49.44,3.565,1.105l167.532,94.444c1.083.637,2.292,1.03,3.543,1.152,2.057,0,3.552-1.852,3.552-4.406V5.334c0-3.373,1.3-5.309,3.575-5.309,1.264.059,2.491.44,3.567,1.105l167.532,94.444c1.084.638,2.294,1.033,3.546,1.156,2.056,0,3.55-1.854,3.55-4.408V5.309c0-3.373,1.3-5.309,3.575-5.309,1.263.06,2.49.44,3.565,1.105l167.532,94.444c1.084.636,2.295,1.028,3.546,1.149,2.054,0,3.548-1.852,3.548-4.406V13.698h12.24v108.242c.099,1.475-.297,2.941-1.124,4.166-.567.702-1.431,1.097-2.333,1.067-.953-.03-1.888-.269-2.738-.7-.232-.1-.321-.139-.4-.179l-168.244-97.44c-.982-.688-2.129-1.102-3.324-1.2-.557-.006-1.107.132-1.595.4-1.349.81-2.128,2.309-2.016,3.879v90.029c-.003,3.336-1.26,5.236-3.455,5.236Z" fill="#f8f1b0"/><path d="m1462.933,127.198c-.953-.031-1.889-.27-2.74-.7-.274-.116-.327-.139-.374-.165l-168.266-97.454c-.984-.686-2.132-1.1-3.328-1.2-.558-.003-1.108.141-1.592.419-1.348.809-2.127,2.307-2.016,3.875v89.97c0,3.326-1.257,5.233-3.449,5.233-.954-.031-1.89-.27-2.742-.7-.266-.114-.329-.141-.382-.171l-168.26-97.451c-.983-.687-2.131-1.101-3.326-1.2-.56-.007-1.113.136-1.6.413-1.379.845-2.161,2.397-2.019,4.008v87.269h-12.224V5.309c0-3.373,1.3-5.309,3.575-5.309,1.263.059,2.49.44,3.565,1.105l167.532,94.444c1.084.636,2.294,1.028,3.546,1.149,2.059,0,3.552-1.852,3.552-4.406V5.334c0-3.373,1.3-5.309,3.577-5.309,1.263.06,2.49.44,3.565,1.105l167.532,94.444c1.084.638,2.294,1.033,3.546,1.156,2.056,0,3.55-1.854,3.55-4.408V5.309c0-3.373,1.3-5.309,3.575-5.309,1.263.059,2.49.44,3.565,1.105l167.535,94.444c1.082.637,2.291,1.031,3.541,1.152,2.056,0,3.548-1.852,3.548-4.406V13.698h12.24v108.242c.099,1.475-.296,2.94-1.122,4.166-.568.702-1.432,1.097-2.335,1.067-.952-.03-1.886-.269-2.736-.7-.234-.1-.323-.139-.4-.179l-168.247-97.44c-.982-.688-2.129-1.102-3.324-1.2-.557-.006-1.106.132-1.594.4-1.347.812-2.126,2.31-2.016,3.879v90.029c-.004,3.336-1.261,5.236-3.452,5.236Z" fill="#f8f1b0"/></g></svg>