<svg xmlns="http://www.w3.org/2000/svg" width="155.13" height="28.32" viewBox="0 0 155.13 28.32"><path d="M119.81,9.05h-9.24V5.21h11.46V1.4H106.46V12.02c0,6.9-1.29,9.54-1.83,10.65a22.619,22.619,0,0,1-1.32-2.25h1.71V1.4H95.57V20.42h1.08a23.2,23.2,0,0,1-2.88,5.67,12.655,12.655,0,0,1,3.81,2.01,23.891,23.891,0,0,0,2.76-5.85h.03a10.89,10.89,0,0,0,1.74,3c.39-.24.57-.36,1.71-1.05a23.2,23.2,0,0,1-1.74,2.49,9.687,9.687,0,0,1,3.78,1.59,12.679,12.679,0,0,0,1.74-2.31,10.333,10.333,0,0,1,2.79,2.7,20.093,20.093,0,0,0,4.77-3.69,19.3,19.3,0,0,0,4.35,3.51c.39-.42,1.11-1.2,1.56-1.59,1.32-1.05,1.47-1.17,1.8-1.44a21.288,21.288,0,0,1-5.1-3.96c1.74-2.97,2.7-5.61,3.51-11.31Zm-18.18.72v2.1H99.02V9.77Zm0,5.01v2.13H99.02V14.78ZM99.02,6.89V5h2.61V6.89Zm1.5,14.55L97.7,20.42h4.32Zm16.08-8.61a17.111,17.111,0,0,1-1.47,5.1,17.431,17.431,0,0,1-1.8-5.1Zm-6.3,4.29a20.429,20.429,0,0,0,2.31,4.77,13,13,0,0,1-4.53,3.18A22.03,22.03,0,0,0,110.3,17.12Zm16.35-4.86v6.42h4.68V15.74h17.4v2.79h4.59V12.26Zm7.86,3.93c-.06,5.73-2.13,7.65-8.31,8.91a8.4,8.4,0,0,1,2.79,3.78c2.25-.51,9.06-2.22,10.02-11.19.3,0,.93-.06.93-.54,0-.21-.18-.3-.42-.33Zm15.12,11.7c3.78,0,4.14-3.15,4.44-5.79a7.742,7.742,0,0,1-4.14-1.98c-.12.72-.27,1.89-.39,2.58-.15.84-.48,1.26-1.53,1.26h-1.92c-.66,0-.93-.21-.93-1.32V17.45c.6-.27.69-.3.69-.57,0-.39-.42-.39-.69-.39l-4.47-.09v7.98c0,3.51,2.4,3.51,3.69,3.51ZM142.28,3.38V1.94c.3-.18.63-.36.63-.6,0-.27-.27-.36-.45-.36L137.6.8V3.38H126.35V7.01H137.6v.93h-8.19v3.48H150.5V7.94h-8.22V7.01h11.31V3.38Zm32.49,6.51V8c.72-.18.72-.39.69-.63H185V3.62H173.84V1.94a5.446,5.446,0,0,0,.42-.42.523.523,0,0,0,.18-.36c0-.36-.3-.39-.45-.39L169.13.56V3.62h-9.6v9.39c0,1.8,0,8.67-2.82,13.35a12.492,12.492,0,0,1,4.11,1.83,20.318,20.318,0,0,0,2.55-6.84,56.1,56.1,0,0,0,.75-8.07V7.37h5.94v9.09h-5.49V28.34h4.2v-.99h10.02v.99h4.44V16.46h-8.46V13.58H185V9.89Zm-6,10.35h10.02v3.51H168.77Zm42.69,3.36c0,.96,0,1.11-.66,1.11a18.54,18.54,0,0,1-2.04-.21,9.914,9.914,0,0,1,1.53,3.81c5.52.18,5.52-1.26,5.52-3.42V13.7H200.36V28.13h4.41V23.6Zm-6.69-2.37V19.97h6.69v1.26Zm0-3.63V16.34h6.69V17.6ZM197.54,5.18V2.09c.42-.18.78-.33.78-.72,0-.3-.33-.39-.51-.39L193.16.74V6.56a1.832,1.832,0,0,0-.39-.09l-3.45-.45a25.6,25.6,0,0,1-1.23,7.29,11.815,11.815,0,0,1,3.36,1.41,36.053,36.053,0,0,0,1.23-7.32,1.023,1.023,0,0,0,.48-.12V28.13h4.38V8.66a12.7,12.7,0,0,1,1.26,1.65v2.31h18.33V9.83h-7.08V8.84h4.77V6.38h-4.77V5.39h6.48V2.54h-6.48V1.88c.3-.15.57-.33.57-.6,0-.33-.3-.36-.57-.39L205.58.62V2.54h-5.85V5.39h5.85v.99h-4.05V8.84h4.05v.99h-6.24a7.886,7.886,0,0,1,2.16-1.98,30.241,30.241,0,0,0-3.33-3.21ZM229.7,18.02h4.38V14.48h-2.13c.12-.24.39-.87.66-1.59.54-.03.78-.15.78-.45s-.27-.36-.54-.42l-2.01-.42h3.45V8.09H229.7V6.68h3.87V3.32H229.7V2.06c.33-.21.63-.42.63-.69a.377.377,0,0,0-.42-.33L225.68.83V3.32h-3.69V6.68h3.69V8.09h-5.16V11.6h3.84l-2.34.66a10.818,10.818,0,0,1,.84,2.22h-1.74v3.54h4.56v1.44h-4.14V23h4.14v5.31h4.02V23h4.11V19.46H229.7Zm9.51,1.41a16.987,16.987,0,0,0,1.5,3.3,19,19,0,0,1-1.5,2.07Zm0,6.99a11.144,11.144,0,0,1,2.16,1.74,11.73,11.73,0,0,0,1.8-2.16,32.643,32.643,0,0,0,2.4,2.46,14.7,14.7,0,0,1,3.33-2.7,17.541,17.541,0,0,1-3.54-3.33,39.316,39.316,0,0,0,2.91-8.04l-2.01-2.1h-7.05V5.18h3.93V6.35c0,1.14-.12,1.35-1.14,1.35a6.8,6.8,0,0,1-1.89-.21,8.842,8.842,0,0,1,1.59,4.14c3.24-.03,5.07-.6,5.43-2.58a62.084,62.084,0,0,0,.18-7.65h-12.3V28.31h4.2ZM229.13,11.6a15.454,15.454,0,0,1-.96,2.88h-2.25l1.05-.33a20.506,20.506,0,0,0-1.02-2.55Zm10.08,6.18V16.01h4.41a15.279,15.279,0,0,1-.9,2.88,13.812,13.812,0,0,1-.93-2.73Z" transform="translate(-93.77 -0.56)"/></svg>