<svg xmlns="http://www.w3.org/2000/svg" width="260.627" height="38.592" viewBox="0 0 260.627 38.592"><g transform="translate(23282.328 -2065)"><g transform="translate(-23282.328 2065)"><path d="M843.988,1935.957a.113.113,0,0,1,.127-.13H845l.055,0a.1.1,0,0,1,.045.008.139.139,0,0,1,.044.035.57.57,0,0,1,.053.088l1.025,1.729.188.389-.033-.389v-1.729a.147.147,0,0,1,.031-.091.119.119,0,0,1,.1-.038h.868a.172.172,0,0,1,.079.023c.028.014.041.048.041.1v4.054c0,.084-.045.126-.138.126h-.733a.208.208,0,0,1-.114-.032.231.231,0,0,1-.085-.094l-1.183-1.926-.172-.333.04.33v1.929a.112.112,0,0,1-.128.126h-.865a.112.112,0,0,1-.127-.126Z" transform="translate(-843.154 -1923.973)"/><path d="M886.746,1940.01c.03.084,0,.126-.075.126h-.935a.2.2,0,0,1-.11-.03.163.163,0,0,1-.063-.1l-.111-.442H884.2l-.109.442a.164.164,0,0,1-.063.1.189.189,0,0,1-.106.03h-.939q-.121,0-.076-.126l1.277-4.048a.166.166,0,0,1,.168-.13h.95a.167.167,0,0,1,.169.13Zm-2.293-1.477h.742l-.278-1.113-.094-.525-.1.525Z" transform="translate(-872.786 -1923.978)"/><path d="M925.428,1937.652l1.352,2.351a.114.114,0,0,1,.021.1c-.01.026-.034.038-.072.038h-1.06a.191.191,0,0,1-.176-.124l-.783-1.418-.29.362v1.054a.112.112,0,0,1-.041.094.168.168,0,0,1-.1.032h-.845a.112.112,0,0,1-.127-.126v-4.048a.113.113,0,0,1,.127-.129h.875a.107.107,0,0,1,.089.033.166.166,0,0,1,.025.1v1.479l.963-1.513a.181.181,0,0,1,.089-.084.449.449,0,0,1,.113-.012h1a.059.059,0,0,1,.047.018.089.089,0,0,1,.021.043.119.119,0,0,1,0,.055.144.144,0,0,1-.022.05Z" transform="translate(-903.565 -1923.981)"/><path d="M964.317,1940.01q.046.126-.075.126h-.936a.192.192,0,0,1-.109-.03.162.162,0,0,1-.063-.1l-.112-.442h-1.255l-.109.442a.164.164,0,0,1-.063.1.19.19,0,0,1-.106.03h-.938q-.121,0-.076-.126l1.277-4.048a.166.166,0,0,1,.169-.13h.95a.167.167,0,0,1,.169.13Zm-2.293-1.477h.742l-.278-1.113-.093-.525-.1.525Z" transform="translate(-931.868 -1923.978)"/><path d="M1001.257,1935.957a.113.113,0,0,1,.126-.13h.887l.055,0a.1.1,0,0,1,.045.008.131.131,0,0,1,.044.035.591.591,0,0,1,.053.088l1.025,1.729.187.389-.033-.389v-1.729a.148.148,0,0,1,.031-.091.118.118,0,0,1,.1-.038h.869a.172.172,0,0,1,.079.023c.028.014.042.048.042.1v4.054c0,.084-.046.126-.138.126h-.733a.207.207,0,0,1-.115-.032.239.239,0,0,1-.085-.094l-1.182-1.926-.172-.333.04.33v1.929a.112.112,0,0,1-.128.126h-.865a.112.112,0,0,1-.126-.126Z" transform="translate(-962.939 -1923.973)"/><path d="M1042.117,1937.094a1.637,1.637,0,0,1,.139-.681,1.582,1.582,0,0,1,.382-.53,1.714,1.714,0,0,1,.573-.344,2.119,2.119,0,0,1,1.422,0,1.741,1.741,0,0,1,.575.344,1.567,1.567,0,0,1,.383.53,1.639,1.639,0,0,1,.139.681v1.156a1.619,1.619,0,0,1-.139.678,1.555,1.555,0,0,1-.383.528,1.746,1.746,0,0,1-.573.343,2.122,2.122,0,0,1-1.423,0,1.719,1.719,0,0,1-.573-.343,1.57,1.57,0,0,1-.382-.528,1.633,1.633,0,0,1-.139-.678Zm1.113,1.078a.817.817,0,0,0,.05.293.652.652,0,0,0,.14.227.618.618,0,0,0,.219.15.765.765,0,0,0,.569,0,.636.636,0,0,0,.218-.15.649.649,0,0,0,.14-.227.828.828,0,0,0,.05-.293v-1.005a.825.825,0,0,0-.049-.29.658.658,0,0,0-.138-.229.623.623,0,0,0-.219-.151.772.772,0,0,0-.57,0,.61.61,0,0,0-.219.151.677.677,0,0,0-.14.229.8.8,0,0,0-.05.29Z" transform="translate(-994.06 -1923.661)"/><path d="M1135.436,1935.965c0-.087.039-.129.117-.129h2.891c.081,0,.121.043.121.129v.8c0,.086-.04.13-.121.13h-.887v3.114a.127.127,0,0,1-.033.1.131.131,0,0,1-.093.031h-.881c-.073,0-.109-.042-.109-.126V1936.9h-.887c-.078,0-.117-.044-.117-.13Z" transform="translate(-1065.137 -1923.981)"/><path d="M1172.358,1938.551l-1.222-2.586a.094.094,0,0,1-.007-.1.092.092,0,0,1,.082-.034h1.008a.16.16,0,0,1,.1.031.214.214,0,0,1,.063.1l.452,1.234.082.372.081-.372.444-1.234a.219.219,0,0,1,.064-.1.158.158,0,0,1,.1-.031h1.02a.073.073,0,0,1,.069.124l-1.225,2.607v1.446q0,.127-.118.127h-.881c-.079,0-.118-.042-.118-.127Z" transform="translate(-1092.315 -1923.981)"/><path d="M1209.831,1935.965a.113.113,0,0,1,.126-.129h.865a.113.113,0,0,1,.128.129v3.111h1.277c.079,0,.117.043.117.128v.808c0,.085-.038.126-.117.126h-2.269a.112.112,0,0,1-.126-.126Z" transform="translate(-1121.8 -1923.981)"/><path d="M1245.221,1935.965a.113.113,0,0,1,.127-.129h.884a.092.092,0,0,1,.085.033.177.177,0,0,1,.021.1v4.047a.174.174,0,0,1-.021.1.1.1,0,0,1-.085.031h-.884a.112.112,0,0,1-.127-.126Z" transform="translate(-1148.754 -1923.981)"/><path d="M1274.987,1935.957a.113.113,0,0,1,.126-.13H1276l.054,0a.1.1,0,0,1,.046.008.128.128,0,0,1,.044.035.5.5,0,0,1,.053.088l1.025,1.729.188.389-.033-.389v-1.729a.145.145,0,0,1,.031-.091.118.118,0,0,1,.1-.038h.869a.177.177,0,0,1,.079.021c.028.015.042.05.042.1V1940c0,.085-.046.126-.139.126h-.733a.211.211,0,0,1-.115-.031.232.232,0,0,1-.084-.1l-1.184-1.925-.171-.333.039.33V1940a.111.111,0,0,1-.127.126h-.867a.111.111,0,0,1-.126-.126Z" transform="translate(-1171.426 -1923.973)"/><path d="M1315.434,1938.516a1.215,1.215,0,0,1-.067.4,1.363,1.363,0,0,1-.182.346,1.47,1.47,0,0,1-.27.278,1.756,1.756,0,0,1-.691.335,1.605,1.605,0,0,1-.366.044,2,2,0,0,1-.709-.122,1.67,1.67,0,0,1-.563-.342,1.543,1.543,0,0,1-.37-.528,1.673,1.673,0,0,1-.135-.679v-1.125a1.722,1.722,0,0,1,.135-.688,1.608,1.608,0,0,1,.37-.54,1.7,1.7,0,0,1,.563-.353,1.942,1.942,0,0,1,.706-.126,1.826,1.826,0,0,1,.451.055,1.613,1.613,0,0,1,.406.162,1.554,1.554,0,0,1,.347.273,1.728,1.728,0,0,1,.275.387.224.224,0,0,1,.033.136.081.081,0,0,1-.048.072l-.625.307-.053.019a.288.288,0,0,1-.056.011.139.139,0,0,1-.051-.009.1.1,0,0,1-.039-.038.7.7,0,0,0-.247-.263.634.634,0,0,0-.329-.088.761.761,0,0,0-.288.054.685.685,0,0,0-.379.381.775.775,0,0,0-.054.29v1a.784.784,0,0,0,.053.293.686.686,0,0,0,.142.228.662.662,0,0,0,.21.15.616.616,0,0,0,.256.054.657.657,0,0,0,.4-.108.429.429,0,0,0,.172-.29h-.38c-.079,0-.118-.042-.118-.127v-.772c0-.084.039-.127.118-.127h1.255a.113.113,0,0,1,.127.127Z" transform="translate(-1199.68 -1923.661)"/><path d="M1099.136,1939.05a.525.525,0,0,1-.059-.16c-.008-.047.019-.083.077-.109l.676-.368a.124.124,0,0,1,.1-.005.207.207,0,0,1,.09.1.64.64,0,0,0,.107.142.866.866,0,0,0,.155.125.84.84,0,0,0,.187.091.628.628,0,0,0,.2.035.591.591,0,0,0,.313-.074.242.242,0,0,0,.12-.219.259.259,0,0,0-.061-.171.708.708,0,0,0-.182-.146,3.229,3.229,0,0,0-.3-.154c-.119-.054-.255-.119-.407-.2a2.373,2.373,0,0,1-.462-.282,1.36,1.36,0,0,1-.285-.305,1.027,1.027,0,0,1-.145-.333,1.628,1.628,0,0,1-.041-.371,1.134,1.134,0,0,1,.407-.888,1.421,1.421,0,0,1,.462-.253,1.834,1.834,0,0,1,.592-.09,2.331,2.331,0,0,1,.414.038,1.63,1.63,0,0,1,.4.129,1.531,1.531,0,0,1,.364.242,1.455,1.455,0,0,1,.3.377.4.4,0,0,1,.058.163.1.1,0,0,1-.076.106l-.591.3a.2.2,0,0,1-.129.02.222.222,0,0,1-.11-.093.56.56,0,0,0-.237-.19.8.8,0,0,0-.319-.063,1.02,1.02,0,0,0-.167.014.469.469,0,0,0-.133.043.242.242,0,0,0-.089.074.172.172,0,0,0-.032.106.237.237,0,0,0,.021.1.288.288,0,0,0,.076.1.766.766,0,0,0,.147.1,2.409,2.409,0,0,0,.238.113,5.644,5.644,0,0,1,.589.281,2.039,2.039,0,0,1,.441.321,1.236,1.236,0,0,1,.276.4,1.258,1.258,0,0,1,.1.5,1.28,1.28,0,0,1-.113.542,1.224,1.224,0,0,1-.318.422,1.468,1.468,0,0,1-.489.275,1.99,1.99,0,0,1-1.121.033,1.763,1.763,0,0,1-.436-.182,1.623,1.623,0,0,1-.353-.275,1.521,1.521,0,0,1-.253-.35" transform="translate(-1037.443 -1923.661)"/><path d="M848,2008.157c-.112,0-.227-.033-.227-.277v-8.9H845.18c-.177,0-.253-.086-.253-.286v-2.272c0-.2.076-.288.253-.288h8.185c.184,0,.262.086.262.288v2.272c0,.2-.078.286-.262.286h-2.592v8.9a.273.273,0,0,1-.069.209.29.29,0,0,1-.21.068Z" transform="translate(-843.87 -1969.907)"/><path d="M953.608,2008.157a.459.459,0,0,1-.262-.072.375.375,0,0,1-.147-.227l-.331-1.309h-3.68l-.322,1.311a.386.386,0,0,1-.146.224.453.453,0,0,1-.255.072h-2.657c-.055,0-.126-.008-.154-.045s-.019-.108.016-.206l3.616-11.461a.388.388,0,0,1,.4-.311h2.691a.389.389,0,0,1,.4.312l3.614,11.457c.036.1.041.174.016.209s-.1.045-.151.045Zm-2.932-7.624-.8,3.247h2.307l-.812-3.252-.342-1.919Z" transform="translate(-920.577 -1969.907)"/><path d="M1067.429,2008.146a.526.526,0,0,1-.283-.078.6.6,0,0,1-.211-.237l-3.351-5.457-.689-1.329.165,1.373v5.451c0,.194-.084.277-.279.277h-2.454c-.194,0-.277-.083-.277-.277V1996.41c0-.2.083-.288.277-.288h2.513c.059,0,.112,0,.159,0H1063a.23.23,0,0,1,.088.015.287.287,0,0,1,.093.079,1.455,1.455,0,0,1,.14.233l2.907,4.9.717,1.493-.132-1.54v-4.889a.314.314,0,0,1,.072-.206.251.251,0,0,1,.208-.082h2.46a.4.4,0,0,1,.185.056c.051.026.076.1.076.214v11.476c0,.194-.093.277-.312.277Z" transform="translate(-1007.719 -1969.896)"/><path d="M1178.1,2008.157c-.112,0-.227-.033-.227-.277v-8.9h-2.593c-.177,0-.253-.086-.253-.286v-2.272c0-.2.076-.288.253-.288h8.185c.184,0,.262.086.262.288v2.272c0,.2-.079.286-.262.286h-2.59v8.9a.275.275,0,0,1-.07.209.291.291,0,0,1-.21.068Z" transform="translate(-1095.295 -1969.907)"/><path d="M1288.177,2007.552a5.734,5.734,0,0,1-1.994-.341,4.874,4.874,0,0,1-1.6-.954,4.377,4.377,0,0,1-1.061-1.469,4.553,4.553,0,0,1-.387-1.89v-3.273a4.565,4.565,0,0,1,.386-1.9,4.429,4.429,0,0,1,1.062-1.474,4.836,4.836,0,0,1,1.6-.958,5.97,5.97,0,0,1,3.969,0,4.88,4.88,0,0,1,1.6.958,4.434,4.434,0,0,1,1.066,1.476,4.6,4.6,0,0,1,.386,1.893v3.273a4.572,4.572,0,0,1-.386,1.89,4.388,4.388,0,0,1-1.066,1.469,4.93,4.93,0,0,1-1.6.954,5.655,5.655,0,0,1-1.978.341m0-9.851a2.114,2.114,0,0,0-.84.161,1.889,1.889,0,0,0-.646.445,2.057,2.057,0,0,0-.415.677,2.444,2.444,0,0,0-.146.848v2.846a2.463,2.463,0,0,0,.146.855,1.973,1.973,0,0,0,.416.673,1.885,1.885,0,0,0,.645.44,2.261,2.261,0,0,0,1.674,0,1.938,1.938,0,0,0,.643-.44,1.97,1.97,0,0,0,.413-.673,2.408,2.408,0,0,0,.146-.855v-2.846a2.466,2.466,0,0,0-.141-.848,1.977,1.977,0,0,0-.409-.677,1.9,1.9,0,0,0-.648-.445,2.122,2.122,0,0,0-.838-.161" transform="translate(-1177.636 -1969.012)"/><path d="M1669.589,2001.6l-2.737-2.731H1659.6v11.712h7.251l2.737-2.731Zm-3.249,4.952-.9.895h-2.594v-5.442h2.594l.9.894Z" transform="translate(-1464.368 -1971.995)"/><path d="M1614.569,2010.586h3.88l-2.476-3.59,2.106-2.1v-3.29l-2.737-2.731h-7.251v11.712h3.2v-2.959h1.238Zm-3.23-8.577h2.594l.9.894v.694l-.9.894h-2.594Z" transform="translate(-1425.136 -1971.995)"/><path d="M1515.423,1998.874h-7.252l-2.738,2.73v6.25l2.738,2.731h7.252v-3.135h-5.843l-.9-.894V2002.9l.9-.894h5.843Z" transform="translate(-1346.947 -1971.994)"/><path d="M1566.751,2010.586V2001.6l-2.738-2.731H1559.5l-2.738,2.731v8.982h3.25v-2.96h3.491v2.96Zm-6.74-6.095V2002.9l.9-.894h1.7l.9.894v1.589Z" transform="translate(-1386.042 -1971.995)"/><path d="M1848.559,2010.586V2001.6l-2.737-2.73h-7.639l-2.738,2.73v8.982h3.249V2002h1.708v8.589h3.2V2002h1.708v8.59Z" transform="translate(-1598.302 -1971.994)"/><path d="M1899.885,2010.586h8.124v-3.149h-4.924v-1.662h4.924v-2.089h-4.924v-1.674h4.924v-3.137h-8.124Z" transform="translate(-1647.383 -1971.994)"/><path d="M1742.777,1998.874h-7.251l-2.738,2.73v6.25l2.738,2.731h7.251v-6.972h-5.127v2.232h1.927v1.6h-2.643l-.9-.894V2002.9l.9-.894h5.843Z" transform="translate(-1520.113 -1971.994)"/><path d="M1794.1,2010.586V2001.6l-2.737-2.731h-4.514l-2.737,2.731v8.982h3.249v-2.96h3.49v2.96Zm-6.739-6.095V2002.9l.9-.894h1.7l.9.894v1.589Z" transform="translate(-1559.207 -1971.995)"/><path d="M1579.8,1910.116l-3.32-3.312H1571l-3.319,3.312v7.58l3.319,3.313h5.475l3.32-3.313Zm-3.941,6.006-1.088,1.084h-2.058l-1.087-1.084v-4.431l1.087-1.084h2.058l1.088,1.084Z" transform="translate(-1394.36 -1901.869)"/><path d="M1833,1910.113l-3.32-3.311h-5.475l-3.32,3.311v7.581l3.32,3.312h5.475l3.32-3.312Zm-3.941,6.006-1.087,1.085h-2.058l-1.087-1.085v-4.431l1.087-1.085h2.058l1.087,1.085Z" transform="translate(-1587.214 -1901.868)"/><path d="M1517.549,1914.106v-3.991l-3.32-3.312h-8.794v14.2h3.881v-3.589h4.913Zm-3.941-1.574-1.088,1.085h-3.146v-3.011h3.146l1.088,1.084Z" transform="translate(-1346.948 -1901.869)"/><path d="M1758.641,1921.008v-10.893l-3.32-3.312h-9.264l-3.32,3.312v10.893h3.941v-10.417h2.071v10.417h3.881v-10.417h2.071v10.417Z" transform="translate(-1527.69 -1901.869)"/><path d="M1641.916,1906.8h-4.705l-3.4,4.926V1906.8h-3.881v14.2h3.881v-4.926l3.4,4.927h4.705l-4.9-7.1Z" transform="translate(-1441.772 -1901.869)"/><path d="M1895.255,1921.008l0-14.2h-3.881v6.96l-4.288-6.957-3.945,0v14.2h3.881v-6.957l4.288,6.957Z" transform="translate(-1634.628 -1901.868)"/><path d="M1705.979,1886.1l-1.832,2.878h2.741l1.832-2.878Z" transform="translate(-1498.298 -1886.098)"/><path d="M1699.826,1910.609V1906.8h-9.854v14.2h9.854v-3.819h-5.972v-2.016h5.972v-2.533h-5.972v-2.03Z" transform="translate(-1487.502 -1901.869)"/><rect width="1.727" height="20.352" transform="translate(128.577 18.725) rotate(-45)"/><rect width="20.352" height="1.727" transform="translate(128.577 31.894) rotate(-44.996)"/><rect width="116.599" height="8.02" transform="translate(0 0.617)"/><path d="M850.664,1898.661a12.77,12.77,0,0,0-2.2-2.3,11.555,11.555,0,0,1-3.771,2.36l-.793-.836a10.71,10.71,0,0,0,3.49-1.984,8.611,8.611,0,0,0,2.038-2.507h-3.878l.131-1.066h4.387a1.152,1.152,0,0,0,.554-.2l.688.781a1.594,1.594,0,0,0-.617.551,12.667,12.667,0,0,1-1.433,2.057,16.416,16.416,0,0,1,2.419,2.268Z" transform="translate(-843.085 -1890.693)" fill="#fff"/><path d="M902.973,1892.173a10.3,10.3,0,0,1-1.441,2.2c.231.193.452.386.77.7l-.85.79c-.155-.147-.326-.331-.712-.671a11.72,11.72,0,0,1-3.5,2.241l-.81-.863a9,9,0,0,0,3.525-2.021,11.28,11.28,0,0,0-1.561-.964l.705-.689a8.218,8.218,0,0,1,1.624.873,5.8,5.8,0,0,0,1.124-1.7h-2.606a10.641,10.641,0,0,1-2.071,1.865l-.869-.634a9.017,9.017,0,0,0,3.291-3.6l1.084.294c.059.018.195.073.187.138s-.1.092-.252.147c-.149.221-.386.579-.628.891h2.342a1.424,1.424,0,0,0,.485-.221l.667.707A1.474,1.474,0,0,0,902.973,1892.173Z" transform="translate(-882.997 -1888.843)" fill="#fff"/><path d="M950.951,1890.821c-.154.01-.177.028-.336.166a15.078,15.078,0,0,1-1.855,1.433l-.6,4.9h-1.272l.5-4.041a21.9,21.9,0,0,1-2.725,1.3l-.785-.818a18.637,18.637,0,0,0,6.382-3.9l.8.662c.037.028.155.147.146.221S951.156,1890.812,950.951,1890.821Z" transform="translate(-919.231 -1888.96)" fill="#fff"/><path d="M998.893,1890.743c-.165.1-.176.11-.179.138l-.475,3.876h-1.211l.531-4.335,1.2.092c.08.009.262.018.252.1C999.005,1890.661,998.938,1890.707,998.893,1890.743Zm4.232-.064c-.147.119-.15.147-.182.4-.02.083-.051.5-.062.588a9.756,9.756,0,0,1-.764,3.408,6,6,0,0,1-3.325,2.792l-.776-.891c2.178-.744,3.16-1.616,3.5-4.391.027-.22.163-1.5.2-2.232l1.3.064c.051,0,.253.009.24.12C1003.251,1890.569,1003.237,1890.606,1003.126,1890.679Z" transform="translate(-959.716 -1889.343)" fill="#fff"/><path d="M1047.5,1896.11a16.343,16.343,0,0,1-4.089,2.048c-.067.128-.107.284-.188.284-.061,0-.146-.055-.2-.174l-.577-1.1a11.375,11.375,0,0,0,3.971-1.589,16.135,16.135,0,0,0,3.327-2.811l.59.919A16.235,16.235,0,0,1,1047.5,1896.11Zm-2.677-2.5a8.013,8.013,0,0,0-1.945-1.157l.727-.863a8.358,8.358,0,0,1,2,1.139Z" transform="translate(-994.307 -1890.282)" fill="#fff"/><path d="M1098.655,1890.771a10.9,10.9,0,0,1-2.086,2.9,12.118,12.118,0,0,1-3.057,2.186l-1.032-.716a10.261,10.261,0,0,0,3.566-2.434,8.41,8.41,0,0,0,1.585-2.306h-2.606a15.663,15.663,0,0,1-2.2,2.021l-.928-.652a9.883,9.883,0,0,0,3.336-3.546l.967.413c.077.037.251.111.241.193-.007.055-.07.074-.25.129-.127.119-.278.358-.408.505h2.28a.977.977,0,0,0,.454-.138l.745.9A1.633,1.633,0,0,0,1098.655,1890.771Zm-.3-1.727a3.314,3.314,0,0,0-.792-.762l.575-.376a3.255,3.255,0,0,1,.782.762Zm1.456,0a3.565,3.565,0,0,0-.8-.891l.565-.377a3.452,3.452,0,0,1,.8.891Z" transform="translate(-1031.974 -1887.376)" fill="#fff"/><path d="M1141.17,1897.693l-.953.138a8.732,8.732,0,0,1-.038-2.847,16.992,16.992,0,0,1,1.148-4.3l.945.349c.03.01.233.092.222.184a.091.091,0,0,1-.048.065,2.034,2.034,0,0,1-.2.073,2.789,2.789,0,0,0-.3.624,22.758,22.758,0,0,0-.726,2.847,8.292,8.292,0,0,0-.068.965l.485-.551.593.395A8.682,8.682,0,0,0,1141.17,1897.693Zm6.078-.34a4.582,4.582,0,0,0-.98-.725c-.107.707-.369,1.185-1.753,1.185-.3,0-2.006,0-1.844-1.323.1-.827.949-1.185,1.937-1.185.2,0,.415.019.616.037.053-1.093.069-1.479.126-2.1a12.741,12.741,0,0,1-1.852.073l.106-.946a5.694,5.694,0,0,0,.909.055,9.054,9.054,0,0,0,.953-.055c.105-.689.117-.79.249-1.7l1.12.165c.211.027.236.073.229.129s-.1.092-.212.147a10.3,10.3,0,0,0-.282,1.139,5.282,5.282,0,0,0,1.309-.376l-.122.992a11.2,11.2,0,0,1-1.3.257,20.483,20.483,0,0,0-.159,2.462,7.318,7.318,0,0,1,1.645.864Zm-2.782-1.221c-.479,0-.823.156-.849.367s.246.4.846.4c.672,0,.677-.211.715-.689A3.714,3.714,0,0,0,1144.466,1896.131Z" transform="translate(-1068.674 -1889.577)" fill="#fff"/><path d="M1189.631,1893.4l.368-3h7.645l-.368,3Zm4.917,4.482.034-.275H1191.3l-.043.349h-1.252l.516-4.215h5.772l-.507,4.141Zm1.616-5.63h-5.13l-.051.415h5.13Zm.138-1.12h-5.131l-.051.414h5.131Zm-1.582,5.345h-3.278l-.051.414h3.278Zm.125-1.019h-3.277l-.047.386h3.278Zm.123-1h-3.278l-.045.368h3.278Z" transform="translate(-1106.415 -1889.374)" fill="#fff"/><path d="M1242.627,1897.208a4.694,4.694,0,0,1-2.164-1.947,4.842,4.842,0,0,1-3.019,1.883l-.611-.909a3.564,3.564,0,0,0,2.874-1.442h-1.832l.054-.441a2.063,2.063,0,0,1-1.679,1.075l-.329-.818-.3,2.48h-1.057l.961-7.844h2.737l.527.514c-.22.386-.546.881-.661,1.074a5.281,5.281,0,0,0,2.1-1.708l1.165.046c.364.018.359.064.353.11a.142.142,0,0,1-.052.092,6.551,6.551,0,0,0,2.463,1.5l-.965.818c-.367-.166-.406-.174-.674-.313l-.072.588h-1.12l-.059.487h2.077l-.287,2.342h-1.781a3.579,3.579,0,0,0,2.383,1.488Zm-6.161-7.045-.525,4.28c.553.056.925-.156.978-.588a3.186,3.186,0,0,0-.56-1.91l1.033-1.782Zm3.71,1.8h-1.161l.057-.468c-.174.092-.4.211-.67.321l-.516-.606c-.228.367-.239.376-.454.716a3.9,3.9,0,0,1,.606,1.534l.124-1.01h1.954Zm-.157,1.277h-.887l-.093.762h.887Zm.889-3.187a9.087,9.087,0,0,1-1.37,1.13h2.667A5.5,5.5,0,0,1,1240.908,1890.053Zm1.269,3.187h-1.009l-.093.762h1.009Z" transform="translate(-1140.635 -1888.403)" fill="#fff"/><path d="M1290.053,1893.338a28.083,28.083,0,0,1-2.483,4.648l-1.094-.294a15.978,15.978,0,0,0,2.376-4.188s-.714.092-.8.1a4.735,4.735,0,0,1-.617.055l.035-.863a9.62,9.62,0,0,0,1.714-.11,8.893,8.893,0,0,0,.5-1.81l1.119.257c.159.037.215.073.207.138,0,.037-.026.046-.2.156-.076.036-.079.064-.134.257-.016.046-.172.487-.275.753a6.264,6.264,0,0,0,1.573-.542l-.123,1A11.285,11.285,0,0,1,1290.053,1893.338Zm1.733,4.629c-.988,0-2.273-.055-2.12-1.3a2.386,2.386,0,0,1,.128-.542l.931.128a2.031,2.031,0,0,0-.083.349.259.259,0,0,0,.1.248,2.353,2.353,0,0,0,1.135.2,6.9,6.9,0,0,0,1.672-.184l0,.973A10.129,10.129,0,0,1,1291.786,1897.968Zm-.672-3.325.108-.882a15.416,15.416,0,0,1,1.7-.092,8.454,8.454,0,0,1,.942.037l-.107.873A13.194,13.194,0,0,0,1291.115,1894.643Zm1.922-2.223a5.2,5.2,0,0,0-.713-.744l.473-.367a5.839,5.839,0,0,1,.713.744Zm1.1-.459a4.7,4.7,0,0,0-.677-.707l.486-.4a4.767,4.767,0,0,1,.686.717Z" transform="translate(-1180.177 -1889.724)" fill="#fff"/></g></g></svg>