<svg xmlns="http://www.w3.org/2000/svg" width="26.998" height="26.998" viewBox="0 0 26.998 26.998"><g transform="translate(-217.508 -288.438)"><path d="M244.477,316.869h-9.223a4.332,4.332,0,0,0-8.494,0h-9.223c-.017.278-.029.558-.029.84s.012.562.029.84h9.223a4.332,4.332,0,0,0,8.494,0h9.223c.017-.278.029-.558.029-.84S244.494,317.147,244.477,316.869Zm-10.964,1.68a2.64,2.64,0,1,1,0-1.68,2.6,2.6,0,0,1,0,1.68Zm-2.506,4.92a5.788,5.788,0,0,1-5.3-3.48h-7.991a13.49,13.49,0,0,0,26.585,0h-7.991A5.788,5.788,0,0,1,231.007,323.469Zm11.454-2.04a12.048,12.048,0,0,1-22.908,0h5.275a7.225,7.225,0,0,0,12.357,0Z" transform="translate(0 -15.743)" fill="#fff"/><path d="M231.363,296.148a5.788,5.788,0,0,1,5.3,3.479h7.991a13.491,13.491,0,0,0-26.586,0h7.991A5.788,5.788,0,0,1,231.363,296.148Z" transform="translate(-0.356)" fill="#fc151d"/></g></svg>