<svg xmlns="http://www.w3.org/2000/svg" width="174.962" height="21.692" viewBox="0 0 174.962 21.692"><g transform="translate(-100.788 -7539.437)"><path d="M-86.212,0V-19.768h4.4V0Zm3.36-7.756v-3.78h9.884v3.78Zm0-8.232v-3.78H-72.52v3.78Zm25.62,16.3A7.7,7.7,0,0,1-61.026-.63,7.055,7.055,0,0,1-63.7-3.192a6.907,6.907,0,0,1-.98-3.64,6.763,6.763,0,0,1,.98-3.612,7.155,7.155,0,0,1,2.66-2.534,7.677,7.677,0,0,1,3.808-.938,7.77,7.77,0,0,1,3.808.924,7.012,7.012,0,0,1,2.66,2.534,6.835,6.835,0,0,1,.98,3.626,6.907,6.907,0,0,1-.98,3.64A7.083,7.083,0,0,1-53.424-.63,7.677,7.677,0,0,1-57.232.308Zm0-3.892a3.178,3.178,0,0,0,1.624-.406A2.726,2.726,0,0,0-54.53-5.138a3.68,3.68,0,0,0,.378-1.694A3.407,3.407,0,0,0-54.544-8.5a2.893,2.893,0,0,0-1.078-1.12,3.1,3.1,0,0,0-1.61-.406,3.122,3.122,0,0,0-1.6.406A2.839,2.839,0,0,0-59.92-8.484a3.489,3.489,0,0,0-.392,1.68,3.511,3.511,0,0,0,.392,1.666A2.817,2.817,0,0,0-58.828-3.99,3.122,3.122,0,0,0-57.232-3.584ZM-40.936,0V-20.328h4.284V0Zm14.028,0V-20.328h4.284V0Zm20.58.308A7.7,7.7,0,0,1-10.122-.63,7.055,7.055,0,0,1-12.8-3.192a6.907,6.907,0,0,1-.98-3.64,6.763,6.763,0,0,1,.98-3.612,7.155,7.155,0,0,1,2.66-2.534,7.677,7.677,0,0,1,3.808-.938,7.77,7.77,0,0,1,3.808.924A7.012,7.012,0,0,1,.14-10.458a6.835,6.835,0,0,1,.98,3.626,6.907,6.907,0,0,1-.98,3.64A7.083,7.083,0,0,1-2.52-.63,7.677,7.677,0,0,1-6.328.308Zm0-3.892A3.178,3.178,0,0,0-4.7-3.99,2.726,2.726,0,0,0-3.626-5.138a3.68,3.68,0,0,0,.378-1.694A3.407,3.407,0,0,0-3.64-8.5a2.893,2.893,0,0,0-1.078-1.12,3.1,3.1,0,0,0-1.61-.406,3.122,3.122,0,0,0-1.6.406A2.839,2.839,0,0,0-9.016-8.484,3.489,3.489,0,0,0-9.408-6.8a3.511,3.511,0,0,0,.392,1.666A2.817,2.817,0,0,0-7.924-3.99,3.122,3.122,0,0,0-6.328-3.584ZM13.02,0l-4.7-13.608h4.2l2.912,9.884L14.2-3.7l3.22-9.912h3.472L24.136-3.7l-1.26-.028,2.94-9.884h4.2L25.312,0h-3.5L18.648-9.408h1.064L16.492,0ZM58.772.308a8.693,8.693,0,0,1-4.3-1.036A7.485,7.485,0,0,1,51.562-3.6a8.274,8.274,0,0,1-1.05-4.186V-19.768h4.424V-7.532a4,4,0,0,0,.5,2.044,3.4,3.4,0,0,0,1.386,1.33,4.129,4.129,0,0,0,1.946.462,4,4,0,0,0,1.96-.462,3.4,3.4,0,0,0,1.33-1.316,4.011,4.011,0,0,0,.49-2.03V-19.768h4.424V-7.756A8.284,8.284,0,0,1,65.94-3.584,7.441,7.441,0,0,1,63.056-.728,8.613,8.613,0,0,1,58.772.308ZM81.76.364A8.82,8.82,0,0,1,79.394.042a9.207,9.207,0,0,1-2.156-.9,7.178,7.178,0,0,1-1.694-1.33L77.98-4.648a4.743,4.743,0,0,0,1.6,1.134,4.956,4.956,0,0,0,2.016.406,2.444,2.444,0,0,0,1.162-.224.683.683,0,0,0,.406-.616.837.837,0,0,0-.49-.77,6.016,6.016,0,0,0-1.246-.476q-.756-.21-1.6-.462a7.148,7.148,0,0,1-1.6-.7A3.5,3.5,0,0,1,77-7.6a3.914,3.914,0,0,1-.476-2.03,3.9,3.9,0,0,1,.672-2.282,4.54,4.54,0,0,1,1.9-1.526A6.913,6.913,0,0,1,81.984-14a8.379,8.379,0,0,1,3.206.6,5.751,5.751,0,0,1,2.394,1.778L85.148-9.156a3.6,3.6,0,0,0-1.442-1.064,4.3,4.3,0,0,0-1.554-.308,2.238,2.238,0,0,0-1.092.21.66.66,0,0,0-.364.6.755.755,0,0,0,.476.672A5.762,5.762,0,0,0,82.4-8.6q.756.2,1.6.476a7.345,7.345,0,0,1,1.6.756A3.747,3.747,0,0,1,86.828-6.09,4.037,4.037,0,0,1,87.3-4a3.852,3.852,0,0,1-1.5,3.178A6.327,6.327,0,0,1,81.76.364Z" transform="translate(187.5 7560.265)"/><path d="M81.76.864a9.361,9.361,0,0,1-2.5-.34,9.751,9.751,0,0,1-2.273-.945,7.711,7.711,0,0,1-1.811-1.423L74.852-2.2l3.14-3.176.355.385a4.268,4.268,0,0,0,1.43,1.015,4.482,4.482,0,0,0,1.815.364,1.941,1.941,0,0,0,.92-.162c.148-.081.148-.137.148-.178,0-.1-.018-.216-.229-.331a5.557,5.557,0,0,0-1.141-.434c-.5-.14-1.045-.3-1.606-.465a7.682,7.682,0,0,1-1.707-.749,4.014,4.014,0,0,1-1.406-1.42,4.418,4.418,0,0,1-.547-2.286,4.4,4.4,0,0,1,.762-2.568,5.053,5.053,0,0,1,2.108-1.7,7.438,7.438,0,0,1,3.091-.6,8.915,8.915,0,0,1,3.4.639,6.271,6.271,0,0,1,2.6,1.932l.272.347L85.121-8.417l-.353-.415a3.128,3.128,0,0,0-1.241-.922,3.825,3.825,0,0,0-1.374-.274,1.742,1.742,0,0,0-.842.143c-.106.061-.114.107-.114.169,0,.036,0,.119.21.23a5.3,5.3,0,0,0,1.124.406c.513.133,1.061.3,1.629.486a7.881,7.881,0,0,1,1.7.807,4.259,4.259,0,0,1,1.395,1.441A4.539,4.539,0,0,1,87.8-4,4.347,4.347,0,0,1,86.117-.435,6.836,6.836,0,0,1,81.76.864ZM76.25-2.187a7.014,7.014,0,0,0,1.238.9,8.75,8.75,0,0,0,2.039.847,8.36,8.36,0,0,0,2.232.3,5.877,5.877,0,0,0,3.735-1.081A3.348,3.348,0,0,0,86.8-4a3.575,3.575,0,0,0-.405-1.83A3.269,3.269,0,0,0,85.33-6.941a6.879,6.879,0,0,0-1.488-.7c-.546-.182-1.072-.339-1.563-.466a6.19,6.19,0,0,1-1.34-.49A1.238,1.238,0,0,1,80.2-9.716a1.162,1.162,0,0,1,.614-1.035,2.678,2.678,0,0,1,1.342-.277,4.818,4.818,0,0,1,1.734.342,3.907,3.907,0,0,1,1.269.813l1.75-1.77A5.363,5.363,0,0,0,85-12.935a7.922,7.922,0,0,0-3.017-.565,6.452,6.452,0,0,0-2.677.515,4.07,4.07,0,0,0-1.7,1.356,3.378,3.378,0,0,0-.582,2,3.448,3.448,0,0,0,.405,1.774,2.984,2.984,0,0,0,1.057,1.072,6.68,6.68,0,0,0,1.485.651c.554.166,1.088.321,1.586.459a6.536,6.536,0,0,1,1.351.518,1.341,1.341,0,0,1,.751,1.209A1.182,1.182,0,0,1,83-2.894a2.888,2.888,0,0,1-1.4.286,5.475,5.475,0,0,1-2.217-.448,5.293,5.293,0,0,1-1.389-.887ZM58.772.808a9.225,9.225,0,0,1-4.541-1.1,8.012,8.012,0,0,1-3.1-3.058,8.8,8.8,0,0,1-1.116-4.434V-20.268h5.424V-7.532a3.526,3.526,0,0,0,.436,1.793A2.879,2.879,0,0,0,57.058-4.6a3.654,3.654,0,0,0,1.714.4,3.529,3.529,0,0,0,1.719-.4,2.884,2.884,0,0,0,1.137-1.127A3.539,3.539,0,0,0,62.052-7.5V-20.268h5.424V-7.756a8.814,8.814,0,0,1-1.1,4.419A7.967,7.967,0,0,1,63.3-.292,9.145,9.145,0,0,1,58.772.808Zm-7.76-20.076V-7.784A7.818,7.818,0,0,0,52-3.846a7.026,7.026,0,0,0,2.721,2.682,8.24,8.24,0,0,0,4.055.973,8.16,8.16,0,0,0,4.04-.972,6.981,6.981,0,0,0,2.694-2.667,7.829,7.829,0,0,0,.971-3.925V-19.268H63.052V-7.5A4.521,4.521,0,0,1,62.5-5.225,3.909,3.909,0,0,1,60.973-3.72a4.514,4.514,0,0,1-2.2.524,4.643,4.643,0,0,1-2.178-.519,3.9,3.9,0,0,1-1.586-1.522,4.509,4.509,0,0,1-.572-2.3V-19.268ZM-6.328.808a8.228,8.228,0,0,1-4.036-1,7.58,7.58,0,0,1-2.86-2.741,7.432,7.432,0,0,1-1.052-3.9,7.286,7.286,0,0,1,1.054-3.874,7.681,7.681,0,0,1,2.842-2.709,8.205,8.205,0,0,1,4.052-1,8.3,8.3,0,0,1,4.049.986A7.538,7.538,0,0,1,.567-10.718,7.359,7.359,0,0,1,1.62-6.832a7.432,7.432,0,0,1-1.052,3.9A7.609,7.609,0,0,1-2.276-.193,8.205,8.205,0,0,1-6.328.808Zm0-14.224a7.219,7.219,0,0,0-3.564.875,6.693,6.693,0,0,0-2.478,2.359,6.3,6.3,0,0,0-.906,3.35,6.446,6.446,0,0,0,.908,3.382A6.593,6.593,0,0,0-9.88-1.067a7.24,7.24,0,0,0,3.552.875,7.219,7.219,0,0,0,3.564-.875A6.622,6.622,0,0,0-.288-3.45,6.446,6.446,0,0,0,.62-6.832,6.373,6.373,0,0,0-.287-10.2a6.549,6.549,0,0,0-2.474-2.356A7.312,7.312,0,0,0-6.328-13.416ZM-57.232.808a8.228,8.228,0,0,1-4.036-1,7.58,7.58,0,0,1-2.86-2.741,7.432,7.432,0,0,1-1.052-3.9,7.286,7.286,0,0,1,1.054-3.874,7.681,7.681,0,0,1,2.842-2.709,8.205,8.205,0,0,1,4.052-1,8.3,8.3,0,0,1,4.049.986,7.538,7.538,0,0,1,2.846,2.712,7.359,7.359,0,0,1,1.053,3.886,7.432,7.432,0,0,1-1.052,3.9A7.609,7.609,0,0,1-53.18-.193,8.205,8.205,0,0,1-57.232.808Zm0-14.224a7.219,7.219,0,0,0-3.564.875,6.693,6.693,0,0,0-2.478,2.359,6.3,6.3,0,0,0-.906,3.35,6.446,6.446,0,0,0,.908,3.382,6.593,6.593,0,0,0,2.488,2.383,7.24,7.24,0,0,0,3.552.875,7.219,7.219,0,0,0,3.564-.875A6.622,6.622,0,0,0-51.192-3.45a6.446,6.446,0,0,0,.908-3.382,6.373,6.373,0,0,0-.907-3.366,6.549,6.549,0,0,0-2.474-2.356A7.312,7.312,0,0,0-57.232-13.416ZM25.668.5H21.453L19.171-6.284,16.849.5H12.664L7.614-14.108H12.89l1.98,6.72,2.183-6.72h4.2l2.2,6.707,1.995-6.707h5.275Zm-3.5-1h2.784l4.358-12.608H26.189L23.995-5.732l.836,2.552L22.21-3.239l.737-2.479-2.422-7.39H17.779L15.37-5.691h0l.722,2.452L13.5-3.18l.82-2.525h0l-2.181-7.4H9.018L13.376-.5h2.758l2.513-7.341-.7-2.067h2.459L19.7-7.839Zm-44.3,1h-5.284V-20.828h5.284Zm-4.284-1h3.284V-19.828h-3.284Zm-9.744,1h-5.284V-20.828h5.284Zm-4.284-1h3.284V-19.828h-3.284Zm-40.88,1h-5.4V-20.268H-72.02v4.78h-9.3v3.452h8.848v4.78h-8.848Zm-4.4-1h3.4V-7.256h-1.036v-4.78h1.036v-3.452h-1.036v-3.78h-2.36Zm4.4-7.756h7.848v-2.78h-7.848Zm-1.036,0h.036v-2.78h-.036Zm1.036-8.232h8.3v-2.78h-8.3Zm-1.036,0h.036v-2.78h-.036Zm76.024,13.4a3.63,3.63,0,0,1-1.847-.473A3.322,3.322,0,0,1-9.458-4.9a4.021,4.021,0,0,1-.45-1.9,4,4,0,0,1,.452-1.917,3.345,3.345,0,0,1,1.281-1.329,3.63,3.63,0,0,1,1.847-.473,3.608,3.608,0,0,1,1.865.476A3.4,3.4,0,0,1-3.2-8.739a3.915,3.915,0,0,1,.454,1.907A4.191,4.191,0,0,1-3.18-4.911,3.231,3.231,0,0,1-4.453-3.557,3.685,3.685,0,0,1-6.328-3.084Zm0-6.44a2.608,2.608,0,0,0-1.345.339,2.327,2.327,0,0,0-.9.939A3.012,3.012,0,0,0-8.908-6.8a3.033,3.033,0,0,0,.334,1.432,2.306,2.306,0,0,0,.9.949,2.608,2.608,0,0,0,1.345.339,2.7,2.7,0,0,0,1.373-.339,2.216,2.216,0,0,0,.883-.942,3.2,3.2,0,0,0,.324-1.467,2.931,2.931,0,0,0-.33-1.425,2.381,2.381,0,0,0-.894-.93A2.626,2.626,0,0,0-6.328-9.524Zm-50.9,6.44a3.63,3.63,0,0,1-1.847-.473A3.322,3.322,0,0,1-60.362-4.9a4.021,4.021,0,0,1-.45-1.9,4,4,0,0,1,.452-1.917,3.345,3.345,0,0,1,1.281-1.329,3.63,3.63,0,0,1,1.847-.473,3.608,3.608,0,0,1,1.865.476,3.4,3.4,0,0,1,1.262,1.31,3.915,3.915,0,0,1,.454,1.907,4.191,4.191,0,0,1-.432,1.921,3.231,3.231,0,0,1-1.273,1.354A3.685,3.685,0,0,1-57.232-3.084Zm0-6.44a2.608,2.608,0,0,0-1.345.339,2.327,2.327,0,0,0-.9.939A3.012,3.012,0,0,0-59.812-6.8a3.033,3.033,0,0,0,.334,1.432,2.306,2.306,0,0,0,.9.949,2.608,2.608,0,0,0,1.345.339,2.7,2.7,0,0,0,1.373-.339,2.216,2.216,0,0,0,.883-.942,3.2,3.2,0,0,0,.324-1.467,2.931,2.931,0,0,0-.33-1.425,2.381,2.381,0,0,0-.894-.93A2.626,2.626,0,0,0-57.232-9.524Z" transform="translate(187.5 7560.265)" fill="rgba(0,0,0,0)"/></g></svg>