<svg xmlns="http://www.w3.org/2000/svg" width="226.697" height="31.746" viewBox="0 0 226.697 31.746"><path d="M-228.272-30.948h6.467V-5.564h15.327V0h-21.794Zm36.082,0h6.425V0h-6.425ZM-144.392,0h-6.467L-163.5-21.983V0h-6.026V-30.948h6.782l12.325,21.6v-21.6h6.026ZM-106.5-13.521h-15.033v7.958H-104.4V0h-23.453V-30.948h22.7v5.48h-16.377V-18.9H-106.5Zm58.034,1.6V-30.948H-41.9v19.022a15.934,15.934,0,0,1-1.533,7.685Q-46.286.8-54.328.8T-65.246-4.241a15.934,15.934,0,0,1-1.533-7.685V-30.948h6.572v19.022a10.742,10.742,0,0,0,.756,4.661q1.176,2.6,5.123,2.6,3.926,0,5.1-2.6A10.742,10.742,0,0,0-48.47-11.926Zm36.208.8h-6.572V0h-6.425V-30.948h13.479a10.979,10.979,0,0,1,7.433,2.394q2.771,2.394,2.771,7.412,0,5.48-2.771,7.748T-12.262-11.128Zm3.023-6.446A4.477,4.477,0,0,0-7.979-21.1a4.189,4.189,0,0,0-1.27-3.443,5.513,5.513,0,0,0-3.559-1.029h-6.026v9.112h6.026A5.267,5.267,0,0,0-9.238-17.574Z" transform="translate(228.272 30.948)"/></svg>