<svg xmlns="http://www.w3.org/2000/svg" width="198.5" height="44" viewBox="0 0 198.5 44"><g transform="translate(-88.25 -6835.8)"><path d="M22,0H176.5a22,22,0,0,1,0,44H22A22,22,0,0,1,22,0Z" transform="translate(88.25 6835.8)" fill="#cd2f23"/><path d="M-11.455-23.591H-23.979l-.465,13.268,3.224.465a3.437,3.437,0,0,1,3.348-2.666c2.17,0,3.441,1.736,3.441,4.805,0,3.286-1.395,5.208-3.627,5.208C-19.794-2.511-21-3.5-21.437-5.8L-25.219-4.65C-24.382-1.178-21.747.5-18.027.5c4.464,0,7.564-3.286,7.564-8.277,0-4.681-2.759-7.75-6.665-7.75a4.8,4.8,0,0,0-4.061,2.046c.093-.682.155-1.519.186-2.232l.186-4.774h9.362Zm17.763,0H-6.215l-.465,13.268,3.224.465A3.437,3.437,0,0,1-.109-12.524c2.17,0,3.441,1.736,3.441,4.805,0,3.286-1.395,5.208-3.627,5.208C-2.031-2.511-3.24-3.5-3.674-5.8L-7.456-4.65C-6.619-1.178-3.984.5-.264.5,4.2.5,7.3-2.79,7.3-7.781c0-4.681-2.759-7.75-6.665-7.75a4.8,4.8,0,0,0-4.061,2.046c.093-.682.155-1.519.186-2.232l.186-4.774H6.309Zm11.47-.4c-4.774,0-7.471,3.441-7.471,12.214S12.85.5,17.716.5c4.836,0,7.5-3.565,7.5-12.338C25.219-20.584,22.553-23.994,17.778-23.994Zm0,3.069c2.48,0,3.441,2.139,3.441,9.114,0,6.944-.992,9.238-3.5,9.238-2.449,0-3.41-2.263-3.41-9.238C14.306-18.817,15.361-20.925,17.778-20.925Z" transform="translate(160.945 6868.815)" fill="#fff"/><path d="M-1.26-14.8l.28-.42a2.719,2.719,0,0,1,.54-.62c.14-.12.24-.2.24-.36,0-.12-.08-.24-.32-.3-.56-.14-1.2-.28-1.96-.42a5.612,5.612,0,0,1-.62,1.26,15.669,15.669,0,0,1-5.56,4.72,4.154,4.154,0,0,1,.98,1.06c.2.34.28.48.4.48.1,0,.22-.08.44-.22a20.991,20.991,0,0,0,2.98-2.22A16.193,16.193,0,0,0-1.54-9.48,25.561,25.561,0,0,1-9.28-6.64,4.278,4.278,0,0,1-8.56-5.3c.22.62.24.6.86.44.8-.22,1.56-.48,2.26-.72.02.3.04.88.04,2.02v1.54c0,2.74-.04,3.26-.04,3.38,0,.2.02.22.22.22h1.66c.2,0,.22-.02.22-.22V.6H3.58v.66c0,.2.02.22.22.22H5.46c.2,0,.22-.02.22-.22,0-.1-.04-.6-.04-3.34V-3.86c0-1.06.02-1.62.04-1.84.66.22,1.36.44,2.1.62.62.16.62.14.8-.5a4.453,4.453,0,0,1,.68-1.46A24.606,24.606,0,0,1,1.82-9.5a26.478,26.478,0,0,0,3.06-3.1,2.282,2.282,0,0,1,.62-.56c.18-.12.3-.2.3-.42,0-.18-.14-.4-.6-.86-.44-.42-.58-.5-.76-.5a.706.706,0,0,0-.28.06,1.08,1.08,0,0,1-.5.08ZM-3.34-4.2H3.58v3H-3.34ZM-4.3-5.98A21.955,21.955,0,0,0,.14-8.24,22.7,22.7,0,0,0,4.78-6c-.42.02-1.04.02-1.98.02Zm6.86-7.1A16.026,16.026,0,0,1,.1-10.6a14.176,14.176,0,0,1-2.54-2.48Z" transform="translate(123 6867)" fill="#fff"/><path d="M8-11.3c0-2.56.04-3.9.04-4.02,0-.22-.02-.24-.22-.24-.12,0-.8.04-2.7.04H-5.02c-1.9,0-2.58-.04-2.72-.04-.2,0-.22.02-.22.24,0,.12.04,1.38.04,3.94v8.56c0,2.56-.04,3.78-.04,3.92,0,.2.02.22.22.22H-6c.22,0,.24-.02.24-.22,0-.12-.04-1.24-.04-3.42V-6.58H5.88v5c0,.5-.18.68-.78.68C4.62-.9,3.68-.92,2.84-1A5.787,5.787,0,0,1,3.36.54c.12.62.14.64.78.64,2.12,0,2.78-.14,3.26-.52A1.889,1.889,0,0,0,8.04-1C8.04-1.68,8-2.72,8-4.46ZM5.88-13.56v5.04H.98v-5.04ZM-5.8-8.52v-5.04h4.7v5.04Z" transform="translate(201 6867)" fill="#fff"/><path d="M-19.134-15.642c-3.456,2.52-4.878,5.256-4.878,8.8s1.422,6.282,4.878,8.8l.468-.558a9.936,9.936,0,0,1-4.05-8.244,9.936,9.936,0,0,1,4.05-8.244ZM-7.74-11.574c-1.566,0-2.124-.036-2.214-.036-.2,0-.216.018-.216.216,0,.108.036.522.036,1.548v2.178c0,1.008-.036,1.44-.036,1.566,0,.18.018.2.216.2.072,0,.468-.018,1.476-.036-.054,3.456-1.1,5.022-3.474,6.048A4.776,4.776,0,0,1-11,1.062c.2.27.27.378.378.378a1.309,1.309,0,0,0,.45-.2C-7.938-.072-6.876-2.016-6.786-5.94h1.1V-.522c0,.864.2,1.206.522,1.44a3.548,3.548,0,0,0,1.8.288,3.582,3.582,0,0,0,2-.432c.36-.288.612-.918.684-2.412.036-.468.036-.468-.432-.612a3.807,3.807,0,0,1-1.1-.522C-2.232-1.332-2.286-.9-2.43-.72c-.126.144-.306.216-.738.216A1.1,1.1,0,0,1-3.78-.63c-.144-.108-.18-.27-.18-.594V-5.94C-2.538-5.94-2-5.9-1.89-5.9c.18,0,.2-.018.2-.2,0-.108-.036-.558-.036-1.566V-9.846c0-1.026.036-1.44.036-1.548,0-.2-.018-.216-.2-.216-.108,0-.612.036-1.89.036.4-.774.648-1.386.9-1.908a1.272,1.272,0,0,1,.324-.558.4.4,0,0,0,.162-.306c0-.108-.09-.2-.234-.252a13.444,13.444,0,0,0-1.782-.45,6.333,6.333,0,0,1-.2,1.116,21.818,21.818,0,0,1-.918,2.358Zm4.266,4H-8.406V-9.954h4.932Zm-10.944-4.608V-10.1h-.63c-1.314,0-1.728-.036-1.854-.036-.162,0-.18.018-.18.2v1.242c0,.2.018.216.18.216.126,0,.54-.036,1.854-.036h.432A13.216,13.216,0,0,1-17.406-3.6a4.972,4.972,0,0,1,.72,1.278c.072.2.144.288.216.288.09,0,.18-.09.306-.27a14.081,14.081,0,0,0,1.836-3.6c-.036,3.87-.144,6.822-.144,7.128,0,.162.018.18.216.18h1.422c.18,0,.2-.018.2-.18,0-.324-.108-3.456-.108-7.9a10.164,10.164,0,0,0,1.206,2.286c.126.18.216.288.288.288s.144-.09.2-.288a5.96,5.96,0,0,1,.63-1.314,8.83,8.83,0,0,1-2-2.808c.99.018,1.35.036,1.458.036.18,0,.2-.018.2-.216V-9.936c0-.18-.018-.2-.2-.2-.108,0-.522.036-1.728.036v-2.61c.4-.126.774-.252,1.134-.4a1.955,1.955,0,0,1,.594-.18c.18,0,.306-.09.306-.234a.4.4,0,0,0-.144-.306,12.219,12.219,0,0,0-1.08-1.08,3.75,3.75,0,0,1-.756.414,17.531,17.531,0,0,1-4.3,1.17,3.518,3.518,0,0,1,.594.972c.234.54.234.54.792.432ZM-9.4-14.454c-.234.108-.252.144-.162.306A10.861,10.861,0,0,1-8.37-11.772c.072.2.108.2.324.09l1.1-.5c.234-.108.252-.144.2-.324a11.648,11.648,0,0,0-1.278-2.34c-.108-.162-.126-.162-.36-.054Zm18.108.342c-1.116,0-1.44-.036-1.548-.036-.2,0-.216.018-.216.2v1.4c0,.2.018.216.216.216.108,0,.432-.036,1.548-.036h1.566c-.414,4.1-2.034,6.912-4.914,8.928A4.313,4.313,0,0,1,6.48-2.376c.2.234.288.342.378.342s.2-.09.4-.252a12.576,12.576,0,0,0,4.1-6.7,12.794,12.794,0,0,0,4.374,6.84c.18.162.306.234.4.234.108,0,.18-.126.324-.4a6.6,6.6,0,0,1,.954-1.4,11.356,11.356,0,0,1-5.058-7.6,13.311,13.311,0,0,1-.216-2.646.175.175,0,0,0-.18-.2c-.234,0-.81.036-1.638.036Zm-3.654,7.7c0-1.1.036-1.6.036-1.71,0-.18-.018-.2-.2-.2-.108,0-.4.036-1.35.036H2.394c-.972,0-1.224-.036-1.314-.036-.2,0-.216.018-.216.2v1.386c0,.2.018.216.216.216.09,0,.342-.036,1.314-.036h.882v3.978A11.565,11.565,0,0,1,1.764-1.422,8.157,8.157,0,0,1,.7-.864,15.726,15.726,0,0,0,1.44.828c.072.144.18.234.252.234.108,0,.18-.054.27-.18a1.669,1.669,0,0,1,.36-.36A20.336,20.336,0,0,0,4.176-1.062,3.481,3.481,0,0,0,5.94.54a12.285,12.285,0,0,0,4.212.522c1.872,0,4.014-.054,6.3-.18.576-.036.576-.036.666-.612a3.333,3.333,0,0,1,.486-1.4c-2.682.27-5.418.4-7.74.4a10.285,10.285,0,0,1-3.33-.36A2.731,2.731,0,0,1,5.058-2.592ZM4.986-11.43c.2-.144.2-.18.09-.342a13.676,13.676,0,0,0-2.25-2.682c-.144-.126-.18-.108-.378.018L1.44-13.77c-.2.126-.234.18-.09.306a13.63,13.63,0,0,1,2.214,2.808c.054.09.09.126.144.126s.108-.036.234-.126Zm13.68-3.654a9.936,9.936,0,0,1,4.05,8.244A9.936,9.936,0,0,1,18.666,1.4l.468.558c3.456-2.52,4.878-5.256,4.878-8.8s-1.422-6.282-4.878-8.8Z" transform="translate(240 6867)" fill="#fff"/></g></svg>