<svg xmlns="http://www.w3.org/2000/svg" width="198.496" height="15.376" viewBox="0 0 198.496 15.376"><path d="M77.492,11.28a16.713,16.713,0,0,1,1.7,2.4,8.243,8.243,0,0,1,1.7-1.344,13.7,13.7,0,0,0-1.536-2.1h3.1v2.032c0,.576-.032.736-.56.736a7.363,7.363,0,0,1-1.12-.112,5.607,5.607,0,0,1,.656,2.368c2.768.128,3.216-.624,3.216-1.776V10.24h1.328V8.192H84.644V7.376c.256-.112.32-.144.32-.288a.213.213,0,0,0-.048-.128H86.18V5.024H82.82V4.048h2.864V2.176H82.82V1.088c.144-.064.336-.16.336-.3,0-.192-.24-.208-.336-.208L80.532.5v1.68h-2.48V4.048h2.48v.976H77.62V3.264H76.26V1.152c.1-.064.272-.16.272-.32,0-.128-.144-.176-.272-.176L73.972.56v2.7h-.5c.016-.16.048-.432.048-.672.24-.144.352-.208.352-.352,0-.1-.1-.144-.176-.16l-1.9-.288A17.485,17.485,0,0,1,71.124,6.8a5.259,5.259,0,0,1,2.032.288,14.063,14.063,0,0,0,.32-1.76h.5v2.9a17.8,17.8,0,0,1-2.624.832l.56,2.352c.032.128.1.32.256.32.24,0,.256-.384.272-.544.56-.224,1.056-.432,1.536-.624v4.656H76.26V9.648c.352-.144,1.12-.464,1.376-.592-.032-.384-.064-.72-.064-1.072a6.2,6.2,0,0,1,.08-1.024h4.8V8.192h-4.56V10.24h1.056Zm.048-4.608c-.56.3-1.008.528-1.28.656v-2h1.28ZM92.052,7.5c0-.1,0-.192.048-1.024h3.616V1.04H88.468V6.48h1.408c-.048,2.208-.1,4.864-2.448,7.424a8.274,8.274,0,0,1,1.936,1.312,11.093,11.093,0,0,0,2.464-5.648h1.488a17.1,17.1,0,0,1-.16,2.848c-.064.3-.112.528-.64.528A7.893,7.893,0,0,1,91.4,12.8a9.887,9.887,0,0,1,.72,2.384c.16,0,2.08.08,2.832-.976.48-.672.544-1.616.656-6.7Zm1.264-4.416v1.5H91.06v-1.5Zm3.136-1.216v9.776H98.8V2.576c.176-.112.336-.24.336-.336,0-.208-.208-.224-.336-.224ZM99.924.64v11.3c0,.608,0,.9-.7.9a4.373,4.373,0,0,1-1.28-.208,6.7,6.7,0,0,1,.944,2.56c2.976.144,3.3-.864,3.3-2V1.424c.288-.192.416-.3.416-.416,0-.208-.256-.224-.416-.24Zm14.064,5.712a3.113,3.113,0,0,0-1.12,2.224c0,.128.064,1.28.08,1.392-.288-.016-.608-.048-1.056-.048-3.232,0-3.3,2.224-3.3,2.528,0,1.5,1.264,2.64,3.808,2.64,1.84,0,2.9-.448,3.2-1.952a14.276,14.276,0,0,1,1.84,1.344,15.955,15.955,0,0,1,1.472-1.92,17.1,17.1,0,0,0-3.392-1.952,11.355,11.355,0,0,1-.16-1.568,2.375,2.375,0,0,1,.576-1.568Zm-.7,5.792c-.048.4-.112.928-1.2.928-.672,0-1.136-.208-1.136-.592,0-.432.576-.656,1.024-.656A3.109,3.109,0,0,1,113.284,12.144Zm-7.392-6.592c.5,0,2.032-.048,2.4-.08a28.689,28.689,0,0,1-3.232,6.32,12.737,12.737,0,0,1,2.4.96,21.308,21.308,0,0,0,1.872-3.52c.864-1.968,1.408-3.44,1.632-4.1a21.173,21.173,0,0,0,2.56-.56,16.9,16.9,0,0,1-.048-2.384,13.7,13.7,0,0,1-1.728.528c.064-.208.272-.944.32-1.056.08,0,.336,0,.336-.192,0-.128-.08-.192-.3-.256L109.588.432A24.711,24.711,0,0,1,109,3.152c-.688.048-1.168.08-1.632.08a11.45,11.45,0,0,1-1.776-.128Zm7.92-.176a11.468,11.468,0,0,1,4.016,2.064,20.6,20.6,0,0,1,1.456-2.064,11.826,11.826,0,0,0-4.208-2.08Zm7.248-2.8v2.3h9.28a12.3,12.3,0,0,1-2.576,4.864,13.914,13.914,0,0,1-5.056,3.2,7,7,0,0,1,1.824,2.112,18.231,18.231,0,0,0,4.352-2.816c1.792-1.568,2.752-3.392,4-6.608A9.115,9.115,0,0,1,133.908,3.5l-1.632-1.152a.959.959,0,0,1-.768.224ZM134.068-.016a1.5,1.5,0,1,0,1.5,1.5A1.492,1.492,0,0,0,134.068-.016Zm0,.8a.7.7,0,0,1,.7.7.71.71,0,0,1-.7.7.7.7,0,0,1,0-1.408ZM146.676,13.1v.816h2.656V2.512H137.044V13.92h2.688V13.1Zm-6.944-2.368V4.9h6.944v5.84Zm20.16-6.992h4.88V1.472H153.956V3.744h3.28V6.192h-4.8V8.5h4.8v2.8a2.583,2.583,0,0,0,2.016,2.944c.576.128.624.128,6.192.128a16.285,16.285,0,0,1,.032-2.352c-.368.016-2.976.064-3.168.064-2.416,0-2.416-.064-2.416-1.232V8.5h6.368v-2.3h-6.368ZM173.748.784a18.931,18.931,0,0,1,.128,2.88h-5.088V6.08h4.848c-.56,3.04-1.712,4.976-5.408,6.944a6.448,6.448,0,0,1,1.856,1.92,11.2,11.2,0,0,0,6.144-8.864h2.656c-.128,6.192-.864,6.192-2.256,6.192a4.007,4.007,0,0,1-1.136-.144,9.2,9.2,0,0,1,.656,2.656c3.312.192,4.16-1.344,4.576-2.32.384-.9.688-2,.832-8.8h-5.088c.048-1.088.048-1.744.032-2.24.128-.048.32-.1.32-.288,0-.144-.112-.16-.32-.176Zm10.5,5.792V9.3h13.9V6.576Zm21.584-.192V1.44c.112-.032.288-.08.288-.272s-.208-.208-.288-.208l-2.736-.1V15.008h2.736V7.424a19.421,19.421,0,0,1,4.928,3.68,24.821,24.821,0,0,1,1.568-2.32,26.178,26.178,0,0,0-5.536-3.76Zm5.008-4.512a18.2,18.2,0,0,1,1.664,1.68c.16-.128.992-.832,1.2-.992A9.963,9.963,0,0,0,212.068.944Zm-1.728,1.344a10.817,10.817,0,0,1,1.568,1.7c.352-.3.944-.784,1.312-1.088a15.717,15.717,0,0,0-1.632-1.632Zm16.768,8.416H219.22a8.841,8.841,0,0,1,1.632-1.232c.16-.112,3.392-2.176,4.208-3.312a3.788,3.788,0,0,0,.7-2.192c0-1.84-1.328-3.856-4.992-3.856a5.429,5.429,0,0,0-4.432,1.792,4.816,4.816,0,0,0-.992,3.184h2.96c.064-1.04.288-2.576,2.448-2.576.832,0,2.112.3,2.112,1.5,0,.672,0,1.04-2.576,2.8-3.392,2.3-4.96,3.456-5.168,6.256h10.752ZM234.5,5.36a9.875,9.875,0,0,1-1.088,1.632,6.648,6.648,0,0,1,1.776,1.488c.176-.24.336-.48.608-.912a11.727,11.727,0,0,0,1.2,3.056,9.04,9.04,0,0,1-4.032,2.9,9.429,9.429,0,0,1,1.136.88c.576.592.656.656.864.864a14.829,14.829,0,0,0,3.408-2.672,11.233,11.233,0,0,0,3.28,2.752,7.662,7.662,0,0,1,1.44-2.128,9.958,9.958,0,0,1-3.264-2.544A15.775,15.775,0,0,0,241.572,5.1h1.072V2.88H237.78c.112-.352.176-.64.368-1.472.272-.08.5-.144.5-.32,0-.128-.144-.16-.272-.176l-2.5-.432a12.623,12.623,0,0,1-1.328,4.768V3.3h-1.92V1.216c.24-.1.416-.176.416-.336,0-.1-.064-.144-.288-.16L230.34.576V3.3h-2.3V5.36h1.9a16.924,16.924,0,0,1-2.448,5.9,7.021,7.021,0,0,1,1.952,1.248,19.33,19.33,0,0,0,.9-2.048v4.72h2.288V9.712a6.754,6.754,0,0,0,.7,1.184,7.1,7.1,0,0,1,1.52-1.792,11.467,11.467,0,0,1-2.224-3.376V5.36Zm4.672-.256A13.338,13.338,0,0,1,238.4,8.16a11.76,11.76,0,0,1-.752-3.056Zm9.552-1.248c-.432,3.168-1.28,6.56-6.192,9.712A6.894,6.894,0,0,1,244.5,15.36a14.485,14.485,0,0,0,6.048-8.08,15.127,15.127,0,0,0,5.792,8.064,6.363,6.363,0,0,1,2.1-1.744,11.723,11.723,0,0,1-5.872-10.272c0-.368.1-2.208.112-2.624h-6.112V3.056h3.5c.016.368.016.512.032,1.056ZM259.4.72c-.032.192-.032.272-.112.624a16.217,16.217,0,0,0-.528,3.952,16.1,16.1,0,0,0,1.136,5.936l2.288-.272a12.414,12.414,0,0,1,1.648-4.048,11.554,11.554,0,0,1-1.6-1.328,3.666,3.666,0,0,0-.5.912c-.192.464-.24.592-.368.848a6.073,6.073,0,0,1-.144-1.424,12.224,12.224,0,0,1,.7-4.08c.112-.016.384-.064.384-.272,0-.176-.16-.224-.448-.288Zm6.928-.112a22.493,22.493,0,0,1,.608,5.856c0,2.352-.368,5.12-4.208,6.976a5.9,5.9,0,0,1,2.08,1.872,9.273,9.273,0,0,0,4.816-8.8c0-.624-.032-1.3-.08-1.872-.032-.5-.24-2.928-.256-3.488.112-.032.256-.064.256-.24,0-.208-.208-.224-.368-.224Z" transform="translate(-71.124 0.016)"/></svg>