<svg xmlns="http://www.w3.org/2000/svg" width="327" height="37.522" viewBox="0 0 327 37.522"><g transform="translate(-825.09 -567.489)"><path d="M840.477,573.925a15.708,15.708,0,0,0-1.078-3.3,48.027,48.027,0,0,1,6.816-.59c1.281.04,1.607.354,1.447,1.023a5.968,5.968,0,0,0-.248,1.22,9.77,9.77,0,0,0,.111,1.77,28.106,28.106,0,0,0,.505,2.911,86.9,86.9,0,0,0,10.2-2.439c.483-.158.617-.158.761.354a27.413,27.413,0,0,1,.506,4.21.844.844,0,0,1-.741.865c-2.465.629-5.714,1.377-9.434,2.046a29.479,29.479,0,0,0,4.678,7.79c.325.314.7.629,1.09,1.023.211.236.361.354.295.629a3.31,3.31,0,0,1-.753,1.1,22.87,22.87,0,0,1-2.751,2.754,2.2,2.2,0,0,1-1.425.748,1.446,1.446,0,0,1-1.044-.472,12.781,12.781,0,0,0-1.526-1.062,18.055,18.055,0,0,0-8.783-2.164c-4.005,0-6.735,1.18-7.243,3.3-.64,2.675,2.532,3.737,9.964,3.737a57.8,57.8,0,0,0,7.313-.433,52.778,52.778,0,0,1-2.561,5.311c-.291.472-.462.63-1.238.709a47.981,47.981,0,0,1-5.209.2c-11.081,0-16.265-3.069-14.787-9.245,1.148-4.8,6.611-8.1,14.622-8.1a15.211,15.211,0,0,1,5.88.9,20.539,20.539,0,0,1-3.149-5.626c-2.656.315-5.3.59-8.51.787-1.665.079-3.331.157-4.844.157-.534,0-.69-.275-.718-.9a36.919,36.919,0,0,1-.018-4.76c2.276.157,4.066.118,5.855.078,1.71-.078,3.642-.157,6.931-.511C841.083,576.6,840.8,575.381,840.477,573.925Z" transform="translate(0 -1.686)"/><path d="M946.93,570.2c.8.2.99.512.905.865a1.543,1.543,0,0,1-.49.747,3.393,3.393,0,0,0-.816,1.18c-.247.472-.467,1.023-.77,1.731a105.966,105.966,0,0,0,11.7-1.653c.607-.118.855-.039.8.393-.06,1.18-.259,2.754-.386,3.659-.135.747-.439.9-1.367,1.062-5.058.866-8.944,1.3-13.024,1.613a28.254,28.254,0,0,0-1.018,2.95,44.7,44.7,0,0,1,6.228-.55A11.45,11.45,0,0,0,950,579.487a24.931,24.931,0,0,1,4.75,1.534c.513.275.794.59.719.905a.92.92,0,0,1-.291.472,6.683,6.683,0,0,0-.748.708c5,1.416,7.731,5.075,6.545,10.032-1.374,5.744-7.314,10.111-16.059,11.881a4.43,4.43,0,0,1-.874.118c-.712,0-.984-.354-1.339-1.1a10.486,10.486,0,0,0-2.467-3.266,34.055,34.055,0,0,0,8.407-2.4c2.821-1.377,5.015-3.108,5.768-6.255.583-2.439-.89-4.092-3.035-4.8a57.151,57.151,0,0,1-10.569,9.953,11.071,11.071,0,0,0,.364,1.456.828.828,0,0,1,.03.433,1.173,1.173,0,0,1-.694.669,32.221,32.221,0,0,1-4.208,1.967,2.215,2.215,0,0,1-.616.157.463.463,0,0,1-.414-.315,6.665,6.665,0,0,1-.348-1.338c-3.189,1.613-5.755,2.479-8.2,2.479-3.515,0-5.3-2.006-4.448-5.587,1.28-5.35,7.227-10.307,13.758-12.865.365-1.338.757-2.793,1.166-4.131-1.977.079-3.258.039-4.1.039-1.157,0-2.047,0-2.919-.078-.525-.039-.789-.236-.683-.865.205-1.416.5-2.833.74-4.21a64.491,64.491,0,0,0,8.764.2c.463-1.377,1.011-3.108,1.31-4.17a9.53,9.53,0,0,0,.318-1.888A36.529,36.529,0,0,1,946.93,570.2Zm-18.171,25.729a.948.948,0,0,0,.98,1.3c.979,0,2.338-.472,4.464-1.731a31.408,31.408,0,0,1,.574-5.744C931.33,591.88,929.192,594.122,928.759,595.931Zm16.986-9.245a19.654,19.654,0,0,0-4.655.669,26.694,26.694,0,0,0-.7,4.6A42.008,42.008,0,0,0,945.745,586.686Z" transform="translate(-64.439 -1.15)"/><path d="M1046.511,643.805a1.455,1.455,0,0,1,.886-.354.929.929,0,0,1,.567.236,22.875,22.875,0,0,1,7.346,7.239c.262.393.269.551.232.708-.066.276-.237.433-.767.787l-4.013,2.636a1.994,1.994,0,0,1-.9.433c-.267,0-.417-.118-.6-.472a22.851,22.851,0,0,0-6.772-7.593c-.22-.2-.36-.354-.332-.472.037-.158.155-.276.542-.59Z" transform="translate(-144.243 -50.479)"/><path d="M1095.813,589.877c7.6-2.031,13.42-3.385,18.284-3.385,8.962,0,12.585,5.375,11.089,11.627-1.381,5.773-5.311,9.4-11.379,11.985a47.95,47.95,0,0,1-13.2,3.384c-1.209.16-1.657-.04-1.9-.916a9.648,9.648,0,0,0-2.719-4.26A54.306,54.306,0,0,0,1110,605.485c3.765-1.433,6.759-3.783,7.616-7.366.905-3.783-.623-6.052-5.622-6.052-4.1,0-9.974,1.593-16.455,4.022a38.273,38.273,0,0,0-3.923,1.712,3.227,3.227,0,0,1-1.619.557,1.625,1.625,0,0,1-1.319-1.075,29.834,29.834,0,0,1-2.092-5.375A51.892,51.892,0,0,0,1095.813,589.877Z" transform="translate(-173.774 -12.628)"/><path d="M1220.514,573.387a6.94,6.94,0,0,0-.889-2.372,56.535,56.535,0,0,1,7.033-.63c.662,0,1.041.259.935.7a6.462,6.462,0,0,0-.257.889,4.491,4.491,0,0,0-.028,1.038,6.763,6.763,0,0,0,.192,1.779,71.821,71.821,0,0,0,8.322-1.594c.424-.111.679-.074.75.185a17.155,17.155,0,0,1,.234,3.261c.035.408-.239.63-.751.741-2.806.667-4.827,1-8.083,1.519.158.815.386,1.7.571,2.409a89.309,89.309,0,0,0,9-1.853c.52-.148.723-.075.75.185a26.52,26.52,0,0,1,.287,3.224c.026.445-.107.63-.671.778a80.4,80.4,0,0,1-7.96,1.741,16.811,16.811,0,0,0,4.4,5.929c.282.3.414.482.352.741a1.635,1.635,0,0,1-.354.556,25.19,25.19,0,0,1-3.347,3.112,1.558,1.558,0,0,1-.9.445,1,1,0,0,1-.635-.3,12.461,12.461,0,0,0-2.487-1.408,21.566,21.566,0,0,0-8.151-1.334c-3.794,0-6.115.852-6.461,2.3-.434,1.816,2.211,2.742,9.534,2.742,2.426,0,4.456-.185,5.479-.222.45-.037.538.148.405.519a35.518,35.518,0,0,1-2.307,4.484c-.23.408-.53.556-1.333.593-.935.037-1.87.074-3.106.074-11.911,0-16.2-3.112-15.131-7.559,1.179-4.928,7.005-6.966,13.313-6.966a20.992,20.992,0,0,1,6.475.778,29.946,29.946,0,0,1-2.052-3.409c-4.412.556-8.868.927-12.953,1.038-.582.036-.714-.149-.749-.556a21,21,0,0,1-.11-3.965,103.766,103.766,0,0,0,12.485-.741c-.211-.593-.483-1.668-.7-2.409a100.061,100.061,0,0,1-11.444.815c-.618,0-.812-.111-.829-.593-.025-.815-.015-2.335.075-3.817a89.224,89.224,0,0,0,11.541-.482C1220.785,575.017,1220.689,574.313,1220.514,573.387Zm19.1-2.779a.8.8,0,0,1,.336-.111.694.694,0,0,1,.4.185,15.593,15.593,0,0,1,3.322,4.187.367.367,0,0,1,.062.3c-.035.149-.15.26-.353.371l-2.437,1.334a.721.721,0,0,1-.388.149.383.383,0,0,1-.379-.26,16.741,16.741,0,0,0-3.577-4.6Zm4.767-2.594a.807.807,0,0,1,.336-.111.724.724,0,0,1,.476.222,15.165,15.165,0,0,1,3.286,3.965.4.4,0,0,1,.088.37c-.027.111-.1.222-.354.371l-2.4,1.371a.965.965,0,0,1-.38.111.428.428,0,0,1-.388-.222,16.065,16.065,0,0,0-3.533-4.595Z" transform="translate(-252.963 -0.274)"/><path d="M1345.657,594.959c1.022-4.271-1.12-8.661-6.486-9.017-2.4,7.079-6.338,14.079-10.479,18.232-2.916,2.927-5.416,4.113-8.917,4.113-3.812,0-8.175-3.441-6.415-10.8a20.628,20.628,0,0,1,7.759-11.311,26.8,26.8,0,0,1,16.509-5.457c12.056,0,16.76,6.644,14.82,14.751-2.082,8.7-8.745,13.209-18.06,15.464a4.736,4.736,0,0,1-.959.119,1.194,1.194,0,0,1-1.264-.831,9.116,9.116,0,0,0-2.849-3.836C1338.672,604.886,1344.134,601.327,1345.657,594.959Zm-21.422-4.943a14.831,14.831,0,0,0-4.632,7.316c-.71,2.966.5,4.588,1.828,4.588.886,0,1.627-.317,3.025-1.9,2.48-2.768,5.59-7.989,7.9-13.921A17.637,17.637,0,0,0,1324.235,590.016Z" transform="translate(-324.202 -8.794)"/><path d="M1439.534,603.446c-.12.5-.173.541-.742.541H1433.5c-.569,0-.6-.039-.483-.541.065-.271.707-2.591,3.2-13.03l1.729-7.23c1.739-7.269,2.225-9.666,2.29-9.937.12-.5.173-.542.742-.542.306,0,1.818.078,6.016.078h3.149a35.759,35.759,0,0,0,2.317-3.286,12.667,12.667,0,0,0,1.049-2.01c1.931.154,4.481.464,6.077.734.463.077.661.348.6.58a1.144,1.144,0,0,1-.585.619,3.118,3.118,0,0,0-.913.889c-.588.812-1.1,1.508-1.9,2.474h8.309c4.2,0,5.746-.078,6.053-.078.569,0,.6.039.482.542-.055.232-.716,2.629-2.178,8.738l-2.007,8.39c-2.5,10.439-2.956,12.72-3.021,12.991-.111.464-.164.5-.732.5h-5.335c-.569,0-.6-.039-.492-.5l.324-1.353h-18.323Zm1.526-6.38h18.323l.814-3.4h-18.322Zm1.943-8.119h18.323l.786-3.286h-18.322Zm20.237-8,.768-3.209h-18.323l-.768,3.209Z" transform="translate(-403.947)"/><path d="M1553.381,585.953c-1.324.966-2.674,1.855-4.005,2.668a3.593,3.593,0,0,1-1.426.657c-.35,0-.529-.348-.834-1.083a9.085,9.085,0,0,0-2.422-3.4,44.4,44.4,0,0,0,14.861-12.218,16.8,16.8,0,0,0,1.716-2.784,43.434,43.434,0,0,1,5.381,1.817c.469.232.633.464.558.774a1.031,1.031,0,0,1-.6.7,5.267,5.267,0,0,0-1.541,1.508,58.9,58.9,0,0,1-9,9.279c.909.039,2.265.039,4.189.039h15.786a31.062,31.062,0,0,1-5.568-11.638c-.1-.5,0-.541.622-.773l4.936-1.624c.668-.232.746-.193.844.309a21.683,21.683,0,0,0,10.254,13.8A29.266,29.266,0,0,0,1582.8,588c-.657.735-1,1.083-1.352,1.083-.306,0-.6-.232-1.111-.657a22.027,22.027,0,0,1-1.823-1.7c-.12.5-.284,1.005-.4,1.469a85.33,85.33,0,0,1-3.925,11.831c-1.541,3.518-3.8,5.1-8.61,5.1-.831,0-1.75,0-2.658-.039-1.731-.077-1.766-.116-1.727-1.74a8.613,8.613,0,0,0-.725-4.1,37.478,37.478,0,0,0,5.12.348,2.7,2.7,0,0,0,2.964-1.972,58.244,58.244,0,0,0,2.86-8.661h-6.472c-2.722,7.539-8.655,13.146-17.4,16.239a5.979,5.979,0,0,1-1.448.387c-.437,0-.573-.348-.885-1.237a7.439,7.439,0,0,0-2.128-3.17c8.5-2.436,12.863-5.876,15.342-12.218-3.585,0-4.916.078-5.178.078-.568,0-.6-.039-.492-.5Z" transform="translate(-477.131 -1.491)"/><path d="M1680.22,600.532c1.491-.956,5.108-3.267,9.91-6.574a8.629,8.629,0,0,1,5.071-1.793,5.54,5.54,0,0,1,3.854,1.594c3.111,2.63,5.168,4.582,8.4,7.092a88.6,88.6,0,0,0,9.234,5.858c.474.278.7.478.348,1a37.211,37.211,0,0,1-3.95,5.02c-.366.4-.629.558-.945.558a1.4,1.4,0,0,1-.709-.239,86.984,86.984,0,0,1-8.766-6.495c-2.844-2.431-5.381-4.821-7.5-6.893a2.186,2.186,0,0,0-1.513-.837,3.106,3.106,0,0,0-1.568.717c-3.067,2.271-6.125,4.5-8.764,6.495a22.452,22.452,0,0,0-2.305,1.912,1.612,1.612,0,0,1-1.134.6,1.271,1.271,0,0,1-.968-.478,28.271,28.271,0,0,1-3.422-5.1A29.474,29.474,0,0,0,1680.22,600.532Z" transform="translate(-565.116 -16.398)"/></g></svg>