<svg xmlns="http://www.w3.org/2000/svg" width="38.734" height="38.734" viewBox="0 0 38.734 38.734"><g transform="translate(-36 -2668.368)"><circle cx="19.367" cy="19.367" r="19.367" transform="translate(36 2668.368)" fill="#fff"/><path d="M11.134,1.8A2.663,2.663,0,0,0,8.26,4.575,32.91,32.91,0,0,0,9.614,11.28a40.612,40.612,0,0,1,1.09,8.291,20.328,20.328,0,0,1-.132,2.18c0,.165.132.363.3.363.5,0,.892-.33.892-.595a20.892,20.892,0,0,1-.132-2.18,41.748,41.748,0,0,1,1.09-8.291,34.171,34.171,0,0,0,1.255-6.474A2.636,2.636,0,0,0,11.134,1.8ZM11.1,24.758a2.692,2.692,0,1,0,2.676,2.676A2.714,2.714,0,0,0,11.1,24.758Z" transform="translate(44.249 2671.292)"/></g></svg>