<svg xmlns="http://www.w3.org/2000/svg" width="154.208" height="15.568" viewBox="0 0 154.208 15.568"><path d="M99.34,13.088v.672h2.752V2.7H89.948v2.48H99.34v5.424H89.948v2.48Zm7.808-11.84V3.536h9.28V1.248Zm-2.032,3.728V7.312h9.6a10.159,10.159,0,0,1-6.7,5.936,10.949,10.949,0,0,1,1.744,2.064,12.794,12.794,0,0,0,6.96-6.144c.256-.448,1.424-2.72,1.7-3.232l-1.552-1.1a4.908,4.908,0,0,1-1.376.144Zm21.1-.832h-5.232V6.48h5.232v5.008c0,.688-.128.848-.592.848a6.067,6.067,0,0,1-1.36-.176,7.242,7.242,0,0,1,.832,2.528,5.522,5.522,0,0,0,1.056.1c2.688,0,2.688-1.376,2.688-2.384V6.48h5.232V4.144h-5.232V1.392c.128-.064.256-.128.256-.256,0-.16-.144-.208-.272-.208l-2.608-.1Zm-2.832,3.2a11.234,11.234,0,0,1-3.408,4.112,13.451,13.451,0,0,1,2.16,1.632,16.884,16.884,0,0,0,3.2-4c.16.016.416.016.416-.192,0-.1-.08-.16-.192-.224Zm6.336,1.328a17.993,17.993,0,0,1,3.072,4.064c1.248-1.088,1.552-1.36,1.984-1.712a26.424,26.424,0,0,0-3.2-3.872Zm1.04-6.816a12.741,12.741,0,0,1,1.472,1.664c.256-.208.9-.736,1.264-1.024A10.553,10.553,0,0,0,132.028.88Zm2-.88a10.865,10.865,0,0,1,1.472,1.664c.5-.416.64-.544,1.264-1.024A9.842,9.842,0,0,0,134.012,0ZM143.82,4.144h-5.232V6.48h5.232v5.008c0,.688-.128.848-.592.848a6.067,6.067,0,0,1-1.36-.176,7.242,7.242,0,0,1,.832,2.528,5.522,5.522,0,0,0,1.056.1c2.688,0,2.688-1.376,2.688-2.384V6.48h5.232V4.144h-5.232V1.392c.128-.064.256-.128.256-.256,0-.16-.144-.208-.272-.208l-2.608-.1Zm-2.832,3.2a11.234,11.234,0,0,1-3.408,4.112,13.45,13.45,0,0,1,2.16,1.632,16.884,16.884,0,0,0,3.2-4c.16.016.416.016.416-.192,0-.1-.08-.16-.192-.224Zm6.336,1.328a17.993,17.993,0,0,1,3.072,4.064c1.248-1.088,1.552-1.36,1.984-1.712a26.424,26.424,0,0,0-3.2-3.872Zm1.04-6.816a12.741,12.741,0,0,1,1.472,1.664c.256-.208.9-.736,1.264-1.024A10.553,10.553,0,0,0,149.628.88Zm2-.88a10.865,10.865,0,0,1,1.472,1.664c.5-.416.64-.544,1.264-1.024A9.842,9.842,0,0,0,151.612,0Zm9.744,5.28V1.36c.128-.032.3-.1.3-.256s-.192-.176-.3-.176L157.4.8V14.928h2.7v-7.5a23.645,23.645,0,0,1,4.992,3.552c.7-1.088.784-1.2,1.5-2.24a23.151,23.151,0,0,0-5.584-3.76Zm11.2-4.624v4.7a5.683,5.683,0,0,1-.784,3.28,8.531,8.531,0,0,1-2.592,2.464,8.134,8.134,0,0,1,2.16,1.744c1.92-1.648,3.968-3.424,3.968-7.632v-3.9c.064-.032.272-.112.272-.3,0-.208-.192-.208-.368-.224Zm4.1-.144V11.6c0,.448-.032.848-.064,1.28l1.7,1.088c.624-.48,1.248-.976,1.888-1.44a27.5,27.5,0,0,0,4.5-4.432,7.453,7.453,0,0,1-1.232-2.4,17.155,17.155,0,0,1-4.144,4.192V2.1c.144-.064.3-.144.3-.288,0-.16-.128-.16-.3-.176ZM192.524.272a11.406,11.406,0,0,0,0,15.3l1.424-1.232A9.5,9.5,0,0,1,191.5,7.92,9.5,9.5,0,0,1,193.948,1.5ZM204.06,8h3.44V7.152a14.816,14.816,0,0,0,1.44.688A7.437,7.437,0,0,1,210.476,5.9a14.731,14.731,0,0,1-3.744-2.112,12.833,12.833,0,0,1-2.7-2.464c.08-.032.32-.112.32-.368,0-.192-.208-.24-.32-.256l-2.5-.3a13.962,13.962,0,0,1-6.672,5.968,4.4,4.4,0,0,1,1.84,1.776,13.77,13.77,0,0,0,1.568-1.008V8h3.3V9.3h-3.136v2.128h3.136v1.392h-5.536v2.112h13.52V12.816H204.06V11.424h3.264V9.3H204.06Zm-4.1-2.176a14.261,14.261,0,0,0,2.576-2.672,17.677,17.677,0,0,0,2.976,2.672ZM219.8,7.312A2.971,2.971,0,0,0,221.788,4.5c0-.752-.352-3.456-4.848-3.456a6.771,6.771,0,0,0-3.6.864A3.177,3.177,0,0,0,211.948,4.5a2.979,2.979,0,0,0,1.984,2.816,3.178,3.178,0,0,0-2.4,3.136,3.568,3.568,0,0,0,1.456,2.928,7.046,7.046,0,0,0,3.888.976,7.139,7.139,0,0,0,3.888-.976,3.571,3.571,0,0,0,1.44-2.928A3.178,3.178,0,0,0,219.8,7.312ZM216.876,3.44c1.568,0,1.936.976,1.936,1.552,0,.224-.048,1.5-1.952,1.5s-1.936-1.312-1.936-1.52C214.924,4.4,215.308,3.44,216.876,3.44Zm0,4.848c2.08,0,2.352,1.312,2.352,1.824,0,1.36-1.28,1.824-2.352,1.824-1.088,0-2.368-.464-2.368-1.824C214.508,9.584,214.78,8.288,216.876,8.288Zm10.96,1.6a10.436,10.436,0,0,0,.672,1.3,6.487,6.487,0,0,1,1.216-1.68,11.173,11.173,0,0,1-1.856-3.024H229.4V5.2h3.136v.512h-2.7v4.816h2.7v.528h-2.88V12.64h2.88v.48h-3.584v1.728h9.392V13.12H234.8v-.48h3.1V11.056h-3.1v-.528h2.912V5.712H234.8V5.2h3.44V3.44H234.8V2.768c1.072-.16,1.792-.3,2.32-.416.16.128.24.192.384.192.112,0,.224-.048.224-.176a.46.46,0,0,0-.112-.24l-1.2-1.68a18.781,18.781,0,0,1-5.376.784c-.64,0-1.024-.016-1.376-.048a8.494,8.494,0,0,1,.592,1.872c.736,0,1.232,0,2.288-.064V3.44h-3.216v.88h-1.488V2.8c.864-.24,1.12-.336,1.36-.416a1.084,1.084,0,0,0,.416.128c.08,0,.224-.016.224-.144,0-.112-.112-.24-.176-.336l-1.088-1.5A13.22,13.22,0,0,1,223.356,1.6a7.658,7.658,0,0,1,1.056,1.856c.384-.048.736-.08,1.248-.176V4.32h-2.08V6.48h1.9a11.033,11.033,0,0,1-2.32,4.528,9.783,9.783,0,0,1,1.584,1.7,11.765,11.765,0,0,0,.912-1.856V15.2h2.176Zm3.872-2.24V7.024h.832v.624Zm.832.9V9.2h-.832V8.544Zm2.256-.9V7.024h.848v.624Zm.848.9V9.2H234.8V8.544ZM239.8,1.5a9.632,9.632,0,0,1,0,12.832l1.408,1.232a11.406,11.406,0,0,0,0-15.3Z" transform="translate(-89.948)"/></svg>