<svg xmlns="http://www.w3.org/2000/svg" xmlns:xlink="http://www.w3.org/1999/xlink" width="336.804" height="66.969" viewBox="0 0 336.804 66.969"><defs><linearGradient id="a" x1="0.5" y1="-0.002" x2="0.5" y2="1.001" gradientUnits="objectBoundingBox"><stop offset="0" stop-color="#009389"/><stop offset="0.25" stop-color="#50b6bb"/><stop offset="0.5" stop-color="#009389"/><stop offset="0.75" stop-color="#50b6bb"/><stop offset="1" stop-color="#009389"/></linearGradient><linearGradient id="b" x1="0.5" x2="0.5" y2="1" gradientUnits="objectBoundingBox"><stop offset="0" stop-color="#a6a7a7"/><stop offset="0.447" stop-color="#fff"/><stop offset="0.525" stop-color="#a6a7a7"/><stop offset="1" stop-color="#8e8e8f"/></linearGradient><linearGradient id="c" x1="0.5" y1="0.998" x2="0.5" y2="0.015" xlink:href="#b"/><linearGradient id="d" x1="0.5" x2="0.5" y2="1" gradientUnits="objectBoundingBox"><stop offset="0" stop-color="#fff"/><stop offset="0.498" stop-color="#fff"/><stop offset="0.504" stop-color="gray"/><stop offset="0.911" stop-color="#e6e6e6"/></linearGradient></defs><g transform="translate(-92.589 -214.487)"><g transform="translate(92.589 214.487)"><path d="M427.8,253.008a6.66,6.66,0,0,0,.3-1.986V243.3a6.648,6.648,0,0,0-6.64-6.64h-4.616a6.679,6.679,0,0,0-6.026-3.862h-7.618a6.638,6.638,0,0,0-6.03,3.862h-1.989a6.647,6.647,0,0,0-6.639,6.64v3.381H372.406a6.6,6.6,0,0,0,1.063-3.591v-5.524a6.647,6.647,0,0,0-6.639-6.64h-8.638a6.62,6.62,0,0,0-4.613,1.873H336.42a6.641,6.641,0,0,0-6.64,6.641l0,6.993c-.033.033-.06.07-.091.1-2.773-.736-5.717-1.438-8.678-2.068v-5.009a6.65,6.65,0,0,0-6.64-6.635H306.95a6.641,6.641,0,0,0-6.64,6.641v4.586H280.222c.052-1.229.088-2.483.088-3.791v-.821a6.648,6.648,0,0,0-6.64-6.64H249.825a6.63,6.63,0,0,0-5.628,3.123,6.638,6.638,0,0,0-5.62-3.123H214.788a22.506,22.506,0,0,0,2.416-8.091l1.016-10.221H183.684l-.616,8.607-.047-.073a17.654,17.654,0,0,0-14.8-8.535H141.548l.289.556a39.144,39.144,0,0,0-6.774-.555,40.7,40.7,0,0,0-33.686,17.061,46.92,46.92,0,0,0-7.737,16.786c-1.408,5.984-1.4,11.734.021,16.193A21.894,21.894,0,0,0,104.7,277.321c5.146,2.711,11.69,4.085,19.449,4.085a39.339,39.339,0,0,0,14.223-2.72l-.272,2.733h34.536l.446-6.239,3.242,6.239h35.529a12.893,12.893,0,0,0,1.589-.063,35.088,35.088,0,0,0,15.637-7.376c3.3,3.553,7.327,7.188,12.6,7.463.589.03,5.822,0,5.87,0,10.16-.127,21.622-3.547,27.937-16.263a6.663,6.663,0,0,0,1.454.165h23.378l0,9.466a6.651,6.651,0,0,0,6.64,6.635h7.421a6.641,6.641,0,0,0,6.64-6.641l0-8.453c2.756.663,5.621,1.409,8.493,2.216a6.642,6.642,0,0,0,1.261.208v6.03a6.643,6.643,0,0,0,6.64,6.64c.1,0,.322-.008.424-.014,11.665-.746,20.1-6.7,23.29-16.185h3.722a6.62,6.62,0,0,0,2.63,4.248V274.8a6.678,6.678,0,0,0,2.048,4.795,6.608,6.608,0,0,0,4.593,1.846c.065,0,.211,0,.276-.007,8.725-.364,14.915-3.682,18.532-9.893a6.627,6.627,0,0,0,1.324.134h4.772l.279,3.636a6.673,6.673,0,0,0,6.621,6.13h7.62a6.64,6.64,0,0,0,6.621-7.15l-.2-2.616h2.8a6.647,6.647,0,0,0,6.64-6.64v-7.722A6.608,6.608,0,0,0,427.8,253.008Zm-217.2,7.263a6.658,6.658,0,0,0-4.869,6.4v.974l-9.394-18.491a57.769,57.769,0,0,0,9.123-5.666c.736-.566,1.43-1.145,2.1-1.729v5.819a6.649,6.649,0,0,0,6.639,6.634h5.335A18.8,18.8,0,0,1,210.607,260.271Z" transform="translate(-92.589 -214.487)" fill="#120b0b"/><g transform="translate(4.222 4.228)"><path d="M188.727,219.825l-.337,4.712a16.345,16.345,0,0,1-3.872,9.6l-3.722-7.328-.051-.1-.058-.114-.069-.109-.06-.1a13.457,13.457,0,0,0-11.231-6.571h-19.71l2.629,5.06c-3.7-3.36-9.085-5.059-16.075-5.059A36.476,36.476,0,0,0,105.9,235.153a42.645,42.645,0,0,0-7.035,15.259c-1.235,5.249-1.259,10.2-.067,13.94,2.864,8.987,12.26,13.936,26.457,13.936a36.543,36.543,0,0,0,18.246-5.112l.938-.548-.564,5.672h25.931l.337-4.711a33.612,33.612,0,0,1,2.175-10.069L180,278.3h26.956l-15.246-30.007A59.43,59.43,0,0,0,204,241.248c6.133-4.723,9.534-10.056,10.11-15.848l.554-5.576Zm-54.908,17.964a5.184,5.184,0,0,1-2.069,3.72,10.816,10.816,0,0,1-4.437,2.106,27.648,27.648,0,0,1,1.912-3.648c1.3-2.042,2.65-3.261,3.612-3.261C133.735,236.7,133.819,237,133.819,237.788Zm8.6,20.946a48.8,48.8,0,0,1-11.28,1.622c-3.427,0-6-.68-6.873-1.819a4.332,4.332,0,0,1-.52-2.952h29.51l1.355-2.967A39.235,39.235,0,0,0,157.225,244a27.359,27.359,0,0,0,.227-9.094l6.518,12.545a76.13,76.13,0,0,0-9.889,8.125c-.077.076-.154.152-.23.229Z" transform="translate(-97.92 -219.824)" fill="url(#a)"/><path d="M212.38,223.241l-.258,2.6c-1.137,11.432-15.232,18.567-23.441,21.778l14.573,28.685h-20.9l-9.316-17.932a32.349,32.349,0,0,0-4.881,15.734l-.157,2.2H147.571l.259-2.6c.492-4.948,3.473-10.161,8.863-15.5a78.248,78.248,0,0,1,11.494-9.165l-13.406-25.8h15.255a10.771,10.771,0,0,1,8.945,5.314l.06.094.051.1,5.391,10.611A19.46,19.46,0,0,0,191.8,225.44l.158-2.2ZM149.96,260.486l-3.623,5.222a21.209,21.209,0,0,0-2.467,4.626l-.3.79-.729.426a33.836,33.836,0,0,1-16.882,4.742c-12.922,0-21.4-4.281-23.879-12.052-1.046-3.28-1-7.719.122-12.5a39.94,39.94,0,0,1,6.585-14.283,33.778,33.778,0,0,1,28.089-14.218c7.954,0,13.5,2.357,16.492,7.006,5.5,8.554-.262,21.415-.51,21.958l-.632,1.385H122.184c-.791,3.262-.573,5.72.651,7.309,1.829,2.375,5.912,2.874,9.017,2.874a51.578,51.578,0,0,0,11.951-1.707ZM137.234,238.5a3.461,3.461,0,0,0-3.688-3.789c-4.515,0-7.99,7.758-9.637,12.835,5.416-.122,8.575-1.819,10.286-3.251A7.774,7.774,0,0,0,137.234,238.5Z" transform="translate(-98.629 -220.534)" fill="url(#b)"/><path d="M170.036,224.255a9.764,9.764,0,0,1,8.088,4.843l.035.054.029.057,5.965,11.74.977-.806a20.519,20.519,0,0,0,7.681-14.631l.09-1.256h18.36l-.148,1.487c-1.081,10.877-14.749,17.785-22.8,20.933l-1.042.408,14.33,28.207H182.966l-9.828-18.917-.951,1.441a33.387,33.387,0,0,0-5.046,16.22l-.09,1.256H148.692l.147-1.487c.468-4.706,3.351-9.711,8.568-14.875a76.881,76.881,0,0,1,11.341-9.04l.759-.5-13.056-25.129h13.585m-33.156,0c7.587,0,12.849,2.2,15.638,6.54,5.2,8.093-.341,20.465-.579,20.988l-.361.791H121.386l-.189.775c-.867,3.576-.587,6.323.833,8.168,2.081,2.7,6.489,3.269,9.821,3.269a52.515,52.515,0,0,0,12.2-1.74l3.519-.9L145.5,265.13a22.217,22.217,0,0,0-2.584,4.849l-.169.452-.417.243a32.812,32.812,0,0,1-16.371,4.6c-12.443,0-20.581-4.029-22.913-11.345-.991-3.107-.939-7.355.143-11.958a38.913,38.913,0,0,1,6.417-13.917,32.762,32.762,0,0,1,27.269-13.8M122.5,248.591l1.429-.032c5.729-.129,9.1-1.968,10.915-3.488a8.776,8.776,0,0,0,3.4-6.572c0-2.216-1.231-4.8-4.7-4.8-2.374,0-4.645,1.677-6.75,4.983a39.731,39.731,0,0,0-3.851,8.554l-.441,1.359m47.533-25.351H154.781l13.406,25.8a78.292,78.292,0,0,0-11.494,9.164c-5.389,5.336-8.371,10.549-8.863,15.5l-.259,2.6H168l.158-2.2a32.352,32.352,0,0,1,4.88-15.734l9.316,17.932h20.9L188.68,247.62c8.209-3.21,22.3-10.346,23.44-21.778l.259-2.6H191.955l-.157,2.2a19.46,19.46,0,0,1-7.314,13.921l-5.391-10.611-.051-.1-.06-.094A10.771,10.771,0,0,0,170.036,223.24Zm-33.156,0a33.778,33.778,0,0,0-28.089,14.218,39.94,39.94,0,0,0-6.585,14.283c-1.124,4.78-1.168,9.219-.122,12.5,2.477,7.772,10.957,12.052,23.879,12.052a33.825,33.825,0,0,0,16.882-4.743l.729-.425.3-.79a21.174,21.174,0,0,1,2.467-4.626l3.623-5.222-6.157,1.579a51.535,51.535,0,0,1-11.951,1.707c-3.1,0-7.188-.5-9.017-2.874-1.224-1.589-1.442-4.046-.65-7.309H152.23l.632-1.385c.248-.543,6.009-13.4.51-21.958C150.383,225.6,144.835,223.241,136.88,223.241Zm-12.971,24.3c1.647-5.077,5.122-12.835,9.637-12.835a3.461,3.461,0,0,1,3.688,3.79,7.774,7.774,0,0,1-3.039,5.794C132.483,245.726,129.324,247.423,123.909,247.544Z" transform="translate(-98.629 -220.534)" fill="url(#c)"/></g></g><g transform="translate(210.481 235.67)"><path d="M274.176,271.03c-2.233-1.133-5.19-4.473-6.361-8.083a40.492,40.492,0,0,0,3.6-17.455,1.9,1.9,0,0,0-1.9-1.9H245.144a1.9,1.9,0,0,0-1.9,1.9l0,8.131a1.9,1.9,0,0,0,1.9,1.9h13.292a24.015,24.015,0,0,1-15.624,15.373,1.9,1.9,0,0,0-1.392,1.829v8.132a1.9,1.9,0,0,0,1.9,1.9,1.967,1.967,0,0,0,.3-.025c5.667-.916,11.886-4.449,17.026-9.6,3.113,4.838,7.446,8.265,12.172,9.555a1.9,1.9,0,0,0,2.4-1.83l0-8.132A1.9,1.9,0,0,0,274.176,271.03Z" transform="translate(-241.421 -241.721)" fill="#6a6a6a"/><path d="M314.646,245.492a1.9,1.9,0,0,0-1.9-1.9H288.9a1.9,1.9,0,0,0-1.84,1.433c-1.035,4.1-3.164,7.629-5.7,9.432a1.9,1.9,0,0,0-.8,1.545v8.543a1.9,1.9,0,0,0,2.612,1.757,19.261,19.261,0,0,0,3.614-1.957v.406a1.9,1.9,0,0,0,1.71,1.888c2.831.281,5.462.624,8.217,1.078-2.08,1.8-5.072,2.945-10.3,3.106a1.9,1.9,0,0,0-1.84,1.9v8.132a1.9,1.9,0,0,0,1.9,1.9h.021c18.678-.206,28.146-12.465,28.145-36.436Zm-12.18,11.668c-2.8-.532-5.644-.934-8.1-1.228.158-.278.307-.551.447-.821h8.038C302.734,255.842,302.608,256.521,302.467,257.16Z" transform="translate(-249.56 -241.721)" fill="#6a6a6a"/><path d="M501.425,261.469h-8.8l-.192-2.5h7.7a1.9,1.9,0,0,0,1.9-1.9v-7.72a1.9,1.9,0,0,0-1.9-1.9H491.55l-.163-2.109A1.9,1.9,0,0,0,489.5,243.6h-7.619a1.9,1.9,0,0,0-1.891,2.042l.139,1.819h-6.267a1.9,1.9,0,0,0-1.9,1.9v7.72a1.9,1.9,0,0,0,1.9,1.9h7.152l.192,2.5H472.92a1.9,1.9,0,0,0-1.9,1.9v7.722a1.9,1.9,0,0,0,1.9,1.9h9.165L482.7,281a1.9,1.9,0,0,0,1.891,1.752h7.62a1.9,1.9,0,0,0,1.891-2.043l-.594-7.723h7.916a1.9,1.9,0,0,0,1.9-1.9v-7.722A1.9,1.9,0,0,0,501.425,261.469Z" transform="translate(-289.152 -241.721)" fill="#6a6a6a"/><path d="M462.124,261.12H455.85a1.9,1.9,0,0,1-3.407,0h-11.42a1.9,1.9,0,0,0-1.834,2.38c.762,2.9,1.921,7.974,2.368,10.629a1.9,1.9,0,0,0,1.872,1.583h4.845a1.9,1.9,0,0,1,1.958,0h.2a10.962,10.962,0,0,1-4.607,1.648,1.9,1.9,0,0,0-1.567,1.869V284.5a1.9,1.9,0,0,0,1.9,1.9l.078,0c12.138-.508,17.789-7.622,17.787-22.391v-.984A1.9,1.9,0,0,0,462.124,261.12Z" transform="translate(-282.521 -245.364)" fill="#6a6a6a"/><path d="M412.827,254.708H411.44a1.985,1.985,0,0,0,1.217-.564,1.9,1.9,0,0,0,.555-1.343l0-2.252h1.5a1.9,1.9,0,0,0,1.9-1.9v-5.524a1.9,1.9,0,0,0-1.9-1.9h-8.637a1.9,1.9,0,0,0-1.9,1.9v.019a1.775,1.775,0,0,0-.205-.041H384.3a1.9,1.9,0,0,0-1.9,1.9l0,7.8a1.9,1.9,0,0,0,1.718,1.905h-1.685a1.9,1.9,0,0,0-1.9,1.9v1.549a1.873,1.873,0,0,0-.842-.544c-4.682-1.368-10.267-2.695-15.548-3.7v-8.884a1.9,1.9,0,0,0-1.9-1.9h-7.421a1.9,1.9,0,0,0-1.9,1.9l0,10.309a1.871,1.871,0,0,0-1.626-.979H324.816a1.9,1.9,0,0,0-1.9,1.9v8.009a1.9,1.9,0,0,0,1.9,1.9h26.493a1.9,1.9,0,0,0,1.342-.556,1.862,1.862,0,0,0,.285-.427l0,15.186a1.9,1.9,0,0,0,1.9,1.9h7.422a1.9,1.9,0,0,0,1.9-1.9l0-14.383c4.473.932,9.438,2.155,14.5,3.575a1.922,1.922,0,0,0,.513.07,1.9,1.9,0,0,0,1.9-1.9v-2.27a1.878,1.878,0,0,0,1.374.6H393.06c-1.271,3.026-3.257,3.955-7.9,4.277a1.9,1.9,0,0,0-1.767,1.892v8.132a1.9,1.9,0,0,0,1.9,1.9c.04,0,.081,0,.12,0,10.979-.7,18.3-6.712,19.9-16.195h7.514a1.9,1.9,0,0,0,1.9-1.9v-7.558A1.9,1.9,0,0,0,412.827,254.708Z" transform="translate(-258.363 -241.229)" fill="#6a6a6a"/></g><g transform="translate(212.378 237.568)"><g transform="translate(0 1.873)"><rect width="26.493" height="8.009" transform="translate(64.557 11.254)" fill="url(#d)"/><path d="M282.966,256.5l0,8.542a19.242,19.242,0,0,0,6.224-4.23v4.436c3.728.37,7.315.863,11.676,1.684-2.762,3.949-6.456,6.057-13.891,6.284v8.132c20.528-.227,26.27-16.059,26.267-34.54v-.822H289.4C288.241,250.589,285.849,254.45,282.966,256.5Zm11.148-2.792h11.4a35.241,35.241,0,0,1-1.16,6.16,120.745,120.745,0,0,0-12.732-1.889A25.227,25.227,0,0,0,294.114,253.711Z" transform="translate(-251.955 -245.989)" fill="url(#d)"/><path d="M266.288,263.28a38.431,38.431,0,0,0,3.726-17.291H245.641l0,8.133H261.4a25.8,25.8,0,0,1-17.583,19.1v8.132c5.839-.945,12.52-5.011,17.689-10.884,2.6,5.01,6.895,9.4,12.311,10.884l0-8.132C271.143,271.864,267.478,267.828,266.288,263.28Z" transform="translate(-243.816 -245.989)" fill="url(#d)"/><path d="M501.922,263.864H491.366l-.483-6.293h9.752v-7.721H490.29l-.3-3.861h-7.618l.3,3.861h-8.314v7.721h8.907l.483,6.293H473.419v7.721h10.922l.75,9.766h7.618l-.75-9.766h9.963Z" transform="translate(-291.547 -245.989)" fill="url(#d)"/><path d="M387.544,260.427a172.076,172.076,0,0,0-16.913-3.942l0-10.463h-7.421l.006,35.336h7.421l0-16.7c5.521,1.068,11.4,2.52,16.912,4.065Z" transform="translate(-268.636 -245.996)" fill="url(#d)"/><path d="M456.347,263.515h6.274v.985c0,14.561-5.466,20.056-15.968,20.5v-5.269c4.9-.867,6.794-2.62,8-5.413H450.73c-.448-2.664-1.617-7.845-2.413-10.8h4.624a95.307,95.307,0,0,1,2.364,9.35,25.751,25.751,0,0,0,1.043-8.424Zm-10.176,0h-4.649c.8,3.021,1.956,8.128,2.4,10.8h4.845A105.622,105.622,0,0,0,446.171,263.515Z" transform="translate(-284.916 -249.632)" fill="url(#d)"/><path d="M426.935,253.793v-2.359h-7.341v-5.445h-19.67v7.8Zm-28.874,3.8v7.557h13.224c-1.473,5.691-3.864,7.615-10.374,8.067v8.132c8.335-.534,17.3-4.852,18.357-16.2h9.179l0-7.557Z" transform="translate(-275.881 -245.989)" fill="url(#d)"/></g><path d="M431.364,249.149h-3.469l0-5.524h3.467Zm1.718,0h3.451v-5.524h-3.451Z" transform="translate(-282.083 -243.625)" fill="#fff"/></g></g></svg>