<svg xmlns="http://www.w3.org/2000/svg" width="251.396" height="20.361" viewBox="0 0 251.396 20.361"><g transform="translate(-126.11 -98.952)"><path d="M521.621,114.55l-3.532-3.523h-9.356v15.111h9.356l3.532-3.524Zm-4.192,6.389-1.157,1.154h-3.346v-7.022h3.346l1.157,1.153Z" transform="translate(-216.271 -6.825)" fill="#1a1311"/><path d="M480.661,126.138h5.006l-3.195-4.632,2.717-2.71V114.55l-3.532-3.523H472.3v15.11h4.129v-3.818h1.6Zm-4.167-11.066h3.347L481,116.225v.9l-1.156,1.154h-3.347Z" transform="translate(-195.679 -6.825)" fill="#1a1311"/><path d="M412.584,111.027h-9.356L399.7,114.55v8.064l3.532,3.524h9.356v-4.045h-7.539l-1.157-1.154v-4.714l1.157-1.154h7.539Z" transform="translate(-154.639 -6.825)" fill="#1a1311"/><path d="M448.887,126.137V114.55l-3.532-3.523h-5.824L436,114.55v11.587h4.193v-3.819h4.5v3.819Zm-8.695-7.863v-2.05l1.156-1.153h2.19l1.156,1.153v2.05Z" transform="translate(-175.159 -6.825)" fill="#1a1311"/><path d="M175.3,114.55l-3.532-3.523h-5.824l-3.532,3.523v8.064l3.532,3.524h5.824l3.532-3.524Zm-4.192,6.389-1.157,1.154h-2.19l-1.156-1.154v-4.714l1.156-1.153h2.19l1.157,1.153Z" transform="translate(-20.52 -6.825)" fill="#1a1311"/><path d="M322.965,114.549l-3.532-3.523H313.61l-3.532,3.523v8.065l3.532,3.523h5.824l3.532-3.523Zm-4.192,6.389-1.157,1.154h-2.189l-1.157-1.154v-4.714l1.157-1.153h2.19l1.157,1.153Z" transform="translate(-103.984 -6.825)" fill="#1a1311"/><path d="M139,118.8V114.55l-3.532-3.523H126.11v15.11h4.129v-3.818h5.227Zm-4.192-1.675-1.157,1.154H130.3v-3.2h3.347l1.156,1.153Z" transform="translate(0 -6.825)" fill="#1a1311"/><path d="M281.42,126.138V114.55l-3.532-3.523h-9.856L264.5,114.55v11.588h4.192V115.056h2.2v11.081h4.129V115.056h2.2v11.082Z" transform="translate(-78.223 -6.825)" fill="#1a1311"/><path d="M211.464,111.028h-5.006l-3.614,5.241v-5.242h-4.129v15.11h4.129V120.9l3.614,5.241h5.006l-5.21-7.555Z" transform="translate(-41.039 -6.825)" fill="#1a1311"/><path d="M359.27,126.137l0-15.11H355.14v7.4l-4.562-7.4-4.2,0v15.11h4.129v-7.4l4.561,7.4Z" transform="translate(-124.504 -6.825)" fill="#1a1311"/><path d="M243.945,98.952,242,102.014h2.916l1.949-3.062Z" transform="translate(-65.502 0)" fill="#1a1311"/><path d="M244.212,115.075v-4.048H233.73v15.11h10.482v-4.063h-6.353V119.93h6.353v-2.7h-6.353v-2.16Z" transform="translate(-60.83 -6.825)" fill="#1a1311"/><path d="M651.572,126.138V114.55l-3.532-3.523h-9.856l-3.532,3.523v11.588h4.192V115.056h2.2v11.081h4.129V115.056h2.2v11.082Z" transform="translate(-287.443 -6.825)" fill="#1a1311"/><path d="M680.229,126.137h10.482v-4.063h-6.353V119.93h6.353v-2.7h-6.353v-2.16h6.353v-4.048H680.229Z" transform="translate(-313.205 -6.825)" fill="#1a1311"/><path d="M574.933,111.027h-9.355l-3.532,3.523v8.064l3.532,3.524h9.355v-9h-6.615v2.88H570.8v2.071h-3.41l-1.156-1.154v-4.714l1.156-1.154h7.538Z" transform="translate(-246.404 -6.825)" fill="#1a1311"/><path d="M611.236,126.137V114.55l-3.532-3.523h-5.824l-3.532,3.523v11.587h4.192v-3.819h4.5v3.819Zm-8.7-7.863v-2.05l1.157-1.153h2.19l1.157,1.153v2.05Z" transform="translate(-266.924 -6.825)" fill="#1a1311"/></g></svg>