<svg xmlns="http://www.w3.org/2000/svg" width="290.486" height="21.44" viewBox="0 0 290.486 21.44"><g transform="translate(-41.826 -5093.795)"><path d="M-137.592.308a10.029,10.029,0,0,1-4.186-.8,9.747,9.747,0,0,1-3.206-2.422l2.856-2.828a7.2,7.2,0,0,0,2.114,1.694,5.794,5.794,0,0,0,2.7.6,3.949,3.949,0,0,0,2.17-.5,1.586,1.586,0,0,0,.77-1.4,1.78,1.78,0,0,0-.5-1.316,4.322,4.322,0,0,0-1.33-.868q-.826-.364-1.82-.7T-140-9a8.24,8.24,0,0,1-1.806-1.092,4.93,4.93,0,0,1-1.33-1.652,5.52,5.52,0,0,1-.5-2.506,5.5,5.5,0,0,1,.882-3.136,5.542,5.542,0,0,1,2.45-2,8.937,8.937,0,0,1,3.612-.686,9.647,9.647,0,0,1,3.794.728,7.793,7.793,0,0,1,2.842,1.988l-2.856,2.828a6.662,6.662,0,0,0-1.806-1.372,4.6,4.6,0,0,0-2.058-.448,3.324,3.324,0,0,0-1.82.434,1.4,1.4,0,0,0-.672,1.246,1.574,1.574,0,0,0,.5,1.218,4.409,4.409,0,0,0,1.33.8q.826.336,1.82.672a20.657,20.657,0,0,1,1.974.784,8.057,8.057,0,0,1,1.806,1.134,5.071,5.071,0,0,1,1.33,1.736,5.96,5.96,0,0,1,.5,2.59A5.367,5.367,0,0,1-132.02-1.3,8.7,8.7,0,0,1-137.592.308Zm20.468-7.5v-3.416h4.256a3.271,3.271,0,0,0,1.484-.336,2.566,2.566,0,0,0,1.064-.98,2.962,2.962,0,0,0,.392-1.568,2.906,2.906,0,0,0-.392-1.54,2.566,2.566,0,0,0-1.064-.98,3.271,3.271,0,0,0-1.484-.336h-4.256v-3.416h4.9a7.47,7.47,0,0,1,3.388.756,5.846,5.846,0,0,1,2.394,2.17,6.192,6.192,0,0,1,.882,3.346,6.192,6.192,0,0,1-.882,3.346,5.944,5.944,0,0,1-2.394,2.184,7.358,7.358,0,0,1-3.388.77Zm-3.36,7.2V-19.768h4.4V0Zm24.108,0V-19.768h4.4V0Zm3.36,0V-3.808H-82.18V0Zm0-8.26v-3.668h9.856V-8.26Zm0-7.728v-3.78h10.7v3.78Zm29.6,16.3a10.769,10.769,0,0,1-4.1-.77,10.014,10.014,0,0,1-3.3-2.17,10.007,10.007,0,0,1-2.2-3.262,10.248,10.248,0,0,1-.784-4.018,10.248,10.248,0,0,1,.784-4.018,9.8,9.8,0,0,1,2.184-3.234,10.079,10.079,0,0,1,3.29-2.142,10.769,10.769,0,0,1,4.1-.77,10.905,10.905,0,0,1,4.186.756,10.193,10.193,0,0,1,3.206,2.072L-59-14.28a5.553,5.553,0,0,0-1.89-1.316,6.434,6.434,0,0,0-2.562-.476,6.279,6.279,0,0,0-2.366.434,5.175,5.175,0,0,0-1.848,1.246,5.779,5.779,0,0,0-1.2,1.96,7.073,7.073,0,0,0-.434,2.52,7.156,7.156,0,0,0,.434,2.548,5.779,5.779,0,0,0,1.2,1.96,5.333,5.333,0,0,0,1.848,1.26,6.106,6.106,0,0,0,2.366.448,6.693,6.693,0,0,0,2.632-.476,5.82,5.82,0,0,0,1.932-1.316l2.968,2.968A10.9,10.9,0,0,1-59.178-.448,11.065,11.065,0,0,1-63.42.308ZM-46.788,0V-19.768h4.4V0Zm13.44,0,7.84-19.768h3.976L-13.776,0h-4.648L-24.36-16.408h1.6L-28.784,0ZM-28.9-3.584V-7.168h10.78v3.584ZM-4.956,0V-19.768h4.4V0Zm3.388,0V-3.864H8.2V0ZM29.288,0V-19.768h3.136L40.208-7.644h-1.6l7.756-12.124h3.164V0h-4.4V-12.348l.784.2-5.068,7.9H37.94l-5.04-7.9.756-.2V0Zm40.18.336a10.674,10.674,0,0,1-4.13-.784A10.361,10.361,0,0,1,62.02-2.632a9.9,9.9,0,0,1-2.212-3.262,10.248,10.248,0,0,1-.784-4.018,10.218,10.218,0,0,1,.784-4.032,10,10,0,0,1,2.184-3.234,9.967,9.967,0,0,1,3.29-2.156,10.844,10.844,0,0,1,4.13-.77,10.769,10.769,0,0,1,4.1.77,10.125,10.125,0,0,1,3.3,2.156,9.851,9.851,0,0,1,2.2,3.248A10.32,10.32,0,0,1,79.8-9.884a10.248,10.248,0,0,1-.784,4.018,9.957,9.957,0,0,1-2.184,3.248,10.151,10.151,0,0,1-3.29,2.17A10.526,10.526,0,0,1,69.468.336Zm-.056-4a5.979,5.979,0,0,0,3.094-.784,5.319,5.319,0,0,0,2.058-2.2,7.028,7.028,0,0,0,.728-3.262,7.252,7.252,0,0,0-.42-2.534,5.67,5.67,0,0,0-1.2-1.96,5.225,5.225,0,0,0-1.862-1.26,6.356,6.356,0,0,0-2.394-.434,6.064,6.064,0,0,0-3.094.77,5.268,5.268,0,0,0-2.058,2.156,6.921,6.921,0,0,0-.728,3.262,7.37,7.37,0,0,0,.42,2.548,5.757,5.757,0,0,0,1.19,1.974A5.215,5.215,0,0,0,67-4.116,6.286,6.286,0,0,0,69.412-3.668ZM94.668,0,87.052-19.768h4.7l5.8,15.988H95.62l5.88-15.988h4.648L98.448,0Zm20.524,0V-19.768h4.4V0Zm14.924,0V-19.768h4.4V0Zm3.36,0V-3.808h10.836V0Zm0-8.26v-3.668h9.856V-8.26Zm0-7.728v-3.78h10.7v3.78Z" transform="translate(187.5 5114.399)"/><path d="M69.468.836A11.22,11.22,0,0,1,65.146.014,10.907,10.907,0,0,1,61.67-2.275,10.444,10.444,0,0,1,59.347-5.7a10.792,10.792,0,0,1-.823-4.212,10.761,10.761,0,0,1,.824-4.227,10.539,10.539,0,0,1,2.293-3.394A10.51,10.51,0,0,1,65.093-19.8a11.391,11.391,0,0,1,4.319-.807A11.315,11.315,0,0,1,73.7-19.8a10.669,10.669,0,0,1,3.465,2.262,10.394,10.394,0,0,1,2.309,3.411,10.864,10.864,0,0,1,.823,4.24,10.792,10.792,0,0,1-.823,4.212,10.5,10.5,0,0,1-2.293,3.409A10.7,10.7,0,0,1,73.734.014,11.072,11.072,0,0,1,69.468.836ZM69.412-19.6a10.4,10.4,0,0,0-3.941.733,9.516,9.516,0,0,0-3.127,2.048,9.545,9.545,0,0,0-2.076,3.074,9.769,9.769,0,0,0-.744,3.837,9.8,9.8,0,0,0,.745,3.824,9.449,9.449,0,0,0,2.1,3.1A9.912,9.912,0,0,0,65.53-.91a10.226,10.226,0,0,0,3.938.746A10.077,10.077,0,0,0,73.35-.91a9.7,9.7,0,0,0,3.13-2.063A9.506,9.506,0,0,0,78.555-6.06,9.8,9.8,0,0,0,79.3-9.884a9.871,9.871,0,0,0-.745-3.852,9.4,9.4,0,0,0-2.087-3.085,9.675,9.675,0,0,0-3.143-2.05A10.322,10.322,0,0,0,69.412-19.6ZM-63.42.808A11.315,11.315,0,0,1-67.711,0a10.557,10.557,0,0,1-3.467-2.278A10.551,10.551,0,0,1-73.485-5.7a10.792,10.792,0,0,1-.823-4.212,10.792,10.792,0,0,1,.823-4.212,10.343,10.343,0,0,1,2.295-3.4,10.623,10.623,0,0,1,3.451-2.248,11.315,11.315,0,0,1,4.291-.807,11.45,11.45,0,0,1,4.377.794,10.738,10.738,0,0,1,3.362,2.173l.367.352-3.664,3.7-.355-.38a5.082,5.082,0,0,0-1.722-1.2,5.971,5.971,0,0,0-2.364-.435,5.811,5.811,0,0,0-2.179.4A4.7,4.7,0,0,0-67.3-14.048a5.309,5.309,0,0,0-1.1,1.793,6.608,6.608,0,0,0-.4,2.343,6.692,6.692,0,0,0,.4,2.371,5.309,5.309,0,0,0,1.1,1.793,4.861,4.861,0,0,0,1.677,1.142,5.637,5.637,0,0,0,2.174.41,6.232,6.232,0,0,0,2.436-.436,5.349,5.349,0,0,0,1.768-1.2l.353-.366,3.7,3.7-.383.353A11.45,11.45,0,0,1-58.987.014,11.609,11.609,0,0,1-63.42.808Zm-.028-20.384a10.322,10.322,0,0,0-3.913.733,9.629,9.629,0,0,0-3.129,2.036,9.348,9.348,0,0,0-2.073,3.071,9.8,9.8,0,0,0-.745,3.824,9.8,9.8,0,0,0,.745,3.824,9.555,9.555,0,0,0,2.089,3.1A9.562,9.562,0,0,0-67.333-.925a10.322,10.322,0,0,0,3.913.733A10.622,10.622,0,0,0-59.369-.91a10.5,10.5,0,0,0,2.721-1.634L-58.893-4.79A6.414,6.414,0,0,1-60.62-3.712a7.218,7.218,0,0,1-2.828.516,6.63,6.63,0,0,1-2.558-.486A5.854,5.854,0,0,1-68.025-5.06a6.3,6.3,0,0,1-1.309-2.127A7.685,7.685,0,0,1-69.8-9.912a7.6,7.6,0,0,1,.466-2.7,6.3,6.3,0,0,1,1.309-2.127A5.7,5.7,0,0,1-66-16.1a6.8,6.8,0,0,1,2.553-.47,6.958,6.958,0,0,1,2.76.517A6.156,6.156,0,0,1-59-14.985l2.223-2.244a9.831,9.831,0,0,0-2.674-1.629A10.461,10.461,0,0,0-63.448-19.576ZM-137.592.808a10.567,10.567,0,0,1-4.393-.843,10.287,10.287,0,0,1-3.371-2.543l-.318-.354L-142.1-6.47l.35.4a6.738,6.738,0,0,0,1.967,1.579,5.328,5.328,0,0,0,2.472.546,3.5,3.5,0,0,0,1.9-.422,1.092,1.092,0,0,0,.544-.982,1.29,1.29,0,0,0-.358-.962,3.851,3.851,0,0,0-1.178-.764c-.535-.236-1.133-.466-1.778-.684-.674-.228-1.352-.492-2.016-.786A8.779,8.779,0,0,1-142.118-9.7a5.449,5.449,0,0,1-1.464-1.817,6.032,6.032,0,0,1-.558-2.732,6.014,6.014,0,0,1,.967-3.414,6.059,6.059,0,0,1,2.665-2.182,9.472,9.472,0,0,1,3.812-.728,10.187,10.187,0,0,1,3.989.767,8.324,8.324,0,0,1,3.021,2.116l.315.354-3.552,3.517-.352-.363a6.2,6.2,0,0,0-1.668-1.271,4.125,4.125,0,0,0-1.837-.4,2.863,2.863,0,0,0-1.549.354.9.9,0,0,0-.443.826,1.073,1.073,0,0,0,.342.849,3.939,3.939,0,0,0,1.181.7c.539.219,1.142.442,1.792.661a21.27,21.27,0,0,1,2.022.8,8.6,8.6,0,0,1,1.918,1.2,5.589,5.589,0,0,1,1.461,1.9A6.476,6.476,0,0,1-129.5-5.74a5.868,5.868,0,0,1-2.2,4.829A9.22,9.22,0,0,1-137.592.808Zm-6.7-3.706a9.073,9.073,0,0,0,2.716,1.954,9.585,9.585,0,0,0,3.979.753,8.265,8.265,0,0,0,5.26-1.5A4.851,4.851,0,0,0-130.5-5.74a5.5,5.5,0,0,0-.455-2.374,4.6,4.6,0,0,0-1.2-1.568,7.6,7.6,0,0,0-1.694-1.064,20.24,20.24,0,0,0-1.926-.765c-.669-.226-1.291-.456-1.848-.683a4.921,4.921,0,0,1-1.479-.893,2.061,2.061,0,0,1-.666-1.587,1.9,1.9,0,0,1,.9-1.666,3.819,3.819,0,0,1,2.091-.514,5.114,5.114,0,0,1,2.279.5,6.745,6.745,0,0,1,1.583,1.119l2.157-2.136a7.517,7.517,0,0,0-2.336-1.518,9.2,9.2,0,0,0-3.6-.689,8.486,8.486,0,0,0-3.412.644,5.075,5.075,0,0,0-2.235,1.822,5.035,5.035,0,0,0-.8,2.858,5.061,5.061,0,0,0,.45,2.28,4.456,4.456,0,0,0,1.2,1.487,7.779,7.779,0,0,0,1.7,1.026c.637.282,1.286.535,1.932.753.674.228,1.3.469,1.862.716a4.835,4.835,0,0,1,1.482.972,2.27,2.27,0,0,1,.65,1.67,2.092,2.092,0,0,1-1,1.818,4.442,4.442,0,0,1-2.444.586,6.314,6.314,0,0,1-2.932-.658,7.534,7.534,0,0,1-1.9-1.419ZM144.812.5h-15.2V-20.268h15.056v4.78h-9.66v3.06h8.82V-7.76h-8.82v3.452h9.8Zm-9.8-1h8.8V-3.308h-8.8Zm-1.036,0h.036V-3.308h-.036Zm-3.36,0h2.36V-4.308h1.036V-7.76h-1.036v-4.668h1.036v-3.06h-1.036v-3.78h-2.36Zm4.4-8.26h7.82v-2.668h-7.82Zm-1.036,0h.036v-2.668h-.036Zm1.036-7.728h8.66v-2.78h-8.66Zm-1.036,0h.036v-2.78h-.036ZM120.088.5h-5.4V-20.268h5.4Zm-4.4-1h3.4V-19.268h-3.4ZM98.79.5H94.325l-8-20.768h5.783L96.6-7.883l4.555-12.385h5.728Zm-3.779-1h3.095l7.31-18.768h-3.568L97.125-6.424h0l1.14,3.144H94.9l1.157-3.147L91.405-19.268H87.78Zm1.325-3.78h.5l-.249-.688ZM50.032.5h-5.4V-9.226l-3.511,5.47H37.666l-3.51-5.5V.5H28.788V-20.268H32.7L39.408-9.816l6.686-10.452h3.938Zm-4.4-1h3.4V-19.268h-2.39L40-8.89l1.121,1.746H37.7l1.116-1.745h0L32.151-19.268H29.788V-.5h3.368V-10.822l-1.048-1.642,2.048-.531v1.881l4.058,6.358h2.365l4.057-6.321v-1.911l2.081.52-1.081,1.684ZM8.7.5H-5.456V-20.268h5.4v15.9H8.7ZM-.06-.5H7.7V-3.364H-.06Zm-1.008,0h.008V-3.364h-.008Zm-3.388,0h2.388V-4.364H-1.06v-14.9h-3.4Zm-8.587,1h-5.732l-1.3-3.584H-27.12L-28.435.5h-5.649l8.237-20.768h4.656Zm-5.03-1h3.564l-7.364-18.768h-3.3L-32.612-.5h3.479l.948-2.584H-29.4V-7.668H-26.5l2.4-6.551-.973-2.689h3.025l-.988,2.691,2.369,6.549h3.05v4.584h-1.392Zm-1.3-3.584h.754V-6.668H-20.3Zm-7.383,0h6.32l-.935-2.584H-25.8l-.948,2.584Zm-1.643,0h.578l.948-2.584H-28.4Zm2.958-3.584h3.708l-1.841-5.089ZM-41.892.5h-5.4V-20.268h5.4Zm-4.4-1h3.4V-19.268h-3.4ZM-81.68.5h-15.2V-20.268H-81.82v4.78h-9.66v3.06h8.82V-7.76h-8.82v3.452h9.8Zm-9.8-1h8.8V-3.308h-8.8Zm-1.036,0h.036V-3.308h-.036Zm-3.36,0h2.36V-4.308h1.036V-7.76h-1.036v-4.668h1.036v-3.06h-1.036v-3.78h-2.36Zm4.4-8.26h7.82v-2.668h-7.82Zm-1.036,0h.036v-2.668h-.036Zm1.036-7.728h8.66v-2.78h-8.66Zm-1.036,0h.036v-2.78h-.036ZM-115.588.5h-5.4V-20.268h8.76a8,8,0,0,1,3.612.809,6.366,6.366,0,0,1,2.595,2.353,6.711,6.711,0,0,1,.958,3.611,6.711,6.711,0,0,1-.958,3.611,6.464,6.464,0,0,1-2.591,2.365,7.886,7.886,0,0,1-3.615.824h-3.364Zm-4.4-1h3.4V-6.7h-1.036v-4.416h1.036v-4.74h-1.036v-3.416h-2.36Zm4.4-7.2h3.364a6.9,6.9,0,0,0,3.161-.716,5.478,5.478,0,0,0,2.2-2,5.73,5.73,0,0,0,.806-3.081,5.73,5.73,0,0,0-.806-3.081,5.379,5.379,0,0,0-2.193-1.987,7.01,7.01,0,0,0-3.164-.7h-3.364v2.416h2.72a3.782,3.782,0,0,1,1.708.389,3.07,3.07,0,0,1,1.268,1.167,3.41,3.41,0,0,1,.465,1.8,3.465,3.465,0,0,1-.465,1.828A3.07,3.07,0,0,1-111.16-10.5a3.782,3.782,0,0,1-1.708.389h-2.72Zm-1.036,0h.036v-2.416h-.036Zm1.036-3.416h2.72a2.791,2.791,0,0,0,1.26-.283,2.056,2.056,0,0,0,.86-.793,2.487,2.487,0,0,0,.319-1.308,2.429,2.429,0,0,0-.319-1.28,2.056,2.056,0,0,0-.86-.793,2.791,2.791,0,0,0-1.26-.283h-2.72Zm-1.036-5.74h.036v-2.416h-.036ZM69.412-3.168a6.811,6.811,0,0,1-2.6-.485,5.735,5.735,0,0,1-2.038-1.4,6.28,6.28,0,0,1-1.294-2.143,7.9,7.9,0,0,1-.45-2.72,7.444,7.444,0,0,1,.785-3.495,5.784,5.784,0,0,1,2.25-2.356,6.584,6.584,0,0,1,3.344-.837,6.882,6.882,0,0,1,2.581.47,5.745,5.745,0,0,1,2.038,1.38,6.194,6.194,0,0,1,1.31,2.131,7.782,7.782,0,0,1,.451,2.708,7.553,7.553,0,0,1-.783,3.491,5.836,5.836,0,0,1-2.249,2.4A6.5,6.5,0,0,1,69.412-3.168Zm0-12.432a5.6,5.6,0,0,0-2.843.7A4.8,4.8,0,0,0,64.7-12.941a6.461,6.461,0,0,0-.671,3.03,6.907,6.907,0,0,0,.39,2.376,5.287,5.287,0,0,0,1.086,1.8,4.743,4.743,0,0,0,1.686,1.152,5.819,5.819,0,0,0,2.218.411,5.514,5.514,0,0,0,2.84-.715,4.851,4.851,0,0,0,1.867-2,6.567,6.567,0,0,0,.673-3.033,6.79,6.79,0,0,0-.389-2.36,5.2,5.2,0,0,0-1.1-1.789,4.752,4.752,0,0,0-1.686-1.14A5.89,5.89,0,0,0,69.412-15.6Z" transform="translate(187.5 5114.399)" fill="rgba(0,0,0,0)"/></g></svg>