<svg xmlns="http://www.w3.org/2000/svg" width="30" height="30" viewBox="0 0 30 30"><g transform="translate(-217.508 -288.438)"><path d="M247.476,317.264H237.227a4.811,4.811,0,0,0-9.438,0H217.54c-.019.31-.032.621-.032.936s.013.626.032.936h10.249a4.811,4.811,0,0,0,9.438,0h10.249c.019-.31.032-.621.032-.936S247.5,317.574,247.476,317.264Zm-12.183,1.871a2.9,2.9,0,1,1,.155-.936A2.943,2.943,0,0,1,235.293,319.136Zm-2.785,5.479a6.431,6.431,0,0,1-5.891-3.875h-8.88a14.985,14.985,0,0,0,29.541,0H238.4A6.432,6.432,0,0,1,232.508,324.615Zm12.727-2.272a13.381,13.381,0,0,1-25.455,0h5.862a8.019,8.019,0,0,0,13.731,0Z" transform="translate(0 -14.762)" fill="#221f1c"/><path d="M232.841,297.024a6.431,6.431,0,0,1,5.891,3.875h8.879a14.985,14.985,0,0,0-29.541,0h8.879A6.432,6.432,0,0,1,232.841,297.024Z" transform="translate(-0.333)" fill="#fc151d"/></g></svg>