<svg xmlns="http://www.w3.org/2000/svg" width="343.43" height="266.818" viewBox="0 0 343.43 266.818"><g transform="translate(-15 -333.779)"><g transform="translate(10.908 -63.221)"><g transform="translate(56.517 521.323)"><path d="M1682.039,2005.008l-6.149-6.134H1659.6v26.311h16.289l6.149-6.135Zm-7.3,11.125-2.015,2.01H1666.9v-12.225h5.827l2.015,2.009Z" transform="translate(-1577.053 -1938.49)" fill="#fff"/><path d="M1622.644,2025.185h8.717l-5.563-8.065,4.732-4.72v-7.392l-6.15-6.134h-16.289v26.31h7.188v-6.647h2.781Zm-7.255-19.268h5.828l2.014,2.009v1.559l-2.014,2.009h-5.828Z" transform="translate(-1553.125 -1938.49)" fill="#fff"/><path d="M1527.875,1998.874h-16.291l-6.151,6.134v14.041l6.151,6.136h16.291v-7.043h-13.127l-2.014-2.009v-8.208l2.014-2.009h13.127Z" transform="translate(-1505.431 -1938.49)" fill="#fff"/><path d="M1579.2,2025.184v-20.176l-6.149-6.134h-10.14l-6.151,6.134v20.176h7.3v-6.648h7.841v6.648Zm-15.14-13.691v-3.568l2.014-2.009h3.813l2.014,2.009v3.568Z" transform="translate(-1529.278 -1938.49)" fill="#fff"/><path d="M1864.905,2025.185v-20.177l-6.149-6.134H1841.6l-6.151,6.134v20.177h7.3v-19.3h3.836v19.294h7.189v-19.294h3.836v19.3Z" transform="translate(-1658.747 -1938.49)" fill="#fff"/><path d="M1899.885,2025.183h18.252v-7.074h-11.062v-3.734h11.062v-4.693h-11.062v-3.76h11.062v-7.049h-18.252Z" transform="translate(-1688.684 -1938.49)" fill="#fff"/><path d="M1755.229,1998.874h-16.29l-6.151,6.134v14.041l6.151,6.136h16.29v-15.663H1743.71v5.014h4.33v3.605H1742.1l-2.013-2.009v-8.208l2.013-2.009h13.127Z" transform="translate(-1611.056 -1938.49)" fill="#fff"/><path d="M1806.555,2025.184v-20.176l-6.149-6.134h-10.141l-6.149,6.134v20.176h7.3v-6.648h7.84v6.648Zm-15.14-13.691v-3.568l2.014-2.009h3.813l2.013,2.009v3.568Z" transform="translate(-1634.901 -1938.49)" fill="#fff"/><path d="M1594.9,1914.243l-7.459-7.439h-12.3l-7.457,7.439v17.029l7.457,7.442h12.3l7.458-7.442Zm-8.853,13.493-2.443,2.436h-4.625l-2.442-2.436v-9.955l2.442-2.436h4.625l2.443,2.436Z" transform="translate(-1534.352 -1895.718)" fill="#fff"/><path d="M1848.1,1914.24l-7.458-7.437h-12.3l-7.458,7.438v17.031l7.458,7.44h12.3l7.457-7.44Zm-8.853,13.493-2.443,2.438h-4.623l-2.443-2.438v-9.953l2.442-2.437h4.624l2.442,2.437Z" transform="translate(-1651.982 -1895.717)" fill="#fff"/><path d="M1532.648,1923.208v-8.965l-7.458-7.439h-19.756v31.908h8.719v-8.062h11.038Zm-8.853-3.536-2.443,2.437h-7.067v-6.763h7.067l2.443,2.436Z" transform="translate(-1505.434 -1895.718)" fill="#fff"/><path d="M1778.466,1938.714v-24.471l-7.458-7.438H1750.2l-7.459,7.438v24.471h8.853v-23.4h4.652v23.4h8.719v-23.4h4.653v23.4Z" transform="translate(-1615.675 -1895.718)" fill="#fff"/><path d="M1656.853,1906.806h-10.57l-7.631,11.067V1906.8h-8.719v31.908h8.719v-11.065l7.631,11.067h10.57l-11-15.955Z" transform="translate(-1563.271 -1895.718)" fill="#fff"/><path d="M1910.357,1938.712l0-31.909h-8.718v15.636L1892,1906.81l-8.861-.007v31.909h8.718v-15.628l9.632,15.628Z" transform="translate(-1680.906 -1895.717)" fill="#fff"/><path d="M1708.262,1886.1l-4.115,6.466h6.157l4.116-6.466Z" transform="translate(-1597.75 -1886.098)" fill="#fff"/><path d="M1712.108,1915.352V1906.8h-22.136v31.908h22.136v-8.58h-13.416V1925.6h13.416v-5.691h-13.416v-4.561Z" transform="translate(-1591.163 -1895.718)" fill="#fff"/></g><g transform="translate(154.794 481.679)"><rect width="3.486" height="41.086" transform="translate(0 2.465) rotate(-45)" fill="#fff"/><rect width="41.086" height="3.486" transform="translate(0 29.051) rotate(-44.996)" fill="#fff"/></g><g transform="translate(53.092 397)"><path d="M843.988,1936.092a.228.228,0,0,1,.257-.262h1.791c.041,0,.077,0,.11,0a.2.2,0,0,1,.091.016.286.286,0,0,1,.089.071,1.186,1.186,0,0,1,.106.178l2.07,3.491.379.786-.067-.786v-3.491a.3.3,0,0,1,.062-.185.244.244,0,0,1,.194-.077h1.753a.35.35,0,0,1,.159.046c.057.029.084.1.084.2v8.186c0,.169-.091.254-.279.254h-1.48a.419.419,0,0,1-.23-.065.47.47,0,0,1-.171-.189l-2.388-3.889-.348-.672.08.666v3.895a.226.226,0,0,1-.258.254h-1.747a.225.225,0,0,1-.257-.254Z" transform="translate(-842.306 -1912.707)" fill="#fff"/><path d="M890.672,1944.266c.061.17.01.255-.152.255h-1.887a.394.394,0,0,1-.222-.061.327.327,0,0,1-.128-.194l-.225-.891h-2.534l-.219.891a.333.333,0,0,1-.128.194.382.382,0,0,1-.214.061H883.07q-.244,0-.152-.255l2.578-8.172a.335.335,0,0,1,.34-.263h1.918a.337.337,0,0,1,.342.263Zm-4.629-2.981h1.5l-.56-2.247-.189-1.06-.194,1.06Z" transform="translate(-862.489 -1912.71)" fill="#fff"/><path d="M927.593,1939.5l2.73,4.745a.231.231,0,0,1,.042.2c-.02.052-.069.077-.145.077h-2.14a.386.386,0,0,1-.354-.25l-1.582-2.863-.586.731v2.127a.224.224,0,0,1-.082.19.331.331,0,0,1-.211.065H923.56a.226.226,0,0,1-.255-.255V1936.1a.228.228,0,0,1,.255-.261h1.767a.217.217,0,0,1,.18.066.332.332,0,0,1,.051.2v2.986l1.944-3.053a.361.361,0,0,1,.18-.17.912.912,0,0,1,.228-.024h2.011a.118.118,0,0,1,.094.036.179.179,0,0,1,.043.087.236.236,0,0,1-.007.11.306.306,0,0,1-.044.1Z" transform="translate(-883.458 -1912.712)" fill="#fff"/><path d="M968.243,1944.266q.092.255-.151.255H966.2a.388.388,0,0,1-.22-.061.324.324,0,0,1-.127-.194l-.225-.891H963.1l-.219.891a.329.329,0,0,1-.127.194.385.385,0,0,1-.215.061h-1.894q-.244,0-.153-.255l2.578-8.172a.334.334,0,0,1,.34-.263h1.919a.338.338,0,0,1,.341.263Zm-4.629-2.981h1.5l-.562-2.247-.188-1.06-.194,1.06Z" transform="translate(-902.738 -1912.71)" fill="#fff"/><path d="M1001.257,1936.092a.228.228,0,0,1,.256-.262h1.79c.041,0,.078,0,.11,0a.205.205,0,0,1,.091.016.264.264,0,0,1,.089.071,1.191,1.191,0,0,1,.106.178l2.07,3.491.378.786-.066-.786v-3.491a.3.3,0,0,1,.064-.185.24.24,0,0,1,.193-.077h1.754a.348.348,0,0,1,.159.046c.057.029.084.1.084.2v8.186c0,.169-.092.254-.279.254h-1.48a.419.419,0,0,1-.231-.065.481.481,0,0,1-.172-.189l-2.387-3.889-.348-.672.08.666v3.895a.226.226,0,0,1-.258.254h-1.746a.225.225,0,0,1-.256-.254Z" transform="translate(-923.904 -1912.707)" fill="#fff"/><path d="M1042.117,1938.8a3.3,3.3,0,0,1,.28-1.375,3.2,3.2,0,0,1,.77-1.07,3.457,3.457,0,0,1,1.158-.695,4.284,4.284,0,0,1,2.87,0,3.5,3.5,0,0,1,1.16.695,3.162,3.162,0,0,1,.773,1.07,3.3,3.3,0,0,1,.281,1.375v2.334a3.268,3.268,0,0,1-.281,1.369,3.144,3.144,0,0,1-.773,1.066,3.509,3.509,0,0,1-1.157.692,4.276,4.276,0,0,1-2.873,0,3.461,3.461,0,0,1-1.158-.692,3.177,3.177,0,0,1-.77-1.066,3.3,3.3,0,0,1-.28-1.369Zm2.248,2.177a1.659,1.659,0,0,0,.1.591,1.305,1.305,0,0,0,.283.457,1.261,1.261,0,0,0,.442.3,1.452,1.452,0,0,0,.575.11,1.437,1.437,0,0,0,.573-.11,1.3,1.3,0,0,0,.721-.76,1.683,1.683,0,0,0,.1-.591v-2.03a1.656,1.656,0,0,0-.1-.585,1.33,1.33,0,0,0-.277-.463,1.264,1.264,0,0,0-.443-.3,1.563,1.563,0,0,0-1.151,0,1.237,1.237,0,0,0-.442.3,1.359,1.359,0,0,0-.283.463,1.622,1.622,0,0,0-.1.585Z" transform="translate(-945.104 -1912.494)" fill="#fff"/><path d="M1135.436,1936.1c0-.175.079-.261.237-.261h5.836c.163,0,.244.086.244.261v1.62q0,.262-.244.262h-1.79v6.288a.254.254,0,0,1-.067.192.261.261,0,0,1-.189.063h-1.779c-.146,0-.219-.084-.219-.255v-6.288h-1.792q-.236,0-.237-.262Z" transform="translate(-993.521 -1912.712)" fill="#fff"/><path d="M1173.621,1941.317l-2.469-5.22a.191.191,0,0,1-.013-.192.185.185,0,0,1,.166-.069h2.035a.323.323,0,0,1,.207.064.432.432,0,0,1,.128.2l.913,2.491.166.75.163-.75.9-2.491a.444.444,0,0,1,.128-.2.321.321,0,0,1,.208-.064h2.058a.179.179,0,0,1,.164.066c.028.045.021.105-.025.183l-2.473,5.263v2.919c0,.171-.078.256-.237.256h-1.778c-.159,0-.238-.085-.238-.256Z" transform="translate(-1012.037 -1912.712)" fill="#fff"/><path d="M1209.831,1936.1a.228.228,0,0,1,.255-.261h1.746a.229.229,0,0,1,.258.261v6.28h2.577c.159,0,.237.086.237.258v1.632c0,.171-.078.255-.237.255h-4.581a.225.225,0,0,1-.255-.255Z" transform="translate(-1032.123 -1912.712)" fill="#fff"/><path d="M1245.221,1936.1a.228.228,0,0,1,.256-.261h1.785a.183.183,0,0,1,.17.067.345.345,0,0,1,.042.194v8.17a.335.335,0,0,1-.042.192.189.189,0,0,1-.17.063h-1.785a.225.225,0,0,1-.256-.255Z" transform="translate(-1050.484 -1912.712)" fill="#fff"/><path d="M1274.987,1936.092a.228.228,0,0,1,.256-.262h1.792c.041,0,.077,0,.109,0a.206.206,0,0,1,.092.016.264.264,0,0,1,.088.071,1.026,1.026,0,0,1,.106.178l2.07,3.491.379.786-.067-.786v-3.491a.294.294,0,0,1,.063-.185.237.237,0,0,1,.193-.077h1.755a.358.358,0,0,1,.159.044c.056.03.085.1.085.2v8.183c0,.171-.094.255-.28.255h-1.481a.426.426,0,0,1-.232-.062.468.468,0,0,1-.169-.193l-2.389-3.885-.346-.672.079.666v3.891a.225.225,0,0,1-.255.255h-1.749a.225.225,0,0,1-.256-.255Z" transform="translate(-1065.929 -1912.707)" fill="#fff"/><path d="M1318.85,1941.673a2.45,2.45,0,0,1-.136.813,2.727,2.727,0,0,1-.368.7,2.941,2.941,0,0,1-.545.561,3.471,3.471,0,0,1-.665.418,3.519,3.519,0,0,1-.73.259,3.3,3.3,0,0,1-.738.087,4.042,4.042,0,0,1-1.432-.247,3.364,3.364,0,0,1-1.136-.691,3.112,3.112,0,0,1-.748-1.066,3.377,3.377,0,0,1-.272-1.371v-2.271a3.475,3.475,0,0,1,.272-1.39,3.252,3.252,0,0,1,.748-1.091,3.437,3.437,0,0,1,1.136-.713,3.92,3.92,0,0,1,1.426-.255,3.658,3.658,0,0,1,.911.11,3.242,3.242,0,0,1,.82.327,3.136,3.136,0,0,1,.7.552,3.474,3.474,0,0,1,.555.782.454.454,0,0,1,.068.275.164.164,0,0,1-.1.145l-1.261.62-.107.038a.586.586,0,0,1-.114.022.285.285,0,0,1-.1-.019.186.186,0,0,1-.079-.077,1.4,1.4,0,0,0-.5-.53,1.277,1.277,0,0,0-.664-.177,1.545,1.545,0,0,0-.582.109,1.387,1.387,0,0,0-.765.769,1.564,1.564,0,0,0-.11.586v2.027a1.585,1.585,0,0,0,.107.591,1.379,1.379,0,0,0,.286.46,1.339,1.339,0,0,0,.424.3,1.242,1.242,0,0,0,.517.109,1.329,1.329,0,0,0,.81-.218.871.871,0,0,0,.348-.586h-.767c-.16,0-.239-.085-.239-.256v-1.558c0-.171.079-.257.239-.257h2.533a.228.228,0,0,1,.257.257Z" transform="translate(-1085.175 -1912.494)" fill="#fff"/><path d="M1099.2,1942.751a1.044,1.044,0,0,1-.119-.322c-.015-.094.038-.168.155-.22l1.365-.743a.246.246,0,0,1,.2-.01.421.421,0,0,1,.183.2,1.285,1.285,0,0,0,.216.286,1.734,1.734,0,0,0,.314.251,1.692,1.692,0,0,0,.378.184,1.267,1.267,0,0,0,.408.071,1.185,1.185,0,0,0,.633-.15.486.486,0,0,0,.243-.441.523.523,0,0,0-.124-.346,1.429,1.429,0,0,0-.368-.295,6.543,6.543,0,0,0-.6-.311c-.24-.109-.515-.241-.822-.4a4.785,4.785,0,0,1-.932-.569,2.747,2.747,0,0,1-.576-.617,2.073,2.073,0,0,1-.293-.672,3.269,3.269,0,0,1-.082-.749,2.291,2.291,0,0,1,.822-1.792,2.849,2.849,0,0,1,.932-.511,3.685,3.685,0,0,1,1.194-.182,4.711,4.711,0,0,1,.836.076,3.273,3.273,0,0,1,.809.26,3.078,3.078,0,0,1,.735.488,2.913,2.913,0,0,1,.6.761.823.823,0,0,1,.117.328.2.2,0,0,1-.153.213l-1.193.6a.4.4,0,0,1-.26.04.452.452,0,0,1-.223-.188,1.138,1.138,0,0,0-.479-.382,1.613,1.613,0,0,0-.643-.128,1.98,1.98,0,0,0-.338.028.94.94,0,0,0-.268.087.484.484,0,0,0-.18.149.348.348,0,0,0-.066.213.479.479,0,0,0,.042.2.588.588,0,0,0,.153.194,1.524,1.524,0,0,0,.3.209,4.809,4.809,0,0,0,.481.228,11.437,11.437,0,0,1,1.188.567,4.086,4.086,0,0,1,.89.648,2.508,2.508,0,0,1,.557.8,2.536,2.536,0,0,1,.192,1.016,2.593,2.593,0,0,1-.229,1.094,2.478,2.478,0,0,1-.643.851,2.963,2.963,0,0,1-.987.555,4.025,4.025,0,0,1-2.263.067,3.548,3.548,0,0,1-.88-.367,3.266,3.266,0,0,1-.713-.554,3.042,3.042,0,0,1-.511-.707" transform="translate(-974.657 -1912.494)" fill="#fff"/><path d="M851.129,2020.406c-.227,0-.458-.068-.458-.56v-17.967h-5.233c-.358,0-.51-.172-.51-.578v-4.587c0-.408.152-.581.51-.581h16.524c.371,0,.528.173.528.581v4.587c0,.406-.158.578-.528.578h-5.232v17.967a.552.552,0,0,1-.14.422.589.589,0,0,1-.423.138Z" transform="translate(-842.793 -1943.998)" fill="#fff"/><path d="M961.726,2020.406a.925.925,0,0,1-.529-.145.757.757,0,0,1-.3-.458l-.668-2.641H952.8l-.651,2.646a.776.776,0,0,1-.294.453.912.912,0,0,1-.515.145h-5.363c-.111,0-.255-.017-.31-.092s-.039-.219.032-.416l7.3-23.136a.782.782,0,0,1,.81-.628h5.432a.785.785,0,0,1,.811.63l7.3,23.129c.073.2.083.351.031.421s-.195.092-.305.092Zm-5.919-15.39-1.617,6.555h4.658l-1.639-6.565-.69-3.875Z" transform="translate(-895.045 -1943.998)" fill="#fff"/><path d="M1074.947,2020.4a1.06,1.06,0,0,1-.571-.158,1.206,1.206,0,0,1-.426-.477l-6.765-11.016-1.39-2.683.333,2.771v11c0,.392-.169.56-.564.56h-4.953c-.391,0-.559-.168-.559-.56v-23.132c0-.407.167-.581.559-.581h5.073c.119,0,.226,0,.32-.007h.011a.46.46,0,0,1,.177.03.571.571,0,0,1,.189.16,2.94,2.94,0,0,1,.282.47l5.867,9.892,1.447,3.013-.266-3.108v-9.869a.633.633,0,0,1,.145-.414.507.507,0,0,1,.419-.167h4.965a.806.806,0,0,1,.374.113c.1.053.154.2.154.433v23.167c0,.392-.188.56-.63.56Z" transform="translate(-954.409 -1943.99)" fill="#fff"/><path d="M1181.234,2020.406c-.226,0-.458-.068-.458-.56v-17.967h-5.234c-.357,0-.511-.172-.511-.578v-4.587c0-.408.154-.581.511-.581h16.523c.371,0,.529.173.529.581v4.587c0,.406-.159.578-.529.578h-5.229v17.967a.553.553,0,0,1-.141.422.591.591,0,0,1-.423.138Z" transform="translate(-1014.065 -1943.998)" fill="#fff"/><path d="M1293.309,2020.382a11.579,11.579,0,0,1-4.026-.688,9.846,9.846,0,0,1-3.221-1.926,8.828,8.828,0,0,1-2.142-2.965,9.188,9.188,0,0,1-.781-3.815v-6.608a9.223,9.223,0,0,1,.779-3.827,8.947,8.947,0,0,1,2.144-2.975,9.767,9.767,0,0,1,3.223-1.935,12.04,12.04,0,0,1,8.014,0,9.86,9.86,0,0,1,3.232,1.935,8.948,8.948,0,0,1,2.151,2.981,9.275,9.275,0,0,1,.78,3.821v6.608a9.226,9.226,0,0,1-.78,3.815,8.865,8.865,0,0,1-2.151,2.965,9.973,9.973,0,0,1-3.227,1.926,11.415,11.415,0,0,1-3.994.688m0-19.888a4.276,4.276,0,0,0-1.7.325,3.823,3.823,0,0,0-1.3.9,4.155,4.155,0,0,0-.837,1.367,4.929,4.929,0,0,0-.294,1.712v5.746a4.97,4.97,0,0,0,.294,1.727,3.97,3.97,0,0,0,.839,1.359,3.812,3.812,0,0,0,1.3.889,4.564,4.564,0,0,0,3.38,0,3.91,3.91,0,0,0,1.3-.889,3.994,3.994,0,0,0,.834-1.359,4.876,4.876,0,0,0,.294-1.727V2004.8a4.986,4.986,0,0,0-.284-1.712,3.987,3.987,0,0,0-.825-1.367,3.837,3.837,0,0,0-1.307-.9,4.278,4.278,0,0,0-1.692-.325" transform="translate(-1070.159 -1943.387)" fill="#fff"/><rect width="235.379" height="16.19" transform="translate(0 0.438)" fill="#fff"/><path d="M857.557,1905.314a25.8,25.8,0,0,0-4.446-4.636,23.33,23.33,0,0,1-7.612,4.766l-1.6-1.688a21.632,21.632,0,0,0,7.046-4.005,17.381,17.381,0,0,0,4.113-5.062h-7.829l.264-2.151h8.856a2.326,2.326,0,0,0,1.119-.407l1.389,1.575a3.219,3.219,0,0,0-1.246,1.113,25.57,25.57,0,0,1-2.892,4.154,33.127,33.127,0,0,1,4.884,4.579Z" transform="translate(-842.257 -1890.036)" fill="#231815"/><path d="M909.771,1894.69a20.757,20.757,0,0,1-2.909,4.45c.466.389.912.779,1.554,1.409l-1.716,1.594c-.313-.3-.658-.667-1.437-1.354a23.65,23.65,0,0,1-7.068,4.524l-1.636-1.743a18.154,18.154,0,0,0,7.116-4.079,22.789,22.789,0,0,0-3.152-1.947l1.424-1.391a16.6,16.6,0,0,1,3.278,1.762,11.739,11.739,0,0,0,2.27-3.431h-5.261a21.487,21.487,0,0,1-4.181,3.764l-1.754-1.28a18.2,18.2,0,0,0,6.644-7.269l2.188.594c.119.037.393.148.377.278-.014.111-.208.186-.509.3-.3.445-.78,1.168-1.268,1.8h4.727a2.882,2.882,0,0,0,.979-.445l1.346,1.427A2.987,2.987,0,0,0,909.771,1894.69Z" transform="translate(-869.445 -1888.775)" fill="#231815"/><path d="M958.161,1891.8c-.31.019-.356.056-.678.334a30.413,30.413,0,0,1-3.745,2.892l-1.211,9.883h-2.569l1-8.159a44.021,44.021,0,0,1-5.5,2.633l-1.585-1.65a37.628,37.628,0,0,0,12.884-7.881l1.624,1.336c.075.056.313.3.294.445C958.659,1891.766,958.576,1891.785,958.161,1891.8Z" transform="translate(-894.13 -1888.855)" fill="#231815"/><path d="M1000.795,1891.136c-.333.2-.356.223-.363.279l-.959,7.824h-2.446l1.072-8.752,2.423.186c.162.019.53.037.509.2C1001.021,1890.969,1000.885,1891.062,1000.795,1891.136Zm8.544-.129c-.3.24-.3.3-.367.815-.041.167-.1,1-.125,1.187-.443,3.615-.664,5.081-1.542,6.879-1.615,3.282-4.454,4.654-6.712,5.637l-1.567-1.8c4.4-1.5,6.379-3.264,7.065-8.864.055-.445.33-3.022.409-4.505l2.614.13c.1,0,.512.019.484.241C1009.592,1890.784,1009.562,1890.858,1009.338,1891.007Z" transform="translate(-921.709 -1889.116)" fill="#231815"/><path d="M1052.647,1900.714a32.99,32.99,0,0,1-8.254,4.135c-.135.259-.215.575-.379.575-.123,0-.295-.111-.409-.352l-1.166-2.225a22.966,22.966,0,0,0,8.017-3.208,32.564,32.564,0,0,0,6.716-5.674l1.19,1.855A32.752,32.752,0,0,1,1052.647,1900.714Zm-5.4-5.043a16.2,16.2,0,0,0-3.927-2.336l1.467-1.743a16.893,16.893,0,0,1,4.034,2.3Z" transform="translate(-945.271 -1889.756)" fill="#231815"/><path d="M1105.541,1893.821a21.983,21.983,0,0,1-4.212,5.859,24.464,24.464,0,0,1-6.171,4.413l-2.083-1.446a20.732,20.732,0,0,0,7.2-4.914,16.968,16.968,0,0,0,3.2-4.654h-5.26a31.52,31.52,0,0,1-4.445,4.08l-1.873-1.317a19.956,19.956,0,0,0,6.734-7.157l1.952.835c.156.074.507.222.487.389-.014.112-.141.149-.5.26-.256.241-.561.723-.824,1.02h4.6a1.971,1.971,0,0,0,.917-.278l1.5,1.817A3.3,3.3,0,0,0,1105.541,1893.821Zm-.6-3.486a6.7,6.7,0,0,0-1.6-1.539l1.161-.76a6.576,6.576,0,0,1,1.578,1.539Zm2.939,0a7.17,7.17,0,0,0-1.608-1.8l1.141-.761a6.966,6.966,0,0,1,1.608,1.8Z" transform="translate(-970.93 -1887.776)" fill="#231815"/><path d="M1142.279,1904.85l-1.925.279a17.632,17.632,0,0,1-.076-5.747,34.3,34.3,0,0,1,2.317-8.678l1.907.7c.059.018.47.186.448.371a.183.183,0,0,1-.1.13,4.114,4.114,0,0,1-.409.149,5.622,5.622,0,0,0-.607,1.26,45.824,45.824,0,0,0-1.464,5.748,16.485,16.485,0,0,0-.136,1.947l.979-1.112,1.2.8A17.505,17.505,0,0,0,1142.279,1904.85Zm12.269-.686a9.243,9.243,0,0,0-1.978-1.464c-.217,1.428-.745,2.392-3.539,2.392-.6,0-4.049,0-3.721-2.67.2-1.669,1.916-2.392,3.909-2.392.411,0,.838.037,1.245.075.106-2.207.14-2.986.253-4.246a25.646,25.646,0,0,1-3.738.148l.214-1.91a11.488,11.488,0,0,0,1.836.112,18.28,18.28,0,0,0,1.924-.112c.212-1.39.237-1.595.5-3.43l2.26.334c.425.055.475.148.462.26-.012.093-.208.185-.427.3a20.713,20.713,0,0,0-.57,2.3,10.627,10.627,0,0,0,2.641-.761l-.245,2a22.62,22.62,0,0,1-2.633.519,41.306,41.306,0,0,0-.321,4.969,14.782,14.782,0,0,1,3.321,1.743Zm-5.616-2.465c-.966,0-1.662.314-1.714.741s.5.816,1.709.816c1.356,0,1.367-.427,1.444-1.391A7.463,7.463,0,0,0,1148.933,1901.7Z" transform="translate(-995.931 -1889.275)" fill="#231815"/><path d="M1189.631,1896.46l.743-6.061h15.432l-.743,6.061Zm9.926,9.048.068-.556h-6.617l-.086.7h-2.527l1.042-8.509h11.651l-1.024,8.36Zm3.263-11.366h-10.357l-.1.836h10.357Zm.277-2.262h-10.357l-.1.837h10.357Zm-3.193,10.792h-6.616l-.1.836h6.617Zm.252-2.058h-6.616l-.1.781h6.617Zm.248-2.022h-6.617l-.091.744h6.617Z" transform="translate(-1021.642 -1889.137)" fill="#231815"/><path d="M1250.845,1905.442a9.479,9.479,0,0,1-4.368-3.931,9.773,9.773,0,0,1-6.094,3.8l-1.235-1.836a7.193,7.193,0,0,0,5.8-2.911h-3.7l.109-.89a4.162,4.162,0,0,1-3.389,2.169l-.663-1.65-.614,5.007h-2.134l1.941-15.834h5.526l1.064,1.038c-.445.779-1.1,1.78-1.334,2.169a10.665,10.665,0,0,0,4.245-3.449l2.352.093c.735.036.724.129.713.222a.289.289,0,0,1-.1.185c1.4,1.65,4.109,2.689,4.972,3.022l-1.948,1.651c-.74-.334-.82-.352-1.361-.631l-.146,1.187h-2.263l-.12.983h4.192l-.579,4.729h-3.6a7.22,7.22,0,0,0,4.81,3Zm-12.437-14.222-1.06,8.64c1.116.112,1.868-.314,1.974-1.187a6.437,6.437,0,0,0-1.131-3.856l2.086-3.6Zm7.489,3.634h-2.344l.116-.945c-.351.185-.812.426-1.352.648l-1.042-1.223c-.461.741-.483.76-.917,1.446a7.888,7.888,0,0,1,1.224,3.1l.25-2.04h3.946Zm-.316,2.578h-1.79l-.189,1.539h1.791Zm1.795-6.434a18.323,18.323,0,0,1-2.766,2.281h5.384A11.078,11.078,0,0,1,1247.376,1891Zm2.563,6.434H1247.9l-.189,1.539h2.037Z" transform="translate(-1044.953 -1888.476)" fill="#231815"/><path d="M1293.7,1895.865a56.659,56.659,0,0,1-5.012,9.383l-2.209-.593a32.282,32.282,0,0,0,4.8-8.455s-1.441.186-1.608.2a9.538,9.538,0,0,1-1.246.11l.069-1.743a19.389,19.389,0,0,0,3.46-.222,17.936,17.936,0,0,0,1-3.653l2.258.52c.32.073.434.148.418.277-.009.075-.052.093-.408.316-.153.074-.16.13-.27.519-.031.092-.346.982-.556,1.52a12.642,12.642,0,0,0,3.175-1.094l-.248,2.021A22.712,22.712,0,0,1,1293.7,1895.865Zm3.5,9.346c-1.993,0-4.589-.111-4.281-2.633a4.853,4.853,0,0,1,.258-1.093l1.879.259a4.237,4.237,0,0,0-.168.7.522.522,0,0,0,.206.5,4.754,4.754,0,0,0,2.293.408,13.908,13.908,0,0,0,3.374-.371l.006,1.965A20.463,20.463,0,0,1,1297.2,1905.21Zm-1.355-6.712.218-1.779a30.963,30.963,0,0,1,3.434-.186,17.061,17.061,0,0,1,1.9.074l-.216,1.761A26.662,26.662,0,0,0,1295.841,1898.5Zm3.878-4.487a10.475,10.475,0,0,0-1.439-1.5l.954-.741a11.842,11.842,0,0,1,1.439,1.5Zm2.231-.928a9.473,9.473,0,0,0-1.366-1.428l.981-.8a9.6,9.6,0,0,1,1.384,1.447Z" transform="translate(-1071.891 -1889.375)" fill="#231815"/></g></g><g transform="translate(72 -48)"><path d="M62.679,1317.383a3,3,0,0,1-5.118-2.16,2.869,2.869,0,0,1,.939-2.193,2.947,2.947,0,0,1,2.071-.817,3.018,3.018,0,0,1,2.108,5.17Zm-3.876-3.9a2.5,2.5,0,0,0,1.768,4.252,2.376,2.376,0,0,0,1.752-.735,2.495,2.495,0,0,0,0-3.517,2.442,2.442,0,0,0-3.525,0Zm2.734,3.244a1.592,1.592,0,0,1-.893.285,1.636,1.636,0,0,1-1.186-.49,1.72,1.72,0,0,1-.5-1.286,1.926,1.926,0,0,1,.431-1.266,1.449,1.449,0,0,1,1.182-.522,1.668,1.668,0,0,1,.829.2,1.481,1.481,0,0,1,.711,1.118l-.768-.012a.673.673,0,0,0-.294-.5.752.752,0,0,0-.413-.12.675.675,0,0,0-.556.279,1.366,1.366,0,0,0-.216.842,1.153,1.153,0,0,0,.239.811.761.761,0,0,0,.574.253.605.605,0,0,0,.463-.167.8.8,0,0,0,.2-.42h.747A1.408,1.408,0,0,1,61.537,1316.722Z" transform="translate(-42.561 -694.867)" fill="#fff"/><path d="M73.347,1312.213h1.319l2.39,4.2v-4.2h1.172v6.02H76.97l-2.45-4.271v4.271H73.347Z" transform="translate(-49.35 -694.867)" fill="#fff"/><path d="M85.38,1312.213H86.8l2.13,6.02H87.569l-.4-1.237H84.955l-.408,1.237H83.231Zm-.083,3.745h1.542l-.761-2.369Z" transform="translate(-53.601 -694.867)" fill="#fff"/><path d="M94.614,1312.213h1.238v2.48l2.326-2.48H99.8l-2.471,2.476,2.6,3.544H98.312l-1.855-2.627-.606.614v2.013H94.614Z" transform="translate(-58.496 -694.867)" fill="#fff"/><path d="M106.576,1312.213H108l2.13,6.02h-1.364l-.4-1.237h-2.217l-.408,1.237h-1.316Zm-.083,3.745h1.541l-.76-2.369Z" transform="translate(-62.716 -694.867)" fill="#fff"/><path d="M115.739,1312.213h1.319l2.389,4.2v-4.2h1.172v6.02h-1.258l-2.45-4.271v4.271h-1.172Z" transform="translate(-67.581 -694.867)" fill="#fff"/><path d="M130.838,1317.559a3.119,3.119,0,0,1-3.945,0,3.247,3.247,0,0,1-.915-2.483,3.185,3.185,0,0,1,.915-2.483,3.122,3.122,0,0,1,3.945,0,3.2,3.2,0,0,1,.91,2.483A3.257,3.257,0,0,1,130.838,1317.559Zm-.787-.915a3.013,3.013,0,0,0,0-3.134,1.433,1.433,0,0,0-1.186-.553,1.454,1.454,0,0,0-1.193.551,2.985,2.985,0,0,0,0,3.136,1.455,1.455,0,0,0,1.193.552A1.436,1.436,0,0,0,130.052,1316.644Z" transform="translate(-71.984 -694.728)" fill="#fff"/><path d="M142.549,1316.242a1.221,1.221,0,0,0,.23.617,1.335,1.335,0,0,0,1.072.372,2.3,2.3,0,0,0,.738-.1.7.7,0,0,0,.538-.7.515.515,0,0,0-.263-.462,2.855,2.855,0,0,0-.836-.282l-.651-.143a4.074,4.074,0,0,1-1.321-.461,1.469,1.469,0,0,1-.608-1.3,1.731,1.731,0,0,1,.6-1.344,2.54,2.54,0,0,1,1.749-.535,2.679,2.679,0,0,1,1.643.5,1.792,1.792,0,0,1,.713,1.464h-1.209a.861.861,0,0,0-.486-.772,1.663,1.663,0,0,0-.749-.151,1.431,1.431,0,0,0-.8.2.621.621,0,0,0-.3.548.515.515,0,0,0,.293.482,3.652,3.652,0,0,0,.8.249l1.057.249a2.7,2.7,0,0,1,1.041.437,1.475,1.475,0,0,1,.538,1.229,1.729,1.729,0,0,1-.638,1.371,2.693,2.693,0,0,1-1.8.545,2.944,2.944,0,0,1-1.87-.537,1.778,1.778,0,0,1-.681-1.477Z" transform="translate(-78.595 -694.734)" fill="#fff"/><path d="M156.132,1313.279h-3.185v1.278h2.924v1.045h-2.924v1.548h3.332v1.082h-4.562v-6.02h4.415Z" transform="translate(-83.054 -694.867)" fill="#fff"/><path d="M162.511,1318.233h-1.249v-6.02h1.249Z" transform="translate(-87.158 -694.867)" fill="#fff"/><path d="M168.58,1312.213h1.425l-2.013,3.763v2.257h-1.258v-2.257l-2.083-3.763h1.483l1.249,2.622Z" transform="translate(-88.616 -694.867)" fill="#fff"/><path d="M175.358,1312.213h1.424l2.13,6.02h-1.364l-.4-1.237h-2.217l-.408,1.237h-1.316Zm-.083,3.745h1.542l-.76-2.369Z" transform="translate(-92.296 -694.867)" fill="#fff"/><path d="M184.593,1312.213h1.238v2.48l2.325-2.48h1.625l-2.47,2.476,2.6,3.544h-1.617l-1.855-2.627-.605.614v2.013h-1.238Z" transform="translate(-97.192 -694.867)" fill="#fff"/><path d="M195.155,1312.213h1.278v3.7a2.086,2.086,0,0,0,.146.906,1.223,1.223,0,0,0,1.982,0,2.1,2.1,0,0,0,.146-.906v-3.7h1.278v3.7a3.106,3.106,0,0,1-.3,1.5,2.779,2.779,0,0,1-4.236,0,3.113,3.113,0,0,1-.3-1.5Z" transform="translate(-101.734 -694.867)" fill="#fff"/><path d="M210.208,1312.755a2.806,2.806,0,0,1,4.048.254,2.16,2.16,0,0,1,.412,1.123h-1.257a1.727,1.727,0,0,0-.308-.654,1.242,1.242,0,0,0-1-.392,1.228,1.228,0,0,0-1.06.554,2.7,2.7,0,0,0-.388,1.566,2.374,2.374,0,0,0,.409,1.517,1.283,1.283,0,0,0,1.041.5,1.179,1.179,0,0,0,.987-.433,1.9,1.9,0,0,0,.312-.7h1.249a2.714,2.714,0,0,1-.826,1.6,2.407,2.407,0,0,1-1.7.617,2.554,2.554,0,0,1-2.02-.833,3.95,3.95,0,0,1,.1-4.726Z" transform="translate(-107.849 -694.78)" fill="#fff"/><path d="M224.894,1317.559a3.119,3.119,0,0,1-3.945,0,3.245,3.245,0,0,1-.915-2.483,3.183,3.183,0,0,1,.915-2.483,3.121,3.121,0,0,1,3.945,0,3.193,3.193,0,0,1,.911,2.483A3.255,3.255,0,0,1,224.894,1317.559Zm-.786-.915a3.017,3.017,0,0,0,0-3.134,1.433,1.433,0,0,0-1.186-.553,1.453,1.453,0,0,0-1.193.551,2.985,2.985,0,0,0,0,3.136,1.453,1.453,0,0,0,1.193.552A1.436,1.436,0,0,0,224.108,1316.644Z" transform="translate(-112.434 -694.728)" fill="#fff"/><path d="M231.643,1320.633h1.237v1.221h-1.237Z" transform="translate(-117.426 -698.488)" fill="#fff"/><path d="M235.648,1322.822a.911.911,0,0,0,.517-.327,1.2,1.2,0,0,0,.189-.641h-.706v-1.221h1.258v1.057a2.447,2.447,0,0,1-.074.58,1.178,1.178,0,0,1-.274.523,1.414,1.414,0,0,1-.508.358,1.311,1.311,0,0,1-.4.12Z" transform="translate(-119.149 -698.488)" fill="#fff"/><path d="M240,1312.213h1.258v4.937h3.005v1.082H240Z" transform="translate(-121.02 -694.867)" fill="#fff"/><path d="M251.874,1312.213v1.066h-1.8v4.954h-1.266v-4.954H247v-1.066Z" transform="translate(-124.03 -694.867)" fill="#fff"/><path d="M260.37,1312.344a1.989,1.989,0,0,1,1.026.764,2.681,2.681,0,0,1,.429.972,4.661,4.661,0,0,1,.115,1,4,4,0,0,1-.482,2.034,2.177,2.177,0,0,1-2.019,1.123h-2.6v-6.02h2.6A3.187,3.187,0,0,1,260.37,1312.344Zm-2.306.915v3.929h1.162a1.254,1.254,0,0,0,1.243-.878,3.092,3.092,0,0,0,.193-1.147,2.817,2.817,0,0,0-.288-1.411,1.217,1.217,0,0,0-1.147-.492Z" transform="translate(-128.264 -694.867)" fill="#fff"/><path d="M272.38,1312.213H273.8l2.129,6.02h-1.364l-.4-1.237h-2.216l-.408,1.237h-1.316Zm-.083,3.745h1.542l-.76-2.369Z" transform="translate(-134.021 -694.867)" fill="#fff"/><path d="M281.579,1312.213h1.258v4.937h3.006v1.082h-4.264Z" transform="translate(-138.902 -694.867)" fill="#fff"/><path d="M290.543,1312.213H291.8v4.937h3.005v1.082h-4.263Z" transform="translate(-142.757 -694.867)" fill="#fff"/><path d="M305.625,1314.78c.015,0,.048,0,.1.006v1.193c-.074-.008-.139-.014-.2-.016s-.1,0-.139,0a.966.966,0,0,0-.943.457,1.777,1.777,0,0,0-.135.793v2.128H303.14v-4.452h1.111v.776a2.46,2.46,0,0,1,.47-.609,1.278,1.278,0,0,1,.85-.273Z" transform="translate(-148.174 -695.97)" fill="#fff"/><path d="M310.081,1313.222H308.9v-1.074h1.18Zm-1.18.531h1.18v4.452H308.9Z" transform="translate(-150.652 -694.839)" fill="#fff"/><path d="M314.945,1314.88a1.394,1.394,0,0,1,.685.645v-.641h1.136v4.223a2.369,2.369,0,0,1-.29,1.3,2.135,2.135,0,0,1-1.912.751,2.6,2.6,0,0,1-1.392-.335,1.236,1.236,0,0,1-.6-1h1.266a.533.533,0,0,0,.159.295.987.987,0,0,0,.633.159.85.85,0,0,0,.841-.421,2.125,2.125,0,0,0,.139-.907v-.285a1.418,1.418,0,0,1-.36.428,1.448,1.448,0,0,1-.9.266,1.707,1.707,0,0,1-1.37-.6,2.434,2.434,0,0,1-.512-1.632,2.754,2.754,0,0,1,.493-1.668,1.629,1.629,0,0,1,1.4-.676A1.53,1.53,0,0,1,314.945,1314.88Zm.4,3.192a1.431,1.431,0,0,0,.28-.982,1.508,1.508,0,0,0-.266-.964.87.87,0,0,0-.714-.331.842.842,0,0,0-.842.576,2.054,2.054,0,0,0-.122.755,1.722,1.722,0,0,0,.13.69.848.848,0,0,0,.846.564A.893.893,0,0,0,315.342,1318.072Z" transform="translate(-152.187 -695.97)" fill="#fff"/><path d="M325.119,1313.822a1.3,1.3,0,0,1,.551.437,1.168,1.168,0,0,1,.224.513,6.31,6.31,0,0,1,.041.861v2.616h-1.188v-2.711a1.2,1.2,0,0,0-.121-.581.61.61,0,0,0-.6-.311.822.822,0,0,0-.7.309,1.421,1.421,0,0,0-.237.881v2.412h-1.164v-6h1.164v2.124a1.422,1.422,0,0,1,.584-.542,1.65,1.65,0,0,1,.7-.153A1.878,1.878,0,0,1,325.119,1313.822Z" transform="translate(-156.254 -694.882)" fill="#fff"/><path d="M330.075,1314.929v-.829h.621v-1.241h1.152v1.241h.723v.829h-.723v2.352a.528.528,0,0,0,.07.341.766.766,0,0,0,.424.067l.112,0,.117-.006v.869l-.551.021a1.481,1.481,0,0,1-1.127-.286.849.849,0,0,1-.2-.616v-2.74Z" transform="translate(-159.758 -695.144)" fill="#fff"/><path d="M336.457,1317.9a.782.782,0,0,0,.16.441,1.085,1.085,0,0,0,.8.232,1.23,1.23,0,0,0,.548-.1.327.327,0,0,0,.2-.306.332.332,0,0,0-.164-.3,6.7,6.7,0,0,0-1.218-.351,2.54,2.54,0,0,1-1.069-.469,1.02,1.02,0,0,1-.311-.8,1.387,1.387,0,0,1,.485-1.06,1.952,1.952,0,0,1,1.365-.443,2.512,2.512,0,0,1,1.361.332,1.426,1.426,0,0,1,.6,1.15h-1.164a.686.686,0,0,0-.127-.355.8.8,0,0,0-.655-.237.947.947,0,0,0-.543.118.342.342,0,0,0-.162.278.3.3,0,0,0,.173.29,7.411,7.411,0,0,0,1.215.323,2.228,2.228,0,0,1,1.043.494,1.121,1.121,0,0,1,.343.837,1.352,1.352,0,0,1-.493,1.081,2.321,2.321,0,0,1-1.524.418,2.294,2.294,0,0,1-1.553-.443,1.439,1.439,0,0,1-.5-1.129Z" transform="translate(-161.995 -695.955)" fill="#fff"/><path d="M350.467,1314.78c.015,0,.048,0,.1.006v1.193c-.074-.008-.139-.014-.2-.016s-.1,0-.139,0a.966.966,0,0,0-.943.457,1.777,1.777,0,0,0-.135.793v2.128h-1.172v-4.452h1.111v.776a2.458,2.458,0,0,1,.47-.609,1.278,1.278,0,0,1,.849-.273Z" transform="translate(-167.459 -695.97)" fill="#fff"/><path d="M356.35,1314.966a1.812,1.812,0,0,1,.769.658,2.181,2.181,0,0,1,.355.92,5.617,5.617,0,0,1,.039.884H354.27a1.068,1.068,0,0,0,.465.939,1.181,1.181,0,0,0,.642.168.987.987,0,0,0,.646-.2.973.973,0,0,0,.239-.307h1.189a1.456,1.456,0,0,1-.432.8,2.163,2.163,0,0,1-1.674.649,2.425,2.425,0,0,1-1.568-.548,2.158,2.158,0,0,1-.679-1.782,2.412,2.412,0,0,1,.613-1.774,2.147,2.147,0,0,1,1.591-.617A2.526,2.526,0,0,1,356.35,1314.966Zm-1.741,1a1.215,1.215,0,0,0-.311.69H356.3a.968.968,0,0,0-.31-.7,1.021,1.021,0,0,0-.691-.241A.923.923,0,0,0,354.609,1315.97Z" transform="translate(-169.659 -695.961)" fill="#fff"/><path d="M362.569,1317.9a.777.777,0,0,0,.16.441,1.083,1.083,0,0,0,.8.232,1.226,1.226,0,0,0,.548-.1.326.326,0,0,0,.2-.306.331.331,0,0,0-.164-.3,6.666,6.666,0,0,0-1.218-.351,2.537,2.537,0,0,1-1.069-.469,1.018,1.018,0,0,1-.311-.8,1.387,1.387,0,0,1,.485-1.06,1.95,1.95,0,0,1,1.365-.443,2.513,2.513,0,0,1,1.361.332,1.426,1.426,0,0,1,.6,1.15h-1.164a.686.686,0,0,0-.127-.355.8.8,0,0,0-.655-.237.945.945,0,0,0-.543.118.342.342,0,0,0-.162.278.3.3,0,0,0,.172.29,7.43,7.43,0,0,0,1.216.323,2.225,2.225,0,0,1,1.042.494,1.121,1.121,0,0,1,.343.837,1.352,1.352,0,0,1-.492,1.081,2.323,2.323,0,0,1-1.525.418,2.294,2.294,0,0,1-1.553-.443,1.437,1.437,0,0,1-.5-1.129Z" transform="translate(-173.225 -695.955)" fill="#fff"/><path d="M372.673,1314.966a1.811,1.811,0,0,1,.769.658,2.2,2.2,0,0,1,.354.92,5.62,5.62,0,0,1,.038.884h-3.242a1.069,1.069,0,0,0,.466.939,1.18,1.18,0,0,0,.642.168.9.9,0,0,0,.886-.51h1.188a1.455,1.455,0,0,1-.432.8,2.162,2.162,0,0,1-1.674.649,2.426,2.426,0,0,1-1.568-.548,2.158,2.158,0,0,1-.679-1.782,2.412,2.412,0,0,1,.613-1.774,2.148,2.148,0,0,1,1.592-.617A2.525,2.525,0,0,1,372.673,1314.966Zm-1.741,1a1.215,1.215,0,0,0-.31.69h2.006a.97.97,0,0,0-.311-.7,1.02,1.02,0,0,0-.69-.241A.925.925,0,0,0,370.932,1315.97Z" transform="translate(-176.679 -695.961)" fill="#fff"/><path d="M380.663,1314.78c.015,0,.048,0,.1.006v1.193c-.073-.008-.139-.014-.2-.016s-.1,0-.139,0a.966.966,0,0,0-.943.457,1.776,1.776,0,0,0-.135.793v2.128h-1.172v-4.452h1.111v.776a2.46,2.46,0,0,1,.47-.609,1.278,1.278,0,0,1,.849-.273Z" transform="translate(-180.445 -695.97)" fill="#fff"/><path d="M386.321,1314.964h1.25l-1.607,4.452h-1.227l-1.6-4.452h1.307l.927,3.284Z" transform="translate(-182.579 -696.05)" fill="#fff"/><path d="M394.708,1314.966a1.812,1.812,0,0,1,.769.658,2.18,2.18,0,0,1,.355.92,5.691,5.691,0,0,1,.039.884h-3.242a1.069,1.069,0,0,0,.466.939,1.18,1.18,0,0,0,.642.168.9.9,0,0,0,.886-.51h1.188a1.454,1.454,0,0,1-.431.8,2.164,2.164,0,0,1-1.674.649,2.424,2.424,0,0,1-1.568-.548,2.158,2.158,0,0,1-.68-1.782,2.414,2.414,0,0,1,.613-1.774,2.149,2.149,0,0,1,1.592-.617A2.529,2.529,0,0,1,394.708,1314.966Zm-1.741,1a1.211,1.211,0,0,0-.311.69h2.006a.968.968,0,0,0-.311-.7,1.02,1.02,0,0,0-.69-.241A.922.922,0,0,0,392.966,1315.97Z" transform="translate(-186.155 -695.961)" fill="#fff"/><path d="M402.379,1313.859a1.418,1.418,0,0,1,.51.492v-2.124h1.18v6.012h-1.131v-.616a1.638,1.638,0,0,1-.568.575,1.589,1.589,0,0,1-.792.179,1.655,1.655,0,0,1-1.313-.63,2.426,2.426,0,0,1-.533-1.619,2.785,2.785,0,0,1,.525-1.793,1.708,1.708,0,0,1,1.4-.654A1.436,1.436,0,0,1,402.379,1313.859Zm.286,3.171a1.623,1.623,0,0,0,.257-.952,1.459,1.459,0,0,0-.413-1.168.885.885,0,0,0-.588-.212.818.818,0,0,0-.749.386,1.788,1.788,0,0,0-.239.958,1.767,1.767,0,0,0,.243.986.822.822,0,0,0,.737.37A.859.859,0,0,0,402.664,1317.03Z" transform="translate(-189.714 -694.873)" fill="#fff"/></g><g transform="translate(27 -48)"><path d="M62.679,1342.511a3,3,0,0,1-5.118-2.16,2.869,2.869,0,0,1,.939-2.193,2.951,2.951,0,0,1,2.071-.817,3.018,3.018,0,0,1,2.108,5.17Zm-3.876-3.9a2.5,2.5,0,0,0,1.768,4.252,2.377,2.377,0,0,0,1.752-.735,2.438,2.438,0,0,0,.727-1.773,2.413,2.413,0,0,0-.723-1.744,2.443,2.443,0,0,0-3.525,0Zm2.734,3.244a1.6,1.6,0,0,1-.893.285,1.638,1.638,0,0,1-1.186-.49,1.722,1.722,0,0,1-.5-1.286,1.925,1.925,0,0,1,.431-1.266,1.448,1.448,0,0,1,1.182-.523,1.672,1.672,0,0,1,.829.2,1.482,1.482,0,0,1,.711,1.118l-.768-.012a.675.675,0,0,0-.294-.5.752.752,0,0,0-.413-.12.674.674,0,0,0-.556.28,1.362,1.362,0,0,0-.216.841,1.157,1.157,0,0,0,.239.812.763.763,0,0,0,.574.253.6.6,0,0,0,.463-.168.8.8,0,0,0,.2-.42h.747A1.409,1.409,0,0,1,61.537,1341.851Z" transform="translate(-42.561 -707.673)" fill="#fff"/><path d="M68.92,1342.249A3.3,3.3,0,0,1,70.1,1341a8.7,8.7,0,0,0,1.042-.825,1.221,1.221,0,0,0,.363-.85.943.943,0,0,0-.208-.625.736.736,0,0,0-.6-.249.728.728,0,0,0-.723.4,1.974,1.974,0,0,0-.131.727H68.712a2.851,2.851,0,0,1,.274-1.221,1.706,1.706,0,0,1,1.656-.886,2.1,2.1,0,0,1,1.5.52,1.8,1.8,0,0,1,.556,1.379,1.865,1.865,0,0,1-.393,1.168,3.907,3.907,0,0,1-.847.756l-.466.33q-.438.31-.6.449a1.333,1.333,0,0,0-.272.323H72.7v1.025H68.646A2.79,2.79,0,0,1,68.92,1342.249Z" transform="translate(-47.328 -707.726)" fill="#fff"/><path d="M80.437,1338.238a5.839,5.839,0,0,1,0,4.521,1.986,1.986,0,0,1-3.173,0,5.839,5.839,0,0,1,0-4.521,1.98,1.98,0,0,1,3.173,0Zm-2.273,3.825a.674.674,0,0,0,.686.541.665.665,0,0,0,.68-.541,5.774,5.774,0,0,0,.161-1.562,5.71,5.71,0,0,0-.161-1.584.659.659,0,0,0-.68-.515.669.669,0,0,0-.686.515A5.516,5.516,0,0,0,78,1340.5,5.579,5.579,0,0,0,78.164,1342.063Z" transform="translate(-50.838 -707.716)" fill="#fff"/><path d="M85.244,1342.249A3.287,3.287,0,0,1,86.42,1341a8.676,8.676,0,0,0,1.041-.825,1.222,1.222,0,0,0,.364-.85.94.94,0,0,0-.209-.625.735.735,0,0,0-.6-.249.727.727,0,0,0-.723.4,1.96,1.96,0,0,0-.131.727H85.035a2.86,2.86,0,0,1,.274-1.221,1.707,1.707,0,0,1,1.656-.886,2.1,2.1,0,0,1,1.5.52,1.8,1.8,0,0,1,.556,1.379,1.864,1.864,0,0,1-.393,1.168,3.92,3.92,0,0,1-.847.756l-.467.33q-.438.31-.6.449a1.333,1.333,0,0,0-.272.323h2.585v1.025H84.97A2.781,2.781,0,0,1,85.244,1342.249Z" transform="translate(-54.349 -707.726)" fill="#fff"/><path d="M94.2,1341.6a1.329,1.329,0,0,0,.114.588.78.78,0,0,0,.77.428.854.854,0,0,0,.6-.234.874.874,0,0,0,.255-.676.761.761,0,0,0-.472-.78,2.387,2.387,0,0,0-.847-.11v-.833a2.186,2.186,0,0,0,.789-.111.68.68,0,0,0,.387-.694.775.775,0,0,0-.2-.551.722.722,0,0,0-.556-.213.7.7,0,0,0-.6.262,1.106,1.106,0,0,0-.185.7H93.166a2.953,2.953,0,0,1,.151-.837,1.876,1.876,0,0,1,.449-.641,1.559,1.559,0,0,1,.542-.319,2.363,2.363,0,0,1,.771-.11,2.053,2.053,0,0,1,1.369.439,1.464,1.464,0,0,1,.52,1.178,1.3,1.3,0,0,1-.31.882,1.063,1.063,0,0,1-.409.306.846.846,0,0,1,.458.274,1.463,1.463,0,0,1,.445,1.127,1.9,1.9,0,0,1-.52,1.322,1.982,1.982,0,0,1-1.54.569,1.863,1.863,0,0,1-1.746-.821,2.434,2.434,0,0,1-.286-1.144Z" transform="translate(-57.828 -707.726)" fill="#fff"/><path d="M110.092,1340.756a2.3,2.3,0,0,1-1.509.441H107.33v2.164h-1.25v-6.02h2.585a2.083,2.083,0,0,1,1.425.466,1.819,1.819,0,0,1,.531,1.442A1.867,1.867,0,0,1,110.092,1340.756Zm-.959-2.169a1.015,1.015,0,0,0-.67-.2H107.33v1.772h1.134a.961.961,0,0,0,.67-.217.884.884,0,0,0,.238-.686A.831.831,0,0,0,109.133,1338.586Z" transform="translate(-63.427 -707.673)" fill="#fff"/><path d="M119.159,1343.892a2.452,2.452,0,0,1-3.423,0,2.761,2.761,0,0,1,0-3.343,2.427,2.427,0,0,1,3.423,0,2.761,2.761,0,0,1,0,3.343Zm-.931-.643a2.078,2.078,0,0,0,0-2.061,1.035,1.035,0,0,0-1.57,0,2.063,2.063,0,0,0,0,2.061,1.03,1.03,0,0,0,1.57,0Z" transform="translate(-67.337 -708.749)" fill="#fff"/><path d="M124.6,1337.377h1.143v3.248l1.468-1.68h1.447l-1.6,1.658,1.657,2.773H127.3l-1.079-1.9-.482.5v1.4H124.6Z" transform="translate(-71.39 -707.689)" fill="#fff"/><path d="M135.415,1338.808a1.81,1.81,0,0,1,.769.659,2.175,2.175,0,0,1,.355.92,5.681,5.681,0,0,1,.039.884h-3.242a1.069,1.069,0,0,0,.466.939,1.182,1.182,0,0,0,.642.168.9.9,0,0,0,.886-.511h1.188a1.458,1.458,0,0,1-.431.8,2.165,2.165,0,0,1-1.674.649,2.424,2.424,0,0,1-1.568-.548,2.157,2.157,0,0,1-.68-1.782,2.413,2.413,0,0,1,.613-1.774,2.148,2.148,0,0,1,1.592-.617A2.541,2.541,0,0,1,135.415,1338.808Zm-1.742,1.006a1.211,1.211,0,0,0-.31.689h2.006a.97.97,0,0,0-.311-.7,1.017,1.017,0,0,0-.69-.24A.924.924,0,0,0,133.673,1339.814Zm2.071-2.917-1.241,1.221h-.841l.784-1.221Z" transform="translate(-74.644 -707.482)" fill="#fff"/><path d="M146.48,1340.034a1.305,1.305,0,0,1,.519.4,1.278,1.278,0,0,1,.253.572,3.924,3.924,0,0,1,.041.657l-.009,2.806h-1.192v-2.834a.935.935,0,0,0-.082-.417.581.581,0,0,0-.572-.31.67.67,0,0,0-.666.4,1.265,1.265,0,0,0-.093.51v2.651h-1.172v-2.651a1.49,1.49,0,0,0-.082-.575.57.57,0,0,0-.576-.323.687.687,0,0,0-.67.323,1.238,1.238,0,0,0-.094.547v2.679H140.9v-4.443h1.131v.649a1.875,1.875,0,0,1,.408-.494,1.617,1.617,0,0,1,1.7-.037,1.3,1.3,0,0,1,.384.536,1.481,1.481,0,0,1,.568-.576,1.73,1.73,0,0,1,.8-.184A1.568,1.568,0,0,1,146.48,1340.034Z" transform="translate(-78.404 -708.782)" fill="#fff"/><path d="M157.495,1343.892a2.452,2.452,0,0,1-3.422,0,2.761,2.761,0,0,1,0-3.343,2.426,2.426,0,0,1,3.422,0,2.761,2.761,0,0,1,0,3.343Zm-.931-.643a2.078,2.078,0,0,0,0-2.061,1.035,1.035,0,0,0-1.57,0,2.063,2.063,0,0,0,0,2.061,1.03,1.03,0,0,0,1.57,0Z" transform="translate(-83.824 -708.749)" fill="#fff"/><path d="M166.548,1340.267a1.472,1.472,0,0,1,.438,1.2v3h-1.193v-2.708a1.234,1.234,0,0,0-.093-.539.655.655,0,0,0-.649-.343.8.8,0,0,0-.806.5,1.733,1.733,0,0,0-.113.678v2.41h-1.164v-4.443h1.127v.649a1.977,1.977,0,0,1,.423-.494,1.464,1.464,0,0,1,.906-.27A1.7,1.7,0,0,1,166.548,1340.267Z" transform="translate(-87.891 -708.776)" fill="#fff"/><path d="M171.881,1345.761h1.237v1.221h-1.237Z" transform="translate(-91.725 -711.294)" fill="#fff"/><path d="M184.421,1342.511a3,3,0,0,1-5.117-2.16,2.869,2.869,0,0,1,.939-2.193,2.951,2.951,0,0,1,2.071-.817,3.018,3.018,0,0,1,2.107,5.17Zm-3.875-3.9a2.5,2.5,0,0,0,.012,3.52,2.464,2.464,0,0,0,3.508,0,2.438,2.438,0,0,0,.727-1.773,2.413,2.413,0,0,0-.723-1.744,2.443,2.443,0,0,0-3.525,0Zm2.734,3.244a1.6,1.6,0,0,1-.893.285,1.638,1.638,0,0,1-1.186-.49,1.72,1.72,0,0,1-.5-1.286,1.928,1.928,0,0,1,.43-1.266,1.449,1.449,0,0,1,1.183-.523,1.67,1.67,0,0,1,.829.2,1.481,1.481,0,0,1,.711,1.118l-.768-.012a.673.673,0,0,0-.294-.5.748.748,0,0,0-.412-.12.674.674,0,0,0-.556.28,1.362,1.362,0,0,0-.216.841,1.157,1.157,0,0,0,.238.812.764.764,0,0,0,.574.253.6.6,0,0,0,.464-.168.8.8,0,0,0,.2-.42h.748A1.411,1.411,0,0,1,183.28,1341.851Z" transform="translate(-94.917 -707.673)" fill="#fff"/><path d="M190.948,1339.35v-.792a5.115,5.115,0,0,0,.769-.073,1.086,1.086,0,0,0,.571-.311,1.029,1.029,0,0,0,.228-.425.979.979,0,0,0,.044-.237h.972v5.922H192.34v-4.084Z" transform="translate(-99.925 -707.747)" fill="#fff"/><path d="M199.079,1338.017a2.029,2.029,0,0,1,3.281.606,4.655,4.655,0,0,1,.286,1.785,5.078,5.078,0,0,1-.274,1.793,1.915,1.915,0,0,1-1.92,1.368,1.953,1.953,0,0,1-1.2-.395,1.553,1.553,0,0,1-.609-1.149h1.16a.7.7,0,0,0,.221.425.683.683,0,0,0,.478.163.83.83,0,0,0,.809-.637,3.736,3.736,0,0,0,.16-1.025,1.265,1.265,0,0,1-.339.306,1.534,1.534,0,0,1-.8.2,1.831,1.831,0,0,1-1.254-.488,1.783,1.783,0,0,1-.547-1.406A2.175,2.175,0,0,1,199.079,1338.017Zm1.958,2.35a.961.961,0,0,0,.4-.878,1.242,1.242,0,0,0-.235-.8.779.779,0,0,0-.643-.294.8.8,0,0,0-.511.168,1.058,1.058,0,0,0-.335.886,1.226,1.226,0,0,0,.214.79.8.8,0,0,0,.659.264A.815.815,0,0,0,201.037,1340.367Z" transform="translate(-103.186 -707.71)" fill="#fff"/><path d="M207.24,1338.017a2.029,2.029,0,0,1,3.281.606,4.667,4.667,0,0,1,.286,1.785,5.078,5.078,0,0,1-.274,1.793,1.915,1.915,0,0,1-1.92,1.368,1.952,1.952,0,0,1-1.2-.395,1.55,1.55,0,0,1-.609-1.149h1.16a.7.7,0,0,0,.221.425.682.682,0,0,0,.478.163.83.83,0,0,0,.809-.637,3.736,3.736,0,0,0,.16-1.025,1.265,1.265,0,0,1-.339.306,1.535,1.535,0,0,1-.8.2,1.83,1.83,0,0,1-1.253-.488,1.783,1.783,0,0,1-.548-1.406A2.176,2.176,0,0,1,207.24,1338.017Zm1.958,2.35a.961.961,0,0,0,.4-.878,1.245,1.245,0,0,0-.235-.8.78.78,0,0,0-.643-.294.8.8,0,0,0-.511.168,1.06,1.06,0,0,0-.335.886,1.226,1.226,0,0,0,.215.79.8.8,0,0,0,.659.264A.816.816,0,0,0,209.2,1340.367Z" transform="translate(-106.695 -707.71)" fill="#fff"/><path d="M215.963,1341.908a1.122,1.122,0,0,0,.265.586.748.748,0,0,0,.57.206.77.77,0,0,0,.658-.3,1.252,1.252,0,0,0,.226-.766,1.336,1.336,0,0,0-.211-.765.742.742,0,0,0-.66-.312,1.137,1.137,0,0,0-.367.053.729.729,0,0,0-.411.364l-1.043-.049.416-3.271h3.258v.988h-2.418l-.212,1.295a2.394,2.394,0,0,1,.421-.233,1.781,1.781,0,0,1,.616-.094,1.786,1.786,0,0,1,1.827,1.932,2.256,2.256,0,0,1-.527,1.466,1.912,1.912,0,0,1-1.575.645,2.091,2.091,0,0,1-1.387-.453,1.76,1.76,0,0,1-.6-1.287Z" transform="translate(-110.184 -707.806)" fill="#fff"/><path d="M222.914,1342.844h2.279v1.1h-2.279Z" transform="translate(-113.672 -710.04)" fill="#fff"/><path d="M228.2,1342.249a3.3,3.3,0,0,1,1.176-1.254,8.678,8.678,0,0,0,1.041-.825,1.222,1.222,0,0,0,.364-.85.943.943,0,0,0-.208-.625.737.737,0,0,0-.6-.249.727.727,0,0,0-.723.4,1.963,1.963,0,0,0-.131.727h-1.131a2.852,2.852,0,0,1,.274-1.221,1.705,1.705,0,0,1,1.655-.886,2.1,2.1,0,0,1,1.5.52,1.8,1.8,0,0,1,.556,1.379,1.864,1.864,0,0,1-.393,1.168,3.921,3.921,0,0,1-.847.756l-.466.33q-.438.31-.6.449a1.307,1.307,0,0,0-.272.323h2.585v1.025h-4.055A2.782,2.782,0,0,1,228.2,1342.249Z" transform="translate(-115.827 -707.726)" fill="#fff"/><path d="M239.714,1338.238a5.839,5.839,0,0,1,0,4.521,1.986,1.986,0,0,1-3.173,0,5.839,5.839,0,0,1,0-4.521,1.98,1.98,0,0,1,3.173,0Zm-2.273,3.825a.674.674,0,0,0,.686.541.665.665,0,0,0,.68-.541,5.8,5.8,0,0,0,.161-1.562,5.732,5.732,0,0,0-.161-1.584.659.659,0,0,0-.68-.515.669.669,0,0,0-.686.515,5.513,5.513,0,0,0-.168,1.584A5.576,5.576,0,0,0,237.441,1342.063Z" transform="translate(-119.337 -707.716)" fill="#fff"/><path d="M244.52,1342.249A3.289,3.289,0,0,1,245.7,1341a8.7,8.7,0,0,0,1.042-.825,1.221,1.221,0,0,0,.363-.85.94.94,0,0,0-.208-.625.736.736,0,0,0-.6-.249.726.726,0,0,0-.723.4,1.96,1.96,0,0,0-.131.727h-1.131a2.86,2.86,0,0,1,.274-1.221,1.706,1.706,0,0,1,1.656-.886,2.1,2.1,0,0,1,1.5.52,1.8,1.8,0,0,1,.556,1.379,1.861,1.861,0,0,1-.393,1.168,3.892,3.892,0,0,1-.847.756l-.466.33q-.438.31-.6.449a1.333,1.333,0,0,0-.272.323H248.3v1.025h-4.056A2.791,2.791,0,0,1,244.52,1342.249Z" transform="translate(-122.846 -707.726)" fill="#fff"/><path d="M253.48,1341.6a1.337,1.337,0,0,0,.114.588.781.781,0,0,0,.771.428.854.854,0,0,0,.6-.234.876.876,0,0,0,.254-.676.761.761,0,0,0-.472-.78,2.389,2.389,0,0,0-.847-.11v-.833a2.186,2.186,0,0,0,.789-.111.681.681,0,0,0,.387-.694.777.777,0,0,0-.2-.551.723.723,0,0,0-.556-.213.7.7,0,0,0-.6.262,1.109,1.109,0,0,0-.185.7h-1.086a2.953,2.953,0,0,1,.15-.837,1.891,1.891,0,0,1,.449-.641,1.561,1.561,0,0,1,.543-.319,2.361,2.361,0,0,1,.771-.11,2.053,2.053,0,0,1,1.369.439,1.464,1.464,0,0,1,.52,1.178,1.306,1.306,0,0,1-.31.882,1.063,1.063,0,0,1-.409.306.846.846,0,0,1,.458.274,1.463,1.463,0,0,1,.445,1.127,1.9,1.9,0,0,1-.52,1.322,1.982,1.982,0,0,1-1.54.569,1.863,1.863,0,0,1-1.746-.821,2.433,2.433,0,0,1-.286-1.144Z" transform="translate(-126.326 -707.726)" fill="#fff"/><path d="M265.271,1337.341h1.319l2.389,4.2v-4.2h1.172v6.02h-1.258l-2.45-4.271v4.271h-1.172Z" transform="translate(-131.888 -707.673)" fill="#fff"/><path d="M276.949,1338.35h-1.18v-1.074h1.18Zm-1.18.531h1.18v4.451h-1.18Z" transform="translate(-136.403 -707.645)" fill="#fff"/><path d="M283.413,1340.267a1.474,1.474,0,0,1,.437,1.2v3h-1.192v-2.708a1.234,1.234,0,0,0-.094-.539.655.655,0,0,0-.649-.343.8.8,0,0,0-.806.5,1.734,1.734,0,0,0-.113.678v2.41h-1.164v-4.443h1.127v.649a1.987,1.987,0,0,1,.423-.494,1.467,1.467,0,0,1,.907-.27A1.7,1.7,0,0,1,283.413,1340.267Z" transform="translate(-138.15 -708.776)" fill="#fff"/><path d="M287.978,1340.057v-.829h.621v-1.241h1.152v1.241h.723v.829h-.723v2.352a.532.532,0,0,0,.069.341.769.769,0,0,0,.425.068l.112,0,.117-.006v.869l-.551.021a1.481,1.481,0,0,1-1.127-.286.85.85,0,0,1-.2-.617v-2.74Z" transform="translate(-141.654 -707.95)" fill="#fff"/><path d="M296.3,1340.094a1.812,1.812,0,0,1,.769.659,2.176,2.176,0,0,1,.355.92,5.685,5.685,0,0,1,.039.883h-3.242a1.069,1.069,0,0,0,.465.939,1.181,1.181,0,0,0,.642.167.9.9,0,0,0,.886-.511h1.189a1.455,1.455,0,0,1-.432.8,2.165,2.165,0,0,1-1.674.649,2.426,2.426,0,0,1-1.568-.548,2.157,2.157,0,0,1-.679-1.782,2.413,2.413,0,0,1,.613-1.774,2.147,2.147,0,0,1,1.592-.617A2.538,2.538,0,0,1,296.3,1340.094Zm-1.741,1.006a1.211,1.211,0,0,0-.311.689h2.006a.972.972,0,0,0-.31-.7,1.019,1.019,0,0,0-.691-.24A.923.923,0,0,0,294.563,1341.1Z" transform="translate(-143.836 -708.767)" fill="#fff"/><path d="M305.426,1340.267a1.474,1.474,0,0,1,.437,1.2v3H304.67v-2.708a1.244,1.244,0,0,0-.093-.539.656.656,0,0,0-.649-.343.8.8,0,0,0-.807.5,1.745,1.745,0,0,0-.113.678v2.41h-1.164v-4.443h1.127v.649a1.977,1.977,0,0,1,.423-.494,1.466,1.466,0,0,1,.907-.27A1.7,1.7,0,0,1,305.426,1340.267Z" transform="translate(-147.617 -708.776)" fill="#fff"/><path d="M312.938,1338.987a1.413,1.413,0,0,1,.511.492v-2.124h1.18v6.011H313.5v-.617a1.645,1.645,0,0,1-.568.576,1.6,1.6,0,0,1-.792.179,1.656,1.656,0,0,1-1.313-.631,2.426,2.426,0,0,1-.533-1.619,2.786,2.786,0,0,1,.525-1.793,1.708,1.708,0,0,1,1.4-.654A1.435,1.435,0,0,1,312.938,1338.987Zm.286,3.171a1.622,1.622,0,0,0,.258-.951,1.459,1.459,0,0,0-.413-1.168.886.886,0,0,0-.588-.213.817.817,0,0,0-.749.386,2.079,2.079,0,0,0,0,1.944.822.822,0,0,0,.737.369A.857.857,0,0,0,313.224,1342.158Z" transform="translate(-151.25 -707.68)" fill="#fff"/><path d="M323.263,1343.892a2.452,2.452,0,0,1-3.422,0,2.761,2.761,0,0,1,0-3.343,2.426,2.426,0,0,1,3.422,0,2.761,2.761,0,0,1,0,3.343Zm-.931-.643a2.078,2.078,0,0,0,0-2.061,1.035,1.035,0,0,0-1.57,0,2.063,2.063,0,0,0,0,2.061,1.03,1.03,0,0,0,1.57,0Z" transform="translate(-155.114 -708.749)" fill="#fff"/><path d="M329.3,1337.019h.968l-2.343,6.2h-.96Z" transform="translate(-158.419 -707.535)" fill="#fff"/><path d="M333.341,1337.884a2.808,2.808,0,0,1,4.048.254,2.17,2.17,0,0,1,.412,1.123h-1.258a1.719,1.719,0,0,0-.308-.653,1.241,1.241,0,0,0-1-.392,1.227,1.227,0,0,0-1.06.553,2.7,2.7,0,0,0-.388,1.567,2.371,2.371,0,0,0,.409,1.517,1.283,1.283,0,0,0,1.041.5,1.177,1.177,0,0,0,.987-.433,1.9,1.9,0,0,0,.312-.7h1.25a2.711,2.711,0,0,1-.826,1.6,2.4,2.4,0,0,1-1.7.617,2.557,2.557,0,0,1-2.02-.833,3.951,3.951,0,0,1,.1-4.725Z" transform="translate(-160.803 -707.587)" fill="#fff"/><path d="M345.86,1339.908l.1.006v1.193c-.073-.009-.139-.014-.2-.017l-.139,0a.968.968,0,0,0-.944.457,1.787,1.787,0,0,0-.134.793v2.127h-1.172v-4.451h1.111v.776a2.441,2.441,0,0,1,.47-.608,1.277,1.277,0,0,1,.849-.274Z" transform="translate(-165.478 -708.776)" fill="#fff"/><path d="M351.743,1340.094a1.812,1.812,0,0,1,.769.659,2.175,2.175,0,0,1,.354.92,5.681,5.681,0,0,1,.039.883h-3.242a1.069,1.069,0,0,0,.465.939,1.181,1.181,0,0,0,.642.167.9.9,0,0,0,.886-.511h1.189a1.455,1.455,0,0,1-.432.8,2.165,2.165,0,0,1-1.675.649,2.426,2.426,0,0,1-1.568-.548,2.157,2.157,0,0,1-.679-1.782,2.413,2.413,0,0,1,.613-1.774,2.147,2.147,0,0,1,1.592-.617A2.538,2.538,0,0,1,351.743,1340.094ZM350,1341.1a1.212,1.212,0,0,0-.311.689H351.7a.972.972,0,0,0-.31-.7,1.019,1.019,0,0,0-.691-.24A.924.924,0,0,0,350,1341.1Z" transform="translate(-167.678 -708.767)" fill="#fff"/><path d="M358.8,1341.756a1.846,1.846,0,0,0,.465-.1.351.351,0,0,0,.251-.331.392.392,0,0,0-.193-.378,1.214,1.214,0,0,0-.565-.1.74.74,0,0,0-.592.2.838.838,0,0,0-.166.409h-1.123a1.7,1.7,0,0,1,.328-.96,1.913,1.913,0,0,1,1.591-.588,2.835,2.835,0,0,1,1.3.29,1.111,1.111,0,0,1,.571,1.095v2.041q0,.212.009.515a.639.639,0,0,0,.069.311.413.413,0,0,0,.171.135v.172h-1.266a1.31,1.31,0,0,1-.074-.253c-.014-.078-.024-.169-.033-.27a2.371,2.371,0,0,1-.558.446,1.69,1.69,0,0,1-.855.217,1.474,1.474,0,0,1-1-.345,1.227,1.227,0,0,1-.4-.978,1.268,1.268,0,0,1,.638-1.188,2.852,2.852,0,0,1,1.028-.286Zm.712.544a1.349,1.349,0,0,1-.226.112,1.957,1.957,0,0,1-.312.079l-.265.049a1.714,1.714,0,0,0-.535.159.531.531,0,0,0-.275.494.516.516,0,0,0,.168.43.638.638,0,0,0,.409.133,1.22,1.22,0,0,0,.7-.221.937.937,0,0,0,.334-.8Z" transform="translate(-171.225 -708.776)" fill="#fff"/><path d="M364.628,1340.057v-.829h.621v-1.241H366.4v1.241h.723v.829H366.4v2.352a.528.528,0,0,0,.069.341.768.768,0,0,0,.424.068l.112,0,.117-.006v.869l-.551.021a1.481,1.481,0,0,1-1.127-.286.852.852,0,0,1-.2-.617v-2.74Z" transform="translate(-174.618 -707.95)" fill="#fff"/><path d="M371.452,1340.093v2.683a1.4,1.4,0,0,0,.09.571.617.617,0,0,0,.621.339.813.813,0,0,0,.813-.482,1.766,1.766,0,0,0,.113-.691v-2.421h1.18v4.451h-1.131v-.629c-.011.014-.038.055-.082.123a.826.826,0,0,1-.154.18,1.626,1.626,0,0,1-.528.334,1.792,1.792,0,0,1-.6.09,1.329,1.329,0,0,1-1.327-.71,2.725,2.725,0,0,1-.191-1.156v-2.683Z" transform="translate(-177.04 -708.857)" fill="#fff"/><path d="M381.745,1339.908l.1.006v1.193c-.074-.009-.139-.014-.2-.017l-.139,0a.966.966,0,0,0-.943.457,1.778,1.778,0,0,0-.135.793v2.127H379.26v-4.451h1.111v.776a2.442,2.442,0,0,1,.47-.608,1.277,1.277,0,0,1,.849-.274Z" transform="translate(-180.91 -708.776)" fill="#fff"/><path d="M387.628,1340.094a1.812,1.812,0,0,1,.769.659,2.176,2.176,0,0,1,.354.92,5.612,5.612,0,0,1,.039.883h-3.242a1.069,1.069,0,0,0,.465.939,1.182,1.182,0,0,0,.642.167.9.9,0,0,0,.885-.511h1.189a1.455,1.455,0,0,1-.432.8,2.164,2.164,0,0,1-1.674.649,2.426,2.426,0,0,1-1.568-.548,2.157,2.157,0,0,1-.679-1.782,2.413,2.413,0,0,1,.613-1.774,2.147,2.147,0,0,1,1.592-.617A2.538,2.538,0,0,1,387.628,1340.094Zm-1.741,1.006a1.212,1.212,0,0,0-.311.689h2.006a.972.972,0,0,0-.31-.7,1.02,1.02,0,0,0-.691-.24A.924.924,0,0,0,385.887,1341.1Z" transform="translate(-183.11 -708.767)" fill="#fff"/><path d="M393.847,1343.027a.777.777,0,0,0,.16.441,1.083,1.083,0,0,0,.8.233,1.222,1.222,0,0,0,.548-.1.325.325,0,0,0,.2-.306.33.33,0,0,0-.164-.3,6.666,6.666,0,0,0-1.218-.351,2.538,2.538,0,0,1-1.069-.469,1.018,1.018,0,0,1-.311-.8,1.388,1.388,0,0,1,.485-1.06,1.95,1.95,0,0,1,1.365-.443,2.513,2.513,0,0,1,1.361.332,1.424,1.424,0,0,1,.6,1.15h-1.164a.685.685,0,0,0-.127-.355.8.8,0,0,0-.655-.237.945.945,0,0,0-.543.118.341.341,0,0,0-.162.278.3.3,0,0,0,.172.29,7.485,7.485,0,0,0,1.216.322,2.23,2.23,0,0,1,1.042.494,1.121,1.121,0,0,1,.343.837,1.352,1.352,0,0,1-.492,1.081,2.324,2.324,0,0,1-1.525.418,2.294,2.294,0,0,1-1.553-.443,1.436,1.436,0,0,1-.5-1.129Z" transform="translate(-186.676 -708.761)" fill="#fff"/><path d="M406.628,1343.361h-1.25v-6.02h1.25Z" transform="translate(-192.143 -707.673)" fill="#fff"/><path d="M413.066,1340.267a1.472,1.472,0,0,1,.438,1.2v3h-1.193v-2.708a1.234,1.234,0,0,0-.093-.539.654.654,0,0,0-.648-.343.8.8,0,0,0-.807.5,1.734,1.734,0,0,0-.113.678v2.41h-1.164v-4.443h1.127v.649a1.975,1.975,0,0,1,.423-.494,1.464,1.464,0,0,1,.906-.27A1.7,1.7,0,0,1,413.066,1340.267Z" transform="translate(-193.909 -708.776)" fill="#fff"/><path d="M420.906,1341.609a1.034,1.034,0,0,0-.168-.449.7.7,0,0,0-.61-.27.8.8,0,0,0-.806.584,2.424,2.424,0,0,0-.115.823,2.23,2.23,0,0,0,.115.786.778.778,0,0,0,.786.556.694.694,0,0,0,.581-.221,1.1,1.1,0,0,0,.209-.572h1.188a1.951,1.951,0,0,1-.384,1,1.868,1.868,0,0,1-1.623.764,1.9,1.9,0,0,1-1.582-.636,2.576,2.576,0,0,1-.507-1.653,2.609,2.609,0,0,1,.56-1.782,1.95,1.95,0,0,1,1.545-.637,2.326,2.326,0,0,1,1.371.376,1.744,1.744,0,0,1,.632,1.327Z" transform="translate(-197.566 -708.776)" fill="#fff"/><path d="M426.56,1345.761H427.8v1.221H426.56Z" transform="translate(-201.252 -711.294)" fill="#fff"/><path d="M435.327,1337.019h.968l-2.343,6.2h-.96Z" transform="translate(-204.018 -707.535)" fill="#fff"/><path d="M442.821,1339.1a1.18,1.18,0,0,0-.7-.862,1.717,1.717,0,0,0-.69-.135,1.5,1.5,0,0,0-1.2.548,2.49,2.49,0,0,0-.467,1.649,2.045,2.045,0,0,0,.507,1.569,1.665,1.665,0,0,0,1.151.46,1.492,1.492,0,0,0,1.037-.363,1.566,1.566,0,0,0,.5-.952h-1.393v-1h2.508v3.231h-.833l-.127-.752a2.869,2.869,0,0,1-.654.6,2.306,2.306,0,0,1-1.225.3,2.548,2.548,0,0,1-1.96-.828,3.16,3.16,0,0,1-.8-2.277,3.345,3.345,0,0,1,.8-2.343,2.744,2.744,0,0,1,2.128-.881,2.78,2.78,0,0,1,1.844.582,2.161,2.161,0,0,1,.8,1.452Z" transform="translate(-206.38 -707.556)" fill="#fff"/><path d="M451.806,1337.341h1.424l2.13,6.02h-1.364l-.4-1.237h-2.217l-.408,1.237h-1.316Zm-.083,3.745h1.542l-.76-2.369Z" transform="translate(-211.185 -707.673)" fill="#fff"/><path d="M464.983,1337.341h1.81v6.02h-1.172v-4.071c0-.117,0-.281,0-.492s0-.374,0-.488l-1.14,5.052h-1.223l-1.132-5.052q0,.172,0,.488c0,.211,0,.375,0,.492v4.071h-1.172v-6.02H462.8l1.1,4.734Z" transform="translate(-216.05 -707.673)" fill="#fff"/><path d="M477.709,1338.407h-3.185v1.278h2.924v1.045h-2.924v1.548h3.332v1.082h-4.562v-6.02h4.415Z" transform="translate(-221.35 -707.673)" fill="#fff"/><path d="M487.095,1337.356h4.292v1.058h-3.042v1.384h2.667v1.046h-2.667v2.524h-1.25Z" transform="translate(-227.286 -707.68)" fill="#fff"/><path d="M499.938,1337.5a1.493,1.493,0,0,1,.563.421,1.862,1.862,0,0,1,.3.507,1.68,1.68,0,0,1,.112.633,1.805,1.805,0,0,1-.217.843,1.207,1.207,0,0,1-.715.586,1.124,1.124,0,0,1,.59.476,1.973,1.973,0,0,1,.174.942v.4a3.1,3.1,0,0,0,.033.56.5.5,0,0,0,.233.343v.151h-1.389c-.038-.133-.065-.241-.081-.322a2.934,2.934,0,0,1-.054-.519l-.008-.56a1.14,1.14,0,0,0-.2-.768,1.016,1.016,0,0,0-.716-.192h-1.229v2.36h-1.229v-6.02h2.879A2.643,2.643,0,0,1,499.938,1337.5Zm-2.6.89V1340h1.354a1.441,1.441,0,0,0,.605-.1.678.678,0,0,0,.357-.678.759.759,0,0,0-.345-.735,1.245,1.245,0,0,0-.582-.107Z" transform="translate(-231.162 -707.673)" fill="#fff"/><path d="M511.136,1338.407H507.95v1.278h2.924v1.045H507.95v1.548h3.332v1.082h-4.562v-6.02h4.415Z" transform="translate(-235.726 -707.673)" fill="#fff"/><path d="M517.844,1337.341h1.424l2.129,6.02h-1.364l-.4-1.237h-2.217l-.408,1.237H515.7Zm-.083,3.745H519.3l-.76-2.369Z" transform="translate(-239.585 -707.673)" fill="#fff"/><path d="M527.078,1337.341h1.238v2.48l2.326-2.48h1.625l-2.471,2.476,2.6,3.544h-1.617l-1.855-2.627-.606.614v2.013h-1.238Z" transform="translate(-244.48 -707.673)" fill="#fff"/><path d="M542.762,1338.35h-1.18v-1.074h1.18Zm-1.18.531h1.18v4.451h-1.18Z" transform="translate(-250.718 -707.645)" fill="#fff"/><path d="M549.227,1340.267a1.474,1.474,0,0,1,.437,1.2v3h-1.193v-2.708a1.244,1.244,0,0,0-.093-.539.656.656,0,0,0-.649-.343.8.8,0,0,0-.806.5,1.733,1.733,0,0,0-.114.678v2.41h-1.164v-4.443h1.127v.649a1.977,1.977,0,0,1,.423-.494,1.466,1.466,0,0,1,.907-.27A1.7,1.7,0,0,1,549.227,1340.267Z" transform="translate(-252.465 -708.776)" fill="#fff"/><path d="M557.066,1341.609a1.029,1.029,0,0,0-.168-.449.7.7,0,0,0-.61-.27.8.8,0,0,0-.807.584,2.425,2.425,0,0,0-.114.823,2.231,2.231,0,0,0,.114.786.779.779,0,0,0,.786.556.692.692,0,0,0,.581-.221,1.094,1.094,0,0,0,.209-.572h1.188a1.946,1.946,0,0,1-.384,1,1.868,1.868,0,0,1-1.623.764,1.9,1.9,0,0,1-1.582-.636,2.576,2.576,0,0,1-.507-1.653,2.612,2.612,0,0,1,.56-1.782,1.952,1.952,0,0,1,1.546-.637,2.324,2.324,0,0,1,1.371.376,1.744,1.744,0,0,1,.632,1.327Z" transform="translate(-256.123 -708.776)" fill="#fff"/><path d="M562.721,1345.761h1.237v1.221h-1.237Z" transform="translate(-259.809 -711.294)" fill="#fff"/></g><g transform="translate(15 592.71)"><path d="M60.895,1364.489c0,.042-.017.067-.084.143a1.081,1.081,0,0,0-.176.318c-.368.811-1.028,1.706-1.271,1.706-.05,0-.067-.008-.243-.159a2.242,2.242,0,0,0-.56-.309A3.64,3.64,0,0,0,59.924,1364C60.6,1364.222,60.895,1364.372,60.895,1364.489Zm.777-1.229a24.39,24.39,0,0,0-2.584.075h-.017a.167.167,0,0,1-.159-.134,3.38,3.38,0,0,1-.084-.878,17.2,17.2,0,0,0,2.526.1h.318v-.226a6.112,6.112,0,0,0-.092-1.154,5.259,5.259,0,0,1,1.129.125.127.127,0,0,1,.092.134.444.444,0,0,1-.059.184,1.667,1.667,0,0,0-.1.7v.235h.544c.544,0,1.615-.042,1.949-.067a.311.311,0,0,1,.092-.009.093.093,0,0,1,.1.084c.008.042.017.285.017.393,0,.443-.009.468-.176.468-.042,0-.125,0-.61-.016-.292-.008-.4-.008-1.907-.016v1.564c0,.837,0,.837.017,1.547.008.1.008.175.008.225,0,.811-.293,1.079-1.162,1.079a2.368,2.368,0,0,1-.7-.067c-.058-.025-.075-.067-.1-.192a3.079,3.079,0,0,0-.259-.786,3.239,3.239,0,0,0,.878.118c.3,0,.36-.076.36-.452Zm3.4,3.262a.191.191,0,0,1-.117.059c-.15,0-.451-.343-.82-.92a5.961,5.961,0,0,1-.652-1.305c0-.067.058-.125.192-.192a2.205,2.205,0,0,1,.552-.226c.067,0,.1.042.15.142a6.421,6.421,0,0,0,.619,1.138,4.172,4.172,0,0,0,.769.861A2.15,2.15,0,0,0,65.077,1366.522Zm.485-5.4a.9.9,0,1,1-.895-.895A.886.886,0,0,1,65.562,1361.119Zm-1.338,0a.446.446,0,0,0,.443.444.452.452,0,0,0,.443-.444.443.443,0,0,0-.887,0Z" transform="translate(-58.561 -1360.224)" fill="#fff"/><path d="M75.086,1362.974c.477,0,2.183-.034,2.509-.042.284-.017.368-.017.652-.05h.034c.109,0,.126.083.126.719,0,.192-.017.226-.117.243-.084,0-.084,0-.218-.008-.393-.025-.468-.025-1.806-.025a5.749,5.749,0,0,1-.753,2.961,4.252,4.252,0,0,1-1.3,1.338.761.761,0,0,1-.293.117c-.092,0-.117-.017-.3-.176a1.979,1.979,0,0,0-.552-.377,4.035,4.035,0,0,0,1.74-1.706,5.578,5.578,0,0,0,.443-2.149c-.125,0-1.48.017-1.714.017-.519.853-1.02,1.455-1.2,1.455a.337.337,0,0,1-.176-.075,2.466,2.466,0,0,0-.661-.335,6.048,6.048,0,0,0,1.572-2.2,4.571,4.571,0,0,0,.368-1.372,4.37,4.37,0,0,1,.97.318c.084.042.134.1.134.15s-.017.084-.092.168a1.742,1.742,0,0,0-.259.519c-.117.276-.142.335-.209.51Z" transform="translate(-64.121 -1360.691)" fill="#fff"/><path d="M86.531,1366.747a7.213,7.213,0,0,0-.51-1c-.184-.267-.192-.284-.192-.334,0-.067.092-.151.317-.276.267-.15.284-.159.335-.159s.092.034.226.209a5.326,5.326,0,0,1,.694,1.238c0,.059-.059.117-.226.217a2.263,2.263,0,0,1-.51.243C86.606,1366.889,86.581,1366.855,86.531,1366.747Zm4.558-1.422a.16.16,0,0,1-.05.108,1.919,1.919,0,0,0-.242.427,7.789,7.789,0,0,1-1.665,2.635,4.919,4.919,0,0,1-1.447,1.071.175.175,0,0,1-.142-.067,3.171,3.171,0,0,0-.653-.485,5.512,5.512,0,0,0,2.551-2.434,4.837,4.837,0,0,0,.577-1.756C90.713,1365.015,91.09,1365.2,91.09,1365.325Zm-3.019,1.037a6.533,6.533,0,0,0-.6-1.263.121.121,0,0,1-.025-.083c0-.059.058-.1.318-.243.309-.167.325-.175.368-.175.058,0,.109.042.209.209a5.271,5.271,0,0,1,.594,1.229c0,.05-.042.092-.176.176a2.474,2.474,0,0,1-.577.267C88.129,1366.479,88.1,1366.445,88.071,1366.362Z" transform="translate(-70.288 -1362.105)" fill="#fff"/><path d="M99.843,1365.623c0,.51.026,1.874.042,2.267v.042a.176.176,0,0,1-.059.159,1.929,1.929,0,0,1-.7.092c-.268,0-.317-.025-.317-.192v-.034c.017-.218.042-2.626.042-3.622a20.926,20.926,0,0,0-.092-2.952,8.756,8.756,0,0,1,1.113.117c.083.026.125.067.125.134a.638.638,0,0,1-.034.184,1.375,1.375,0,0,0-.058.352c0,.017-.017.518-.042,1.505a8.878,8.878,0,0,1,.936.293,13.075,13.075,0,0,1,2.058.9c.067.051.1.092.1.142a3.113,3.113,0,0,1-.285.736c-.067.142-.108.183-.158.183a.245.245,0,0,1-.134-.058,9.432,9.432,0,0,0-2.535-1.2Z" transform="translate(-75.847 -1360.723)" fill="#fff"/><path d="M111.539,1364.68h.686c.56,0,1.891-.034,2.2-.059a2.092,2.092,0,0,1,.217-.017c.142,0,.168.05.168.334a2.2,2.2,0,0,1-.042.594.161.161,0,0,1-.109.042h-.051c-.158-.016-2.383-.05-2.994-.05h-.092l-.008.36v.4c0,.619.033.745.217.862a1.991,1.991,0,0,0,.912.142,7.814,7.814,0,0,0,1.246-.117c.083-.008.1-.008.175-.017.109,0,.134.034.16.226a4.207,4.207,0,0,1,.05.6.181.181,0,0,1-.15.192,11.065,11.065,0,0,1-1.314.076,3.732,3.732,0,0,1-1.622-.251c-.477-.225-.669-.594-.669-1.3,0-.117,0-.443.017-1.171-1.272.016-1.272.016-1.664.025a1.846,1.846,0,0,1-.185.009h-.075a.3.3,0,0,1-.075.008.149.149,0,0,1-.16-.142,4.41,4.41,0,0,1-.067-.845c.577.051,1.472.084,2.225.084l.009-1.3c-.987.016-1.121.025-1.339.042a.211.211,0,0,1-.067.008.11.11,0,0,1-.117-.092,5.568,5.568,0,0,1-.067-.878c.577.058,1.255.075,2.459.075a23.689,23.689,0,0,0,2.376-.067h.042c.117,0,.142.05.142.351,0,.586,0,.586-.184.586H113.7c-.3-.009-1.413-.025-2.133-.025Z" transform="translate(-79.956 -1361.183)" fill="#fff"/><path d="M127.568,1364.061a.438.438,0,0,1,.058.192c0,.084-.033.142-.142.293a8.69,8.69,0,0,1-1.7,1.665,12.635,12.635,0,0,1-2.551,1.564c-.644.3-.677.317-.778.41-.067.067-.1.083-.15.083-.075,0-.142-.067-.268-.251a3.772,3.772,0,0,1-.418-.886,9.6,9.6,0,0,0,2.836-1.263,7.5,7.5,0,0,0,2.727-2.71A4.561,4.561,0,0,0,127.568,1364.061ZM122,1362.656c.142-.159.2-.2.276-.2a4.892,4.892,0,0,1,1.305.828c.317.259.418.368.418.452a1.653,1.653,0,0,1-.351.51c-.184.209-.276.284-.343.284s-.058,0-.4-.326a7.036,7.036,0,0,0-.87-.694c-.293-.193-.293-.193-.351-.226a.1.1,0,0,1-.051-.075A1.672,1.672,0,0,1,122,1362.656Z" transform="translate(-85.68 -1361.183)" fill="#fff"/><path d="M138.3,1366.746a3.687,3.687,0,0,1,.862.928c0,.076-.109.209-.368.46-.193.184-.276.243-.335.243a.207.207,0,0,1-.125-.059c-.092-.109-.092-.109-.476-.544a10.955,10.955,0,0,0-1.815-1.588,12.958,12.958,0,0,1-1.9,1.614,4.189,4.189,0,0,1-1.029.577c-.083,0-.092-.009-.292-.234a3.323,3.323,0,0,0-.519-.452,8.973,8.973,0,0,0,2.467-1.647,10.2,10.2,0,0,0,2.1-2.668,31.342,31.342,0,0,0-3.287.067c-.1.008-.117.008-.133.008a.144.144,0,0,1-.16-.134,5.841,5.841,0,0,1-.058-.962,22.7,22.7,0,0,0,2.668.109c.494,0,1.012-.017,1.288-.051a.935.935,0,0,0,.3-.075.179.179,0,0,1,.1-.017c.142,0,.293.117.494.385a1.186,1.186,0,0,1,.251.493c0,.1-.024.134-.242.334a2.647,2.647,0,0,0-.451.628,12.189,12.189,0,0,1-.954,1.33A11.492,11.492,0,0,1,138.3,1366.746Z" transform="translate(-90.276 -1361.126)" fill="#fff"/><path d="M147.058,1364.447c-.251.2-.385.285-.452.285s-.075,0-.234-.168a2.6,2.6,0,0,0-.594-.427,5.951,5.951,0,0,0,1.949-1.756,4.945,4.945,0,0,0,.744-1.438c.887.327,1.1.435,1.1.552,0,.042-.025.076-.108.134a2.427,2.427,0,0,0-.418.552h.15c.293.009.5.009.552.009a3.333,3.333,0,0,0,1.28-.117.346.346,0,0,1,.142-.034c.117,0,.235.092.494.4.209.234.268.335.268.427,0,.075-.025.117-.117.209a2.2,2.2,0,0,0-.293.469,10.438,10.438,0,0,1-2.317,3.07,7.615,7.615,0,0,1-2.183,1.472.291.291,0,0,1-.209-.1,2.208,2.208,0,0,0-.7-.493,10.136,10.136,0,0,0,2.844-1.983c-.059-.058-.059-.058-.243-.251a5.975,5.975,0,0,0-.794-.66c-.05-.042-.067-.067-.067-.1s.109-.167.4-.468c.142-.142.176-.168.226-.168a3.856,3.856,0,0,1,1.129.912,7.274,7.274,0,0,0,1.062-1.807c-.954.016-.954.016-2.175.025A8.963,8.963,0,0,1,147.058,1364.447Z" transform="translate(-96.069 -1360.533)" fill="#fff"/><path d="M161.227,1366.413c1.531,0,2.409-.017,3.253-.076h.109c.251,0,.251.009.251.678,0,.343-.025.4-.167.4h-.034c-.552-.025-.862-.025-3.279-.025-.887,0-1.33.009-2.1.033h-.243a2.171,2.171,0,0,0-.468.034c-.042,0-.075.008-.092.008a.152.152,0,0,1-.168-.117,5.409,5.409,0,0,1-.083-1.02A29.421,29.421,0,0,0,161.227,1366.413Z" transform="translate(-101.415 -1362.85)" fill="#fff"/><path d="M175.256,1366.575a1,1,0,1,1-1-1A.993.993,0,0,1,175.256,1366.575Z" transform="translate(-107.89 -1362.527)" fill="#fff"/><path d="M181.69,1364.489c0,.042-.017.067-.084.143a1.081,1.081,0,0,0-.176.318c-.368.811-1.029,1.706-1.271,1.706-.05,0-.067-.008-.243-.159a2.243,2.243,0,0,0-.56-.309,3.64,3.64,0,0,0,1.363-2.183C181.4,1364.222,181.69,1364.372,181.69,1364.489Zm.777-1.229a24.39,24.39,0,0,0-2.584.075h-.017a.167.167,0,0,1-.159-.134,3.379,3.379,0,0,1-.084-.878,17.2,17.2,0,0,0,2.526.1h.318v-.226a6.109,6.109,0,0,0-.092-1.154,5.247,5.247,0,0,1,1.129.125.127.127,0,0,1,.093.134.444.444,0,0,1-.059.184,1.667,1.667,0,0,0-.1.7v.235h.544c.544,0,1.615-.042,1.949-.067a.311.311,0,0,1,.092-.009.093.093,0,0,1,.1.084c.008.042.017.285.017.393,0,.443-.009.468-.176.468-.042,0-.125,0-.61-.016-.292-.008-.4-.008-1.907-.016v1.564c0,.837,0,.837.017,1.547.008.1.008.175.008.225,0,.811-.293,1.079-1.163,1.079a2.366,2.366,0,0,1-.7-.067c-.058-.025-.075-.067-.1-.192a3.08,3.08,0,0,0-.259-.786,3.239,3.239,0,0,0,.878.118c.3,0,.36-.076.36-.452Zm3.4,3.262a.192.192,0,0,1-.117.059c-.15,0-.451-.343-.82-.92a5.963,5.963,0,0,1-.652-1.305c0-.067.058-.125.192-.192a2.205,2.205,0,0,1,.552-.226c.067,0,.1.042.15.142a6.422,6.422,0,0,0,.619,1.138,4.172,4.172,0,0,0,.769.861A2.15,2.15,0,0,0,185.872,1366.522Zm.485-5.4a.9.9,0,1,1-.895-.895A.886.886,0,0,1,186.357,1361.119Zm-1.338,0a.446.446,0,0,0,.443.444.452.452,0,0,0,.443-.444.443.443,0,0,0-.887,0Z" transform="translate(-110.51 -1360.224)" fill="#fff"/><path d="M195.881,1362.974c.477,0,2.183-.034,2.509-.042.284-.017.368-.017.652-.05h.034c.109,0,.125.083.125.719,0,.192-.017.226-.117.243-.084,0-.084,0-.218-.008-.393-.025-.469-.025-1.807-.025a5.743,5.743,0,0,1-.752,2.961,4.252,4.252,0,0,1-1.3,1.338.761.761,0,0,1-.293.117c-.092,0-.117-.017-.3-.176a1.979,1.979,0,0,0-.552-.377,4.034,4.034,0,0,0,1.739-1.706,5.567,5.567,0,0,0,.443-2.149c-.125,0-1.48.017-1.714.017-.519.853-1.02,1.455-1.2,1.455a.337.337,0,0,1-.176-.075,2.466,2.466,0,0,0-.661-.335,6.047,6.047,0,0,0,1.572-2.2,4.569,4.569,0,0,0,.368-1.372,4.369,4.369,0,0,1,.97.318c.084.042.134.1.134.15s-.017.084-.092.168a1.743,1.743,0,0,0-.259.519c-.117.276-.142.335-.209.51Z" transform="translate(-116.07 -1360.691)" fill="#fff"/><path d="M208.941,1364.68h.686c.56,0,1.89-.034,2.2-.059a2.1,2.1,0,0,1,.218-.017c.142,0,.167.05.167.334a2.168,2.168,0,0,1-.042.594.16.16,0,0,1-.109.042h-.05c-.158-.016-2.384-.05-2.994-.05h-.092l-.008.36v.4c0,.619.033.745.217.862a1.989,1.989,0,0,0,.912.142,7.808,7.808,0,0,0,1.246-.117c.084-.008.1-.008.176-.017.109,0,.134.034.159.226a4.218,4.218,0,0,1,.05.6.182.182,0,0,1-.15.192,11.053,11.053,0,0,1-1.313.076,3.733,3.733,0,0,1-1.623-.251c-.477-.225-.669-.594-.669-1.3,0-.117,0-.443.017-1.171-1.272.016-1.272.016-1.665.025a1.836,1.836,0,0,1-.184.009h-.075a.3.3,0,0,1-.075.008.149.149,0,0,1-.159-.142,4.363,4.363,0,0,1-.067-.845c.577.051,1.472.084,2.225.084l.008-1.3c-.987.016-1.121.025-1.338.042a.215.215,0,0,1-.067.008.11.11,0,0,1-.117-.092,5.58,5.58,0,0,1-.067-.878c.577.058,1.254.075,2.459.075a23.7,23.7,0,0,0,2.375-.067h.042c.116,0,.142.05.142.351,0,.586,0,.586-.184.586H211.1c-.3-.009-1.414-.025-2.133-.025Z" transform="translate(-121.845 -1361.183)" fill="#fff"/><path d="M224.971,1364.061a.433.433,0,0,1,.059.192c0,.084-.034.142-.142.293a8.693,8.693,0,0,1-1.7,1.665,12.6,12.6,0,0,1-2.551,1.564c-.644.3-.677.317-.778.41-.067.067-.1.083-.15.083-.075,0-.142-.067-.268-.251a3.75,3.75,0,0,1-.418-.886,9.608,9.608,0,0,0,2.835-1.263,7.489,7.489,0,0,0,2.727-2.71A4.632,4.632,0,0,0,224.971,1364.061Zm-5.57-1.405c.142-.159.2-.2.276-.2a4.892,4.892,0,0,1,1.3.828c.318.259.418.368.418.452a1.648,1.648,0,0,1-.352.51c-.184.209-.276.284-.343.284s-.059,0-.4-.326a7.03,7.03,0,0,0-.869-.694c-.294-.193-.294-.193-.352-.226a.1.1,0,0,1-.05-.075A1.672,1.672,0,0,1,219.4,1362.656Z" transform="translate(-127.569 -1361.183)" fill="#fff"/><path d="M234.3,1366.575a1,1,0,1,1-1-1A.993.993,0,0,1,234.3,1366.575Z" transform="translate(-133.281 -1362.527)" fill="#fff"/><path d="M242.9,1365.751a2.292,2.292,0,0,1-1.508.442H240.14v2.166h-1.246v-6.022h2.58a2.077,2.077,0,0,1,1.423.466,1.819,1.819,0,0,1,.531,1.442A1.869,1.869,0,0,1,242.9,1365.751Zm-.957-2.177a1.009,1.009,0,0,0-.669-.2H240.14v1.781h1.133a.955.955,0,0,0,.669-.217.892.892,0,0,0,.239-.689A.839.839,0,0,0,241.942,1363.575Z" transform="translate(-136.115 -1361.133)" fill="#fff"/><path d="M251.964,1368.894a2.454,2.454,0,0,1-3.423,0,2.756,2.756,0,0,1,0-3.342,2.429,2.429,0,0,1,3.423,0,2.758,2.758,0,0,1,0,3.342Zm-.932-.638a2.074,2.074,0,0,0,0-2.061,1.037,1.037,0,0,0-1.574,0,2.059,2.059,0,0,0,0,2.061,1.034,1.034,0,0,0,1.574,0Z" transform="translate(-140.021 -1362.212)" fill="#fff"/><path d="M257.4,1362.381h1.146v3.244l1.468-1.681h1.448l-1.6,1.659,1.657,2.774H260.1l-1.078-1.9-.482.5v1.4H257.4Z" transform="translate(-144.072 -1361.152)" fill="#fff"/><path d="M268.219,1363.811a1.815,1.815,0,0,1,.768.658,2.193,2.193,0,0,1,.354.92,5.677,5.677,0,0,1,.038.882h-3.245a1.066,1.066,0,0,0,.465.937,1.182,1.182,0,0,0,.641.167.9.9,0,0,0,.886-.511h1.195a1.457,1.457,0,0,1-.431.806,2.16,2.16,0,0,1-1.673.65,2.425,2.425,0,0,1-1.566-.547,2.157,2.157,0,0,1-.679-1.781,2.409,2.409,0,0,1,.612-1.772,2.142,2.142,0,0,1,1.59-.617A2.539,2.539,0,0,1,268.219,1363.811Zm-1.75,1.01a1.169,1.169,0,0,0-.31.672h2.007a.938.938,0,0,0-.31-.686,1.039,1.039,0,0,0-.691-.234A.94.94,0,0,0,266.469,1364.821Zm2.078-2.924-1.237,1.221h-.837l.78-1.221Z" transform="translate(-147.329 -1360.943)" fill="#fff"/><path d="M279.293,1365.033a1.29,1.29,0,0,1,.776.97,4.011,4.011,0,0,1,.04.658l-.008,2.808h-1.2v-2.836a.928.928,0,0,0-.082-.417.585.585,0,0,0-.576-.31.674.674,0,0,0-.67.4,1.255,1.255,0,0,0-.095.511v2.652h-1.162v-2.649a1.5,1.5,0,0,0-.081-.576.572.572,0,0,0-.577-.322.688.688,0,0,0-.67.322,1.235,1.235,0,0,0-.094.547v2.677H273.72v-4.449h1.129v.652a1.874,1.874,0,0,1,.408-.492,1.613,1.613,0,0,1,1.7-.036,1.3,1.3,0,0,1,.382.533,1.481,1.481,0,0,1,.57-.573,1.744,1.744,0,0,1,.8-.183A1.563,1.563,0,0,1,279.293,1365.033Z" transform="translate(-151.092 -1362.244)" fill="#fff"/><path d="M290.3,1368.894a2.454,2.454,0,0,1-3.422,0,2.758,2.758,0,0,1,0-3.342,2.429,2.429,0,0,1,3.422,0,2.758,2.758,0,0,1,0,3.342Zm-.932-.638a2.07,2.07,0,0,0,0-2.061,1.037,1.037,0,0,0-1.574,0,2.059,2.059,0,0,0,0,2.061,1.034,1.034,0,0,0,1.574,0Z" transform="translate(-156.508 -1362.212)" fill="#fff"/><path d="M299.362,1365.253a1.476,1.476,0,0,1,.438,1.2v3h-1.2v-2.713a1.238,1.238,0,0,0-.093-.54.655.655,0,0,0-.65-.344.8.8,0,0,0-.808.5,1.739,1.739,0,0,0-.113.679v2.415h-1.163v-4.45h1.129v.649a1.986,1.986,0,0,1,.423-.5,1.462,1.462,0,0,1,.907-.27A1.707,1.707,0,0,1,299.362,1365.253Z" transform="translate(-160.577 -1362.231)" fill="#fff"/><path d="M306.887,1366.278a.139.139,0,0,1,.034.092c0,.05,0,.05-.142.435a5.96,5.96,0,0,0-.318,1.255.161.161,0,0,1-.151.175,2.467,2.467,0,0,1-.56.05c-.084,0-.125-.016-.15-.067a6.367,6.367,0,0,1-.276-1.2,8.256,8.256,0,0,1-.084-1.229,18.478,18.478,0,0,1,.41-3.512,6.147,6.147,0,0,0,.092-.653,2.8,2.8,0,0,1,.895.242c.125.067.176.125.176.2a.29.29,0,0,1-.059.158,10.1,10.1,0,0,0-.661,3.731c0,.2.009.518.034.92.2-.519.293-.753.477-1.154A1.359,1.359,0,0,0,306.887,1366.278Zm1.4-2.2c-.4,0-.485-.016-.51-.109a2.618,2.618,0,0,1-.05-.535c0-.067,0-.134.009-.284.226.016.359.025.635.025.451,0,.736-.009,1.171-.042a6.529,6.529,0,0,0-.1-1.59,4.445,4.445,0,0,1,.987.109c.125.033.176.076.176.159a.339.339,0,0,1-.034.126,3.335,3.335,0,0,0-.142,1.1c.309-.041.577-.1,1.079-.217a.178.178,0,0,1,.084-.017c.05,0,.075.025.092.084a4.465,4.465,0,0,1,.042.569c0,.209-.009.243-.092.276a5.837,5.837,0,0,1-1.213.217c0,.577.05,1.531.109,2.074a6.459,6.459,0,0,1,1.254.678c.234.168.284.226.284.285a1.837,1.837,0,0,1-.326.619c-.1.142-.15.184-.209.184s-.059,0-.251-.184a4.4,4.4,0,0,0-.745-.569v.067c0,.736-.61,1.221-1.538,1.221-.946,0-1.565-.5-1.565-1.255a1.371,1.371,0,0,1,1.481-1.314,4.17,4.17,0,0,1,.694.042c-.034-.653-.034-.653-.059-1.773C309.195,1364.053,308.626,1364.078,308.292,1364.078Zm.686,2.459c-.418,0-.694.193-.694.485,0,.268.259.436.66.436.443,0,.678-.2.678-.585,0-.117-.008-.209-.008-.209A1.69,1.69,0,0,0,308.977,1366.537Z" transform="translate(-164.647 -1360.792)" fill="#fff"/><path d="M319.3,1364.907c0-.218,0-.234.025-.92a4.907,4.907,0,0,1-.644.878,4.628,4.628,0,0,0-.384-.962,5.952,5.952,0,0,0,1.321-2.007,5.154,5.154,0,0,0,.385-1.188l.9.285-.276.727a7.578,7.578,0,0,1-.486,1.054v4.374a9.268,9.268,0,0,0,.051,1h-.946a8.683,8.683,0,0,0,.05-1Zm3.388-2.434c-.494.092-1.2.209-1.639.26a2.818,2.818,0,0,0-.36-.828,11.655,11.655,0,0,0,4.29-1l.577.761c-.167.058-.209.067-.443.159a14.315,14.315,0,0,1-1.547.468v1.765h1.388a6.907,6.907,0,0,0,.911-.05v.928a6.8,6.8,0,0,0-.911-.05h-1.388v2.141h1.112a6.7,6.7,0,0,0,.92-.05v.9a7.079,7.079,0,0,0-.92-.051H321.7a7.221,7.221,0,0,0-.929.051v-.9a6.84,6.84,0,0,0,.929.05h1v-2.141h-1.272a6.807,6.807,0,0,0-.911.05V1364a6.564,6.564,0,0,0,.911.05h1.272Z" transform="translate(-170.264 -1360.432)" fill="#fff"/><path d="M337.437,1364.686a5.492,5.492,0,0,0,.987,1.6,4.563,4.563,0,0,0,1.472,1.054,4.237,4.237,0,0,0,.77.267,3.382,3.382,0,0,0-.527.887,5.572,5.572,0,0,1-3.237-3.052,4.327,4.327,0,0,1-1.154,1.807,5.617,5.617,0,0,1-2.04,1.221,2.619,2.619,0,0,0-.527-.828,4.443,4.443,0,0,0,2.25-1.371,3.457,3.457,0,0,0,.77-1.581h-1.556a9.417,9.417,0,0,0-1.012.05v-.886a8.637,8.637,0,0,0,1,.05h1.689a9.766,9.766,0,0,0,.05-1.4h-1.991a9.083,9.083,0,0,0-1.037.05v-.911a8.9,8.9,0,0,0,1.037.049h5.069a9.2,9.2,0,0,0,1.037-.049v.911a9.144,9.144,0,0,0-1.029-.05h-2.174a13.484,13.484,0,0,1-.059,1.4h1.957a9.326,9.326,0,0,0,1.029-.05v.886a9.435,9.435,0,0,0-1.012-.05Z" transform="translate(-176.663 -1360.83)" fill="#fff"/><path d="M350.227,1365.344a5.923,5.923,0,0,0-.76.033,7.082,7.082,0,0,0,.025-.743v-.7c0-.259-.008-.426-.017-.61a4.782,4.782,0,0,0,.543.025h3.513a3.72,3.72,0,0,0,.509-.025,5.679,5.679,0,0,0-.017.635v.678a4.574,4.574,0,0,0,.025.735c-.217-.017-.467-.026-.8-.026h-1.129v.512h1.806a5.328,5.328,0,0,0,.8-.042v.8a5.128,5.128,0,0,0-.8-.042h-1.806v.7h2.316a6.3,6.3,0,0,0,.9-.05v.877a7.159,7.159,0,0,0-.9-.05h-5.343a7.447,7.447,0,0,0-.912.05v-.877a6.555,6.555,0,0,0,.912.05h2.174v-.7H349.6a5.182,5.182,0,0,0-.812.042v-.8a5.517,5.517,0,0,0,.812.042h1.665v-.512Zm1.038-3.846a3.506,3.506,0,0,0-.042-.627h.954a3.456,3.456,0,0,0-.042.627v.619h.795a5.493,5.493,0,0,0,.645-1.163l.845.385c-.1.134-.1.134-.36.519a2.609,2.609,0,0,1-.192.259h.527a8.355,8.355,0,0,0,.861-.033,6.676,6.676,0,0,0-.034.752v.7a3,3,0,0,0,.042.568h-.835v-1.229h-5.321v1.221h-.827a4.52,4.52,0,0,0,.034-.576v-.771a5.316,5.316,0,0,0-.034-.668,7.671,7.671,0,0,0,.827.033h.594a5.252,5.252,0,0,0-.577-.778l.736-.351a6.1,6.1,0,0,1,.762,1.129h.644Zm-.913,3.178h2.812v-.619h-2.812Z" transform="translate(-183.113 -1360.502)" fill="#fff"/><path d="M365.666,1366.575a1,1,0,1,1-1-1A.993.993,0,0,1,365.666,1366.575Z" transform="translate(-189.778 -1362.527)" fill="#fff"/><path d="M372.8,1363.25A5.852,5.852,0,0,1,371,1364.94c-.076,0-.109-.017-.276-.159a4.258,4.258,0,0,0-.619-.418,6.009,6.009,0,0,0,1.664-1.372,5.81,5.81,0,0,0,1.079-1.8,4.213,4.213,0,0,1,.9.385c.117.067.159.109.159.184s-.025.109-.1.167a2.286,2.286,0,0,0-.384.46l1.246.009a1.765,1.765,0,0,0,.786-.1.352.352,0,0,1,.092-.017c.134,0,.276.125.519.435.159.209.2.285.2.376s-.025.134-.142.251a2.881,2.881,0,0,0-.259.376,10.529,10.529,0,0,1-3.1,3.655,5.77,5.77,0,0,1-1.5.878.27.27,0,0,1-.2-.117,2.8,2.8,0,0,0-.694-.485,9.732,9.732,0,0,0,2.911-2.015,7.659,7.659,0,0,0,1.38-1.865c.075-.142.126-.251.259-.527Z" transform="translate(-192.542 -1360.641)" fill="#fff"/><path d="M385.044,1364.12c0,.193.009.577.017.812,0,.083.008.167.008.2,0,.168-.117.2-.769.2-.251,0-.3-.033-.3-.175v-.167c.034-.652.05-1.012.05-1.606a10.669,10.669,0,0,0-.092-1.782,6.606,6.606,0,0,1,1.012.075c.117.025.184.084.184.184a.327.327,0,0,1-.025.117,1.842,1.842,0,0,0-.084.728Zm3.254-1.087a10.019,10.019,0,0,1-.234,2.559,3.994,3.994,0,0,1-1.957,2.46,1.389,1.389,0,0,1-.427.184.2.2,0,0,1-.158-.092,2.337,2.337,0,0,0-.635-.569,3.852,3.852,0,0,0,1.355-.845,3.136,3.136,0,0,0,.853-1.522,12.287,12.287,0,0,0,.184-2.342,6.906,6.906,0,0,0-.084-1.322,5.932,5.932,0,0,1,1.062.092c.109.025.158.067.158.15a.451.451,0,0,1-.034.151,2.017,2.017,0,0,0-.083.744Z" transform="translate(-198.5 -1360.792)" fill="#fff"/><path d="M398.159,1366.413c1.531,0,2.409-.017,3.254-.076h.109c.251,0,.251.009.251.678,0,.343-.025.4-.167.4h-.034c-.552-.025-.862-.025-3.279-.025-.887,0-1.33.009-2.1.033h-.243a2.161,2.161,0,0,0-.468.034c-.042,0-.076.008-.092.008a.152.152,0,0,1-.168-.117,5.414,5.414,0,0,1-.083-1.02A29.428,29.428,0,0,0,398.159,1366.413Z" transform="translate(-203.309 -1362.85)" fill="#fff"/><path d="M412.185,1364.1c.008-.193.008-.309.008-.619,0-.076,0-.3-.008-.686a18.01,18.01,0,0,1-1.848.285.19.19,0,0,1-.184-.142,3.246,3.246,0,0,0-.259-.469c0-.009-.067-.084-.2-.242a11.1,11.1,0,0,0,3.237-.5,4.832,4.832,0,0,0,1.154-.519,2.119,2.119,0,0,1,.67.853c0,.075-.051.109-.16.125a2.047,2.047,0,0,0-.468.109c-.435.142-.51.167-.937.276.008.326.008.377.008.82v.7c1.247-.017,2.166-.042,2.434-.067a.3.3,0,0,1,.084-.009c.109,0,.133.084.133.443,0,.536-.008.552-.133.552-.017,0-.284-.017-.377-.025-.351-.025-.845-.033-2.2-.033a4.852,4.852,0,0,1-.728,2.124,5.178,5.178,0,0,1-.97,1.07.219.219,0,0,1-.125.05c-.075,0-.075,0-.351-.168a3.284,3.284,0,0,0-.686-.3,3.5,3.5,0,0,0,1.339-1.3,4.181,4.181,0,0,0,.5-1.463,19.94,19.94,0,0,0-2.585.109c-.092.008-.125.017-.15.017-.075,0-.109-.025-.125-.084a4.636,4.636,0,0,1-.117-.962,18.992,18.992,0,0,0,1.974.059h.235Z" transform="translate(-209.33 -1360.647)" fill="#fff"/><path d="M427.537,1364.891a.288.288,0,0,1,.176-.059,1.37,1.37,0,0,1,.744.753c0,.058-.025.092-.084.142a1,1,0,0,0-.268.326,6.7,6.7,0,0,1-.853,1.1c-.134.142-.209.193-.276.193a.283.283,0,0,1-.159-.068,1.956,1.956,0,0,0-.7-.359,4.065,4.065,0,0,0,1.154-1.121c-1.087.259-1.087.259-1.739.426.351,1.389.476,1.84.786,2.878a.732.732,0,0,1,.025.142c0,.076-.084.126-.31.184a2.964,2.964,0,0,1-.5.092c-.1,0-.117-.034-.159-.276-.075-.443-.376-1.656-.686-2.8a5.289,5.289,0,0,0-1.038.351.487.487,0,0,1-.183.059c-.159,0-.343-.376-.485-.962a7.139,7.139,0,0,0,1.489-.242,4.836,4.836,0,0,0-.46-1.255,6.576,6.576,0,0,1,1-.109c.142,0,.2.042.2.133a.444.444,0,0,1-.009.093.349.349,0,0,0-.017.125,3.8,3.8,0,0,0,.15.828A11.049,11.049,0,0,0,427.537,1364.891Z" transform="translate(-215.282 -1361.972)" fill="#fff"/><path d="M438.531,1366.413c1.531,0,2.409-.017,3.254-.076h.109c.251,0,.251.009.251.678,0,.343-.025.4-.167.4h-.034c-.552-.025-.862-.025-3.279-.025-.887,0-1.33.009-2.1.033h-.243a2.162,2.162,0,0,0-.468.034c-.042,0-.076.008-.092.008a.152.152,0,0,1-.168-.117,5.412,5.412,0,0,1-.083-1.02A29.428,29.428,0,0,0,438.531,1366.413Z" transform="translate(-220.672 -1362.85)" fill="#fff"/><path d="M452.985,1365.907a3.665,3.665,0,0,1,.861.928c0,.075-.108.209-.368.46-.192.183-.276.242-.335.242a.206.206,0,0,1-.125-.059c-.092-.109-.092-.109-.476-.544a11.386,11.386,0,0,0-1.815-1.589,13.576,13.576,0,0,1-1.9,1.623,4.177,4.177,0,0,1-1.029.577c-.084,0-.092-.008-.292-.242a4.492,4.492,0,0,0-.519-.451,8.777,8.777,0,0,0,2.467-1.648,10.192,10.192,0,0,0,2.1-2.668,31.371,31.371,0,0,0-3.287.067c-.1.008-.117.008-.134.008a.143.143,0,0,1-.159-.133,5.857,5.857,0,0,1-.058-.962,22.674,22.674,0,0,0,2.668.109c.494,0,1.012-.017,1.288-.042a1.288,1.288,0,0,0,.3-.075.18.18,0,0,1,.1-.017c.141,0,.292.117.493.385a1.146,1.146,0,0,1,.251.493c0,.1-.025.133-.242.335a2.507,2.507,0,0,0-.452.619,11.32,11.32,0,0,1-.953,1.33A12.121,12.121,0,0,1,452.985,1365.907Zm.443-3.822a3.881,3.881,0,0,0-.62-.845c-.05-.05-.05-.05-.05-.075,0-.051.05-.1.193-.209.125-.092.192-.125.234-.125.067,0,.158.075.359.292a2.332,2.332,0,0,1,.461.635c0,.092-.376.394-.494.394C453.478,1362.152,453.461,1362.135,453.428,1362.085Zm1.17-.628c-.058.042-.125.084-.15.1a.111.111,0,0,0-.042.009.065.065,0,0,0-.024.017c-.026,0-.051-.025-.084-.083a4.237,4.237,0,0,0-.627-.819c-.025-.017-.025-.017-.05-.059a.926.926,0,0,1,.435-.309c.059,0,.084.017.175.1a4.651,4.651,0,0,1,.561.661.585.585,0,0,1,.067.142C454.858,1361.257,454.758,1361.357,454.6,1361.457Z" transform="translate(-225.607 -1360.261)" fill="#fff"/><path d="M464.754,1366.575a1,1,0,1,1-1-1A.993.993,0,0,1,464.754,1366.575Z" transform="translate(-232.392 -1362.527)" fill="#fff"/><path d="M472.231,1362.736c.476,0,2.183-.034,2.509-.042.284-.017.368-.017.653-.051h.034c.109,0,.125.084.125.719,0,.193-.016.226-.117.243-.084,0-.084,0-.217-.009-.393-.025-.468-.025-1.807-.025a5.752,5.752,0,0,1-.753,2.961,4.242,4.242,0,0,1-1.305,1.338.744.744,0,0,1-.292.117c-.092,0-.117-.017-.3-.176a1.968,1.968,0,0,0-.552-.376,4.043,4.043,0,0,0,1.74-1.706,5.585,5.585,0,0,0,.443-2.15c-.125,0-1.48.016-1.714.016-.519.853-1.021,1.456-1.2,1.456a.338.338,0,0,1-.175-.075,2.43,2.43,0,0,0-.661-.334,6.039,6.039,0,0,0,1.572-2.2,4.562,4.562,0,0,0,.368-1.371,4.362,4.362,0,0,1,.97.318c.084.042.134.1.134.15s-.017.084-.092.168a1.73,1.73,0,0,0-.259.519c-.117.276-.142.335-.209.51Zm2.568-.393a3.663,3.663,0,0,0-.62-.845c-.05-.05-.05-.05-.05-.075,0-.05.05-.1.192-.209.126-.092.193-.125.234-.125.067,0,.15.067.36.292a2.195,2.195,0,0,1,.46.636c0,.092-.376.393-.493.393C474.849,1362.41,474.832,1362.393,474.8,1362.343Zm.945-.51c-.025,0-.042-.017-.075-.075a4.133,4.133,0,0,0-.636-.819.2.2,0,0,1-.041-.067c0-.017.017-.033.133-.134a1.8,1.8,0,0,1,.276-.175.343.343,0,0,1,.2.108,2.847,2.847,0,0,1,.627.8C476.229,1361.549,475.928,1361.774,475.743,1361.833Z" transform="translate(-234.916 -1360.369)" fill="#fff"/><path d="M485.214,1366.413c1.531,0,2.409-.017,3.253-.076h.109c.251,0,.251.009.251.678,0,.343-.025.4-.167.4h-.034c-.552-.025-.861-.025-3.278-.025-.887,0-1.33.009-2.1.033h-.243a2.165,2.165,0,0,0-.468.034c-.042,0-.076.008-.092.008a.152.152,0,0,1-.168-.117,5.353,5.353,0,0,1-.084-1.02A29.436,29.436,0,0,0,485.214,1366.413Z" transform="translate(-240.748 -1362.85)" fill="#fff"/><path d="M497.553,1366.7c1-.083,1.823-.176,2.317-.259a8.788,8.788,0,0,0-.929-1.388.184.184,0,0,1-.05-.118c0-.076.092-.143.418-.335a.541.541,0,0,1,.293-.1.2.2,0,0,1,.159.067,8.76,8.76,0,0,1,1.363,2.016,4.779,4.779,0,0,1,.418,1.036c0,.076-.084.151-.276.251a2.057,2.057,0,0,1-.577.217c-.075,0-.126-.05-.168-.167a6.467,6.467,0,0,0-.267-.694c-.7.125-1.221.209-1.565.259-1.162.167-1.472.209-2.927.351a2.094,2.094,0,0,0-.611.134.342.342,0,0,1-.092.016.172.172,0,0,1-.158-.117,2.868,2.868,0,0,1-.276-.971l.226.009c.176,0,.176,0,.8-.042.058-.134.058-.134.175-.393a25.718,25.718,0,0,0,1.322-3.931,4.022,4.022,0,0,0,.15-.869,6.71,6.71,0,0,1,1.012.242c.176.059.251.109.251.184,0,.042-.017.067-.109.176a2.085,2.085,0,0,0-.184.385c-.034.076-.117.343-.443,1.372-.251.753-.736,2.007-1.071,2.743C497.076,1366.745,497.394,1366.721,497.553,1366.7Z" transform="translate(-246.094 -1360.849)" fill="#fff"/><path d="M510.734,1363.29a18.3,18.3,0,0,0-2.818.125.03.03,0,0,1-.025.009c-.159,0-.209-.276-.234-1.138a14.853,14.853,0,0,0,2.183.083c1.121,0,2.434-.025,2.643-.05a1.082,1.082,0,0,0,.352-.084.2.2,0,0,1,.092-.016c.142,0,.318.134.585.451.159.2.193.251.193.343a.294.294,0,0,1-.084.183c-.084.1-.092.125-.276.711a7.76,7.76,0,0,1-2.652,3.764,3.93,3.93,0,0,1-1.1.678c-.092,0-.109-.009-.3-.2a2.587,2.587,0,0,0-.628-.477,6.673,6.673,0,0,0,2.542-1.941,5.721,5.721,0,0,0,1.13-2.459C511.679,1363.282,511.679,1363.282,510.734,1363.29Z" transform="translate(-251.698 -1361.082)" fill="#fff"/><path d="M522.318,1364.12c0,.193.008.577.017.812,0,.083.008.167.008.2,0,.168-.117.2-.77.2-.251,0-.3-.033-.3-.175v-.167c.034-.652.05-1.012.05-1.606a10.677,10.677,0,0,0-.092-1.782,6.62,6.62,0,0,1,1.012.075c.117.025.184.084.184.184a.313.313,0,0,1-.025.117,1.847,1.847,0,0,0-.083.728Zm3.253-1.087a10.019,10.019,0,0,1-.234,2.559,3.991,3.991,0,0,1-1.957,2.46,1.388,1.388,0,0,1-.426.184.2.2,0,0,1-.158-.092,2.339,2.339,0,0,0-.636-.569,3.846,3.846,0,0,0,1.355-.845,3.126,3.126,0,0,0,.853-1.522,12.285,12.285,0,0,0,.184-2.342,6.852,6.852,0,0,0-.084-1.322,5.92,5.92,0,0,1,1.062.092c.109.025.159.067.159.15a.453.453,0,0,1-.034.151,2.014,2.014,0,0,0-.084.744Z" transform="translate(-257.536 -1360.792)" fill="#fff"/><path d="M535.434,1366.413c1.53,0,2.409-.017,3.253-.076h.109c.251,0,.251.009.251.678,0,.343-.025.4-.167.4h-.034c-.552-.025-.861-.025-3.278-.025-.887,0-1.33.009-2.1.033h-.243a2.162,2.162,0,0,0-.468.034c-.042,0-.076.008-.092.008a.152.152,0,0,1-.168-.117,5.358,5.358,0,0,1-.084-1.02A29.437,29.437,0,0,0,535.434,1366.413Z" transform="translate(-262.345 -1362.85)" fill="#fff"/><path d="M548.821,1363.25a5.857,5.857,0,0,1-1.806,1.689c-.076,0-.109-.017-.276-.159a4.292,4.292,0,0,0-.619-.418,6.019,6.019,0,0,0,1.664-1.372,5.811,5.811,0,0,0,1.079-1.8,4.222,4.222,0,0,1,.9.385c.117.067.159.109.159.184s-.025.109-.1.167a2.277,2.277,0,0,0-.385.46l1.246.009a1.765,1.765,0,0,0,.786-.1.351.351,0,0,1,.092-.017c.134,0,.276.125.518.435.159.209.2.285.2.376s-.025.134-.142.251a2.9,2.9,0,0,0-.259.376,10.53,10.53,0,0,1-3.1,3.655,5.77,5.77,0,0,1-1.5.878.269.269,0,0,1-.2-.117,2.8,2.8,0,0,0-.694-.485,9.732,9.732,0,0,0,2.911-2.015,7.66,7.66,0,0,0,1.38-1.865c.075-.142.125-.251.259-.527Z" transform="translate(-268.24 -1360.641)" fill="#fff"/><path d="M561.87,1366.912a1.855,1.855,0,0,1-1.522,1.079c-.87,0-1.489-.853-1.489-2.041a3.376,3.376,0,0,1,1.815-3.061,3.938,3.938,0,0,1,1.957-.434,2.9,2.9,0,0,1,3.044,2.894,3.182,3.182,0,0,1-2.108,3.111,2,2,0,0,1-.6.184c-.1,0-.142-.033-.251-.192a1.757,1.757,0,0,0-.527-.527c1.723-.443,2.5-1.254,2.5-2.609a1.959,1.959,0,0,0-.812-1.648,2.125,2.125,0,0,0-.987-.359A9.1,9.1,0,0,1,561.87,1366.912Zm-1.2-2.961a2.6,2.6,0,0,0-.878,1.982c0,.644.209,1.021.561,1.021.418,0,.845-.577,1.162-1.572a10.5,10.5,0,0,0,.427-2.033A2.412,2.412,0,0,0,560.666,1363.952Z" transform="translate(-273.718 -1361.183)" fill="#fff"/><path d="M579.691,1362.418c-.059.075-.067.083-.142.176a9.889,9.889,0,0,1-.711.745,8.127,8.127,0,0,0,1.221.567,2.728,2.728,0,0,0-.418.8,7.83,7.83,0,0,1-1.94-1.163v.467a4.447,4.447,0,0,0-.544-.025h-1.782a4.456,4.456,0,0,0-.5.025v-.517a8.159,8.159,0,0,1-2,1.246,2.424,2.424,0,0,0-.426-.762.959.959,0,1,0,.426-1.739l.6-.527a10.208,10.208,0,0,1,1.12.979,4.279,4.279,0,0,0,.761-.812H574.3a3.306,3.306,0,0,0-.486.034v-.812a3.4,3.4,0,0,0,.661.042h1.514a4.292,4.292,0,0,0,.694-.033,1.927,1.927,0,0,0,.544.9,4.192,4.192,0,0,0,.669-.862l.669.443a10.187,10.187,0,0,1-.828.921,5.438,5.438,0,0,0,.494.4,4.549,4.549,0,0,0,.794-.945Zm-4.893,4.968a3.675,3.675,0,0,0-.327-.653l.7-.259h-.862c-.259,0-.418.009-.569.017.017-.217.025-.343.025-.576v-1a3.745,3.745,0,0,0-.034-.551,4.856,4.856,0,0,0,.635.034h3.789a4.2,4.2,0,0,0,.619-.034,5,5,0,0,0-.024.543v1.013a5.254,5.254,0,0,0,.024.576c-.15-.008-.31-.017-.577-.017h-.778l.678.234c-.125.243-.318.594-.377.678H579.1a4.944,4.944,0,0,0,.786-.042v.869a5.565,5.565,0,0,0-.836-.042h-5.554a5.828,5.828,0,0,0-.845.042v-.869a4.993,4.993,0,0,0,.794.042Zm-.2-1.63h3.3v-.645h-3.3Zm2.576-2.484h.2a6.447,6.447,0,0,1-1.113-1.263,6.457,6.457,0,0,1-1.113,1.263h2.024Zm-.318,4.115a5.207,5.207,0,0,0,.418-.912h-2.016a6.367,6.367,0,0,1,.41.912Z" transform="translate(-279.562 -1360.602)" fill="#fff"/><path d="M588.38,1363.6a4.417,4.417,0,0,0-.477.025v-.418c-.142.125-.193.167-.368.309a2.306,2.306,0,0,0-.369-.761,3.743,3.743,0,0,0,1.4-1.74h.879a3.221,3.221,0,0,0,1.162,1.355,3.652,3.652,0,0,0-.485.72l-.059-.059v.594a2.847,2.847,0,0,0-.476-.025h-.235v.535h.327a3.658,3.658,0,0,0,.569-.033v-.652a6.365,6.365,0,0,0,.761.042h2.04c.016-.243.025-.368.025-.451h-1.581a5.421,5.421,0,0,0-.736.033v-.769a4,4,0,0,0,.736.042h1.623c.008-.134.008-.134.025-.452h-1.807a5.862,5.862,0,0,0-.761.034v-.77a5.243,5.243,0,0,0,.8.042h1.89a5.78,5.78,0,0,0,.745-.033,4.584,4.584,0,0,0-.059.777c-.016.377-.059,1.138-.092,1.547h.05a6.2,6.2,0,0,0,.769-.042v.795a5.107,5.107,0,0,0-.761-.042h-1.079a3.83,3.83,0,0,0,.385,1.171,3.854,3.854,0,0,0,.777-.945l.661.452a8.575,8.575,0,0,1-1.07,1.137,3.857,3.857,0,0,0,1.238,1.163,3.426,3.426,0,0,0-.477.786,4.78,4.78,0,0,1-.987-1.037,4.316,4.316,0,0,1-.611-1.246c.017.151.034.444.051.887v1.037c0,.536-.234.728-.878.728-.176,0-.4-.009-.711-.025a2.259,2.259,0,0,0-.192-.811,3.691,3.691,0,0,0,.628.075c.3,0,.359-.034.359-.209v-.77c-.267.226-.335.285-.568.461l-.686.468c-.125.083-.125.083-.267.184l-.251-.569v.318a16.738,16.738,0,0,1-2.157.577,3.8,3.8,0,0,0-.628.142l-.125-.878a7.649,7.649,0,0,0,1.254-.167v-2.258h-.418a6.451,6.451,0,0,0-.786.042v-.82a6.579,6.579,0,0,0,.8.042h.41v-.535Zm-.628,3.328a8.427,8.427,0,0,0-.335-1.572l.619-.193a8.2,8.2,0,0,1,.36,1.564Zm.635-4.048h1.2c.142,0,.193,0,.3-.009a4.663,4.663,0,0,1-.853-1.138,4.993,4.993,0,0,1-.812,1.146Zm2.618,1.321a5.518,5.518,0,0,0-.711.034v.669a4.184,4.184,0,0,0-.619-.033h-.327v2.091c.276-.067.443-.117.879-.251v.167a8.165,8.165,0,0,0,1.781-1.163V1364.2Zm-1.556,2.225a5.7,5.7,0,0,0,.318-1.3l.61.193a8.314,8.314,0,0,1-.385,1.288Zm1.623-2.007a4.864,4.864,0,0,1,.7,1.2l-.619.41a5.2,5.2,0,0,0-.711-1.28Z" transform="translate(-285.892 -1360.565)" fill="#fff"/><path d="M604.078,1365.672c0-.175,0-.25-.009-.376-.142.067-.217.1-.41.192a2.84,2.84,0,0,0-.394-.56v2.274a8.039,8.039,0,0,0,.042.979h-.944a6.535,6.535,0,0,0,.051-.979v-3.672a5.933,5.933,0,0,0-.034-.685c.134.008.552.025.8.025h.938a3.032,3.032,0,0,0-.31-.721h-.837a6.42,6.42,0,0,0-.894.042v-.861a7.933,7.933,0,0,0,.952.051h2.2v-.2a3.141,3.141,0,0,0-.042-.5h.979c0,.034-.009.059-.009.076a2.421,2.421,0,0,0-.033.418v.209h2.325a7.141,7.141,0,0,0,.944-.051v.861a6.288,6.288,0,0,0-.886-.042h-.87a4.313,4.313,0,0,1-.36.721h1.029c.425,0,.551-.008.76-.025a4.808,4.808,0,0,0-.033.685v3.7c0,.685-.251.895-1.07.895-.184,0-.184,0-.887-.017a2.7,2.7,0,0,0-.2-.811h-1.991v.351h-.844a3.973,3.973,0,0,0,.034-.6Zm-.813-2.041v1.155c.8-.251,1.147-.577,1.222-1.155Zm2.059,0a2.014,2.014,0,0,1-1.062,1.556c.209.009.36.009.46.009h2a5.9,5.9,0,0,0,.659-.025c-.016.183-.025.409-.025.585v.946a5.868,5.868,0,0,0,.026.6c.192.018.4.026.527.026.226,0,.276-.042.276-.217v-2.543c-.151.3-.343.36-1.146.36-.862,0-1.07-.1-1.07-.51v-.787Zm1.029-.76a2.979,2.979,0,0,0,.334-.721h-1.94a3.668,3.668,0,0,1,.293.721Zm-1.457,3.722h1.69v-.7H604.9Zm3.288-2.962h-1.406v.468c0,.134.059.16.427.16.452,0,.494-.042.494-.46a4.48,4.48,0,0,0,.485.2Z" transform="translate(-292.305 -1360.42)" fill="#fff"/><path d="M618.32,1363.067a1.228,1.228,0,0,1,.427,2.015,5.3,5.3,0,0,1-.486-.979c.016.545.025.762.025,1.087v2.108a9.853,9.853,0,0,0,.042.987h-.911a6.371,6.371,0,0,0,.059-.987v-1.589a5.078,5.078,0,0,1,.025-.578c0-.033,0-.117.008-.251.008-.058.008-.15.017-.267a6.212,6.212,0,0,1-.694,1.781,3.525,3.525,0,0,0-.4-.886,4.952,4.952,0,0,0,.653-1.381,10.6,10.6,0,0,0,.3-1.062h-.234a2.907,2.907,0,0,0-.535.033v-.827a2.917,2.917,0,0,0,.535.033h.318v-.644a4.891,4.891,0,0,0-.051-.837h.911a5.273,5.273,0,0,0-.042.828v.653h.151a2.682,2.682,0,0,0,.477-.033v.82a3.845,3.845,0,0,0-.46-.026Zm2.133,3.5a5.01,5.01,0,0,1-1.321,1.514,3.075,3.075,0,0,0-.644-.552,3.365,3.365,0,0,0,1.254-1.28Zm1.322.971a.566.566,0,0,1-.209.519,1.405,1.405,0,0,1-.77.125c-.125,0-.226,0-.56-.008a2.8,2.8,0,0,0-.16-.8,3.843,3.843,0,0,0,.569.059c.259,0,.3-.016.3-.168V1366.2h-1.238a5.824,5.824,0,0,0-.845.042v-.794a5.567,5.567,0,0,0,.836.042h3.421a7.394,7.394,0,0,0,.828-.034v.786a5.592,5.592,0,0,0-.82-.042h-1.355Zm1.2-5.294a6.565,6.565,0,0,0,.743-.034,3.283,3.283,0,0,0-.033.56v.745a3.959,3.959,0,0,0,.033.609c-.251-.016-.426-.025-.768-.025h-3.07c-.318,0-.527.009-.761.025a3.881,3.881,0,0,0,.034-.576v-.779a3.584,3.584,0,0,0-.034-.56,5.8,5.8,0,0,0,.736.034h.587v-.386h-.653a8.454,8.454,0,0,0-.912.042v-.819a6.72,6.72,0,0,0,.912.051H623a7.262,7.262,0,0,0,.944-.051v.819a8.041,8.041,0,0,0-.886-.042h-.712v.386Zm-3.673,2.141a5.421,5.421,0,0,0,.811.042h2.568a7.5,7.5,0,0,0,.82-.034v.769a6.349,6.349,0,0,0-.761-.033H620.1a6.761,6.761,0,0,0-.8.033Zm.544-1.5v.562h.6v-.562Zm1.841-1.029h-.578v.386h.578Zm-.578,1.591h.578v-.562h-.578Zm1.665,2.8a3.987,3.987,0,0,0,1.355,1.121,3.316,3.316,0,0,0-.552.669,4.515,4.515,0,0,1-1.422-1.4Zm-.419-2.8h.578v-.562h-.578Z" transform="translate(-298.477 -1360.483)" fill="#fff"/><path d="M632.389,1363.59a4.109,4.109,0,0,0-.594.185.651.651,0,0,1-.217.058c-.184,0-.352-.343-.5-1.062a12.635,12.635,0,0,0,1.656-.192c1-.151,2.274-.343,2.944-.427.753-.1,1.355-.2,1.673-.267a.368.368,0,0,1,.125-.017c.109,0,.151.05.226.259a1.942,1.942,0,0,1,.117.544c0,.1-.034.134-.151.134a3.2,3.2,0,0,0-.494.042,3.005,3.005,0,0,0-2.542,2.777c0,.979.769,1.623,2.074,1.74.117.008.159.05.159.15a2.773,2.773,0,0,1-.159.795.212.212,0,0,1-.218.134,2.9,2.9,0,0,1-.618-.126,2.626,2.626,0,0,1-2.166-2.6,3.006,3.006,0,0,1,.661-1.891,3.437,3.437,0,0,1,.911-.794C634.179,1363.214,633.025,1363.432,632.389,1363.59Zm4.282.218a3.02,3.02,0,0,1,.828.92c0,.042-.051.092-.2.225s-.167.134-.234.159c-.042.017-.042.017-.059.017-.033,0-.042-.009-.192-.243a3.956,3.956,0,0,0-.544-.669.213.213,0,0,1-.042-.067c.016-.042.025-.067.034-.067a1.958,1.958,0,0,1,.2-.176.784.784,0,0,0,.142-.084.03.03,0,0,1,.025-.016h.042Zm1.43.577c-.125.092-.2.142-.243.142s-.049-.017-.092-.084a4.015,4.015,0,0,0-.644-.795.164.164,0,0,1-.033-.067c0-.041.05-.092.167-.175a.666.666,0,0,1,.259-.134c.058,0,.159.075.334.251a2.149,2.149,0,0,1,.469.636C638.319,1364.209,638.261,1364.268,638.1,1364.385Z" transform="translate(-304.776 -1360.931)" fill="#fff"/><path d="M648.235,1363.139a17.269,17.269,0,0,0-3.07.334.421.421,0,0,1-.092.017.149.149,0,0,1-.134-.109,3.292,3.292,0,0,1-.142-.9h.2c.267,0,.518-.008,1.321-.059.619-.033,1.146-.059,1.9-.084a5.268,5.268,0,0,0-.092-1.246,4.469,4.469,0,0,1,1.088.092c.05.025.075.067.075.151a.317.317,0,0,1-.025.092,2.429,2.429,0,0,0-.117.886c1.221-.033,1.405-.033,2.242-.033.226,0,.259,0,.284.025s.05.159.05.443c0,.385-.008.427-.117.427h-.034c-.36-.033-1.255-.067-1.84-.067-.193,0-.193,0-.61.008l-.017,1.372a1.974,1.974,0,0,1,.167.911,2.831,2.831,0,0,1-1.2,2.443,2.439,2.439,0,0,1-.911.468.232.232,0,0,1-.184-.092,2.319,2.319,0,0,0-.711-.569,3.8,3.8,0,0,0,1.087-.46,3.247,3.247,0,0,0,.618-.51,2.251,2.251,0,0,0,.318-.527.937.937,0,0,1-.752.343,1.19,1.19,0,0,1-1.163-1.347,1.345,1.345,0,0,1,1.3-1.472,1.242,1.242,0,0,1,.561.109Zm-1.012,1.957a.525.525,0,0,0,.5.594c.317,0,.51-.226.51-.61s-.184-.619-.5-.619C647.432,1364.461,647.223,1364.72,647.223,1365.1Z" transform="translate(-310.677 -1360.597)" fill="#fff"/><path d="M659,1370.5a1.413,1.413,0,1,1-1.413-1.413A1.419,1.419,0,0,1,659,1370.5Zm-2.174,0a.761.761,0,1,0,.761-.761A.766.766,0,0,0,656.824,1370.5Z" transform="translate(-315.568 -1364.036)" fill="#fff"/></g></g></svg>