<svg xmlns="http://www.w3.org/2000/svg" width="264.463" height="264.463" viewBox="0 0 264.463 264.463"><path d="M828.195,412.422h-90.35a42.41,42.41,0,0,0-83.2,0h-90.35c-.169,2.732-.281,5.475-.281,8.247s.112,5.519.281,8.247h90.35a42.41,42.41,0,0,0,83.2,0h90.35c.166-2.729.281-5.475.281-8.247S828.361,415.154,828.195,412.422Zm-107.4,16.495a25.551,25.551,0,1,1,1.368-8.247A25.943,25.943,0,0,1,720.792,428.917Zm-24.548-64.791a56.7,56.7,0,0,1,51.932,34.159h78.276a132.1,132.1,0,0,0-260.416,0h78.276A56.7,56.7,0,0,1,696.244,364.126Zm0,113.091a56.7,56.7,0,0,1-51.932-34.163H566.036a132.1,132.1,0,0,0,260.416,0H748.177A56.7,56.7,0,0,1,696.244,477.216Zm112.2-20.026a117.957,117.957,0,0,1-224.4,0h51.677a70.69,70.69,0,0,0,121.043,0Z" transform="translate(-564.013 -288.438)" fill="#f3f3f3"/></svg>