<?xml version="1.0" encoding="utf-8"?>
<!-- Generator: Adobe Illustrator 27.4.0, SVG Export Plug-In . SVG Version: 6.00 Build 0)  -->
<svg version="1.1" id="レイヤー_1" xmlns="http://www.w3.org/2000/svg" xmlns:xlink="http://www.w3.org/1999/xlink" x="0px"
	 y="0px" viewBox="0 0 309.6 58.4" style="enable-background:new 0 0 309.6 58.4;" xml:space="preserve">
<g transform="translate(-32.79 -1543.27)">
	<path d="M119.7,1551.8c1.5-0.5,2.5-1.9,2.5-3.5c0-0.9-0.4-4.3-6.1-4.3c-1.6-0.1-3.1,0.3-4.5,1.1c-1.1,0.7-1.7,1.9-1.7,3.2
		c0,1.6,1,3,2.5,3.5c-1.8,0.5-3,2.1-3,3.9c0,1.4,0.7,2.8,1.8,3.7c1.5,0.9,3.2,1.3,4.9,1.2c1.7,0.1,3.4-0.4,4.9-1.2
		c1.2-0.9,1.8-2.2,1.8-3.7C122.7,1553.9,121.4,1552.3,119.7,1551.8z M116,1547c2,0,2.4,1.2,2.4,1.9c0,0.3-0.1,1.9-2.4,1.9
		s-2.4-1.6-2.4-1.9C113.6,1548.2,114,1547,116,1547z M116,1553c2.6,0,2.9,1.6,2.9,2.3c0,1.7-1.6,2.3-2.9,2.3c-1.4,0-3-0.6-3-2.3
		C113,1554.7,113.4,1553,116,1553z M137.1,1555.2v2.2c0,0.7,0,1.1-0.7,1.1c-0.6,0-1.1-0.1-1.6-0.2c0.5,1,0.9,2.1,1,3.3
		c4,0.2,4.5-0.7,4.5-2.9v-14.8h-12.5v7.6c0,2,0,5.8-3.6,8.2c1,0.5,1.8,1.3,2.5,2.1c2.1-1.6,3.6-4,3.9-6.6H137.1z M130.7,1552.3v-1.4
		h6.3v1.4H130.7z M130.7,1548.1v-1.4h6.3v1.4H130.7z M151.9,1560.2v-15.8H149c-0.7,2.5-2.2,2.8-4.2,2.9v2.6h3.4v10.2H151.9z
		 M168.8,1559.8v1.1h3.1v-16.3h-14.3v16.3h3.1v-1.1H168.8z M160.7,1556.9v-3.5h8.1v3.5H160.7z M160.7,1550.7v-3.3h8.1v3.3H160.7z
		 M181.9,1543.4c0.2,1.1,0.3,2.1,0.3,3.2c0,4.1,0,4.3,0.2,7.2c-0.2,0-0.4,0-0.5,0c-2.3,0-6.3,0.7-6.3,3.7c0,2.8,3.3,3.8,5.8,3.8
		c0.6,0,2.7-0.1,3.7-1.2c0.6-0.7,0.9-1.6,0.8-2.4c1.7,0.7,3.4,1.7,4.8,2.9c0.6-1,1.3-1.9,2.1-2.8c-1.3-1-5.3-3.1-7.2-3.3
		c-0.2-1.3-0.3-2.6-0.3-3.8c2.1-0.1,4.1-0.3,6.2-0.8c0-1.2,0-2.3,0.2-3.4c-2,0.6-4.1,1-6.3,1c0-0.5,0.1-1.2,0.2-2.7
		c0.2,0,0.4-0.1,0.4-0.4c0-0.2-0.2-0.3-0.3-0.3L181.9,1543.4z M182.6,1556.7c0,1.1,0,1.8-1.9,1.8c-0.2,0-1.7,0-1.7-0.9
		c0-0.7,1.2-1.1,2.2-1.1C181.7,1556.5,182.1,1556.6,182.6,1556.7z M195.8,1543.6c0,0.2,0,0.3-0.1,0.8c-0.4,1.6-0.6,3.3-0.7,4.9
		c0,2.5,0.5,5.1,1.4,7.4l2.9-0.3c0.4-1.8,1.1-3.5,2.1-5.1c-0.7-0.5-1.4-1-2-1.7c-0.3,0.3-0.5,0.7-0.6,1.1c-0.2,0.6-0.3,0.7-0.5,1.1
		c-0.1-0.6-0.2-1.2-0.2-1.8c0-1.7,0.3-3.5,0.9-5.1c0.1,0,0.5-0.1,0.5-0.3c0-0.2-0.2-0.3-0.6-0.4L195.8,1543.6z M204.5,1543.4
		c0.6,2.4,0.8,4.9,0.8,7.3c0,2.9-0.5,6.4-5.3,8.7c1,0.6,1.9,1.4,2.6,2.3c5.8-3.3,6-8.5,6-11c0-0.8,0-1.6-0.1-2.3
		c0-0.6-0.3-3.7-0.3-4.4c0.1,0,0.3-0.1,0.3-0.3c0-0.3-0.3-0.3-0.5-0.3L204.5,1543.4z M226.5,1550.5c0.9,0.9,1.9,1.6,3,2.2
		c0.5-0.9,1.1-1.7,1.9-2.4c-0.9-0.4-1.7-0.8-2.5-1.4c0.5-0.5,1-1,1.4-1.6c0.3,0,0.6,0,0.6-0.2c0-0.1-0.1-0.2-0.2-0.3l-2.1-1.5
		c-0.5,0.7-1,1.4-1.6,2.1l-0.6-0.6c0.5-0.5,0.9-1,1.3-1.6c0.1,0,0.2,0,0.3,0c0.1,0,0.4,0,0.4-0.3c0-0.1-0.1-0.2-0.2-0.3l-2.1-1.4
		c-0.3,0.5-0.7,1-1.1,1.5c-0.3-0.5-0.6-0.8-1-1.5l-2.2,1.1c0.8,1.7,1.9,3.4,3.2,4.8h-5.8c1.1-1.2,2-2.5,2.6-4l-0.7-0.9h-7.2v2.4h0.9
		l-1.4,1.4c0.6,0.5,1.2,1,1.8,1.6c-1,0.7-2,1.3-3.1,1.7c0.8,0.5,1.5,1.2,2,2c1.2-0.6,2.3-1.3,3.3-2.2v0.8h1v1.5h-3.8v2.6h3.3
		c-1.1,2.7-4,3.3-4.9,3.4c0.6,0.7,1.2,1.5,1.6,2.4c3-0.6,5.4-2.8,6.1-5.8h1.8v3.3c0,0.5,0,2.2,2.3,2.2h2.9c2.2,0,2.6-0.8,3.4-3.3
		c-0.9-0.4-1.8-0.9-2.6-1.4c-0.4,1.9-0.8,2.1-1.4,2.1h-1.1c-0.8,0-0.8-0.1-0.8-0.8v-2.1h3.7v-2.6h-3.7v-1.5h1.2V1550.5z
		 M222.5,1551.9v1.5H221v-1.5H222.5z M217.7,1546.6c-0.2,0.4-0.5,0.8-0.8,1.1c-0.4-0.4-0.9-0.8-1.4-1.1H217.7z M233.9,1551v4.3h3.1
		v-2h11.6v1.9h3.1v-4.2H233.9z M239.1,1553.6c0,3.8-1.4,5.1-5.5,5.9c0.8,0.6,1.5,1.5,1.9,2.5c3.7-0.6,6.5-3.7,6.7-7.5
		c0.2,0,0.6,0,0.6-0.4c0-0.1-0.1-0.2-0.3-0.2L239.1,1553.6z M249.2,1561.4c2.5,0,2.8-2.1,3-3.9c-1-0.2-2-0.6-2.8-1.3
		c-0.1,0.5-0.2,1.3-0.3,1.7c-0.1,0.6-0.3,0.8-1,0.8h-1.3c-0.4,0-0.6-0.1-0.6-0.9v-3.5c0.4-0.2,0.5-0.2,0.5-0.4
		c0-0.3-0.3-0.3-0.5-0.3l-3-0.1v5.3c0,2.3,1.6,2.3,2.5,2.3H249.2z M244.3,1545.1v-1c0.2-0.1,0.4-0.2,0.4-0.4c0-0.2-0.2-0.2-0.3-0.2
		l-3.2-0.1v1.7h-7.5v2.4h7.5v0.6h-5.5v2.3h14.1v-2.3h-5.5v-0.6h7.5v-2.4H244.3z M255.2,1560.2h3.4v-3.4h-3.4V1560.2z M255.2,1544.4
		v4.7l0.7,5.9h1.9l0.7-5.9v-4.7H255.2z M262.5,1560.2h3.4v-3.4h-3.4V1560.2z M262.5,1544.4v4.7l0.7,5.9h1.9l0.7-5.9v-4.7H262.5z"/>
	<path d="M50.4,1597.5v1.3h5.2V1578H32.8v4.7h17.6v10.2H32.8v4.7H50.4z M65.3,1575.3v4.3h17.4v-4.3H65.3z M61.5,1582.2v4.4h18
		c-3,7.8-9.8,10.2-12.6,11.1c1.2,1.2,2.3,2.4,3.3,3.9c6.8-2.8,10-6.2,13-11.5c0.5-0.8,2.7-5.1,3.2-6.1l-2.9-2.1
		c-0.8,0.2-1.7,0.3-2.6,0.3H61.5z M101.7,1580.7h-9.8v4.4h9.8v9.4c0,1.3-0.2,1.6-1.1,1.6c-0.9,0-1.7-0.1-2.6-0.3
		c0.8,1.5,1.3,3.1,1.6,4.7c0.7,0.1,1.3,0.2,2,0.2c5,0,5-2.6,5-4.5v-11.1h9.8v-4.4h-9.8v-5.2c0.2-0.1,0.5-0.2,0.5-0.5
		c0-0.3-0.3-0.4-0.5-0.4l-4.9-0.2V1580.7z M96.4,1586.7c-1.5,3-3.7,5.7-6.4,7.7c1.4,0.9,2.8,1.9,4.1,3.1c2.4-2.2,4.4-4.7,6-7.5
		c0.3,0,0.8,0,0.8-0.4c0-0.2-0.2-0.3-0.4-0.4L96.4,1586.7z M108.3,1589.2c2.3,2.3,4.2,4.8,5.8,7.6c2.3-2,2.9-2.6,3.7-3.2
		c-1.8-2.6-3.8-5-6-7.3L108.3,1589.2z M110.2,1576.4c1,1,1.9,2,2.8,3.1c0.5-0.4,1.7-1.4,2.4-1.9c-0.8-1.1-1.7-2.1-2.8-3
		L110.2,1576.4z M114,1574.8c1,0.9,1.9,2,2.8,3.1c0.9-0.8,1.2-1,2.4-1.9c-0.8-1.1-1.7-2.1-2.8-3L114,1574.8z M124.9,1575.3v20.2
		c0,0.4-0.1,1.4-0.1,1.8l3.2,3c12.4-4.8,16.8-9.3,19.9-12.7c-0.9-1.5-1.7-3.1-2.2-4.7c-4.1,5.1-9.5,8.9-15.7,10.9v-17.3
		c0.2-0.1,0.6-0.3,0.6-0.6c0-0.3-0.2-0.3-0.6-0.3L124.9,1575.3z M152.7,1585.2v5.1h26.1v-5.1H152.7z M186.9,1577.3
		c2.6,0.9,5,2.2,7.3,3.8c0.4-0.6,2.2-3.2,2.9-3.9c-2.4-1.4-4.9-2.6-7.5-3.5L186.9,1577.3z M183.8,1584.4c2.5,1,4.8,2.4,6.8,4.1
		c0.9-1.4,1.8-2.7,2.9-4c-2.1-1.7-4.5-3.1-7-4.1L183.8,1584.4z M188.1,1600.9c0.1,0.1,0.2,0.4,0.4,0.4c0.4,0,0.5-0.5,0.5-0.7
		c8-3,16.9-10.3,20.7-16c-1.2-1.2-2.3-2.5-3.1-4c-5.2,7.3-12.6,12.9-21.1,15.9L188.1,1600.9z M227.8,1599.1v0.9h4.2v-18.5h-17.2v3.9
		h13v2.9h-12.6v3.9h12.6v3.1h-13.4v3.8H227.8z M238.7,1579.1c2.7,1.2,5.3,2.8,7.6,4.8c2-2.9,2.2-3.2,2.9-4.1
		c-0.9-0.8-2.5-2.3-7.5-4.9L238.7,1579.1z M242,1600.5c0.2,0.3,0.3,0.4,0.5,0.4c0.3,0,0.4-0.3,0.4-0.7c4.4-1.6,8.6-3.9,12.4-6.7
		c3.7-2.8,6.8-6.1,9.3-10c-1.2-1.2-2.2-2.6-3.1-4.1c-5.3,8.6-13.8,14.4-22.3,16.1L242,1600.5z M273.5,1583l-6.9,0.8l0.4,4.6l6.5-0.8
		v6.4c0,3.8,0.8,6.1,6.7,6.1c2.1,0,8,0,10.3-0.1c0-1.6,0.2-3.3,0.6-4.9c-3.2,0.4-6.5,0.5-9.7,0.5c-2.4,0-3-0.4-3-2.3v-6.5l7.1-0.9
		c-1,1.6-2.2,3.1-3.6,4.5c1.4,0.7,2.8,1.5,4.1,2.5c0.8-1.1,4.7-6.7,5.6-7.9c0.3-0.3,1-1.2,1.4-1.7l-3.1-2.8
		c-0.7,0.3-1.4,0.5-2.2,0.6l-9.3,1.1v-6.6c0.2-0.1,0.6-0.2,0.6-0.5c0-0.3-0.3-0.3-0.6-0.3l-4.9-0.2L273.5,1583z M297.6,1583
		c1,1.9,2,3.8,2.8,5.7c1.2-0.8,2.5-1.4,3.8-1.9c-0.8-1.9-1.7-3.7-2.8-5.5L297.6,1583z M303.6,1581.6c1,1.8,1.9,3.7,2.6,5.6
		c1.2-0.6,2.5-1.1,3.8-1.6c-0.6-2-1.4-3.9-2.5-5.6L303.6,1581.6z M314.1,1580.5c-1.3,9.5-5.1,13.6-12.8,16.6
		c1.1,0.9,2.1,2.1,2.9,3.4c7-3,11.8-7.2,14.3-17.8c0.1,0,0.6,0,0.6-0.3c0-0.3-0.2-0.4-0.6-0.5L314.1,1580.5z M330.2,1584.7v-9.2
		c0.2-0.1,0.6-0.2,0.6-0.5c0-0.3-0.4-0.3-0.6-0.3l-5.1-0.2v26.5h5.1v-14.1c3.4,1.8,6.5,4,9.4,6.7c1.3-2,1.5-2.2,2.8-4.2
		c-3.1-2.8-6.7-5.2-10.5-7.1L330.2,1584.7z"/>
</g>
</svg>
